<?xml version="1.0" standalone="no"?>
<!DOCTYPE svg PUBLIC "-//W3C//DTD SVG 20010904//EN"
 "http://www.w3.org/TR/2001/REC-SVG-20010904/DTD/svg10.dtd">
<svg version="1.0" xmlns="http://www.w3.org/2000/svg"
 width="700.000000pt" height="700.000000pt" viewBox="0 0 700.000000 700.000000"
 preserveAspectRatio="xMidYMid meet">
<metadata>
Created by potrace 1.11, written by Peter Selinger 2001-2013
</metadata>
<g transform="translate(0.000000,700.000000) scale(0.100000,-0.100000)"
fill="#000000" stroke="none">
<path d="M3477 6105 c-1 -1 -66 -5 -144 -9 -77 -3 -147 -8 -155 -10 -7 -3 -29
-7 -48 -9 -67 -9 -173 -28 -181 -32 -3 -3 -24 -7 -45 -11 -124 -19 -402 -121
-584 -214 -439 -224 -773 -536 -1056 -985 -51 -81 -136 -255 -184 -376 -76
-189 -150 -485 -165 -654 -3 -38 -8 -86 -11 -105 -6 -43 -6 -360 1 -415 2 -22
7 -65 10 -95 5 -48 14 -103 32 -200 25 -134 75 -304 135 -455 68 -173 159
-338 303 -553 87 -131 339 -399 461 -492 32 -25 68 -53 79 -63 25 -24 206
-145 260 -174 98 -55 257 -134 316 -158 127 -53 348 -121 459 -142 14 -2 43
-8 65 -13 162 -35 511 -54 674 -36 25 3 75 8 111 12 36 3 72 7 80 9 8 1 35 6
60 10 69 11 67 11 195 44 207 52 357 110 551 210 481 250 866 634 1115 1115
259 501 347 1053 258 1615 -11 68 -21 127 -24 131 -2 4 -7 22 -10 41 -30 175
-157 495 -287 724 -180 318 -491 644 -818 860 -176 115 -390 221 -595 292 -73
25 -289 82 -340 90 -16 2 -41 6 -55 9 -71 12 -164 24 -240 29 -104 7 -219 12
-223 10z m748 -860 c114 -33 223 -131 276 -250 28 -63 35 -220 13 -285 -29
-84 -61 -130 -373 -534 -319 -414 -407 -528 -448 -582 -95 -125 -312 -404
-323 -417 -8 -8 -24 -27 -35 -43 -19 -27 -263 -346 -375 -489 -30 -38 -75 -97
-100 -130 -25 -33 -48 -62 -51 -65 -22 -19 -129 -176 -138 -202 -31 -99 -1
-211 72 -268 57 -44 100 -58 167 -55 104 4 147 34 260 185 35 46 208 272 223
290 7 8 102 132 211 275 109 143 220 281 246 306 137 131 348 153 518 53 64
-38 93 -70 257 -284 82 -107 152 -197 155 -200 11 -10 88 -116 112 -155 100
-161 80 -369 -51 -516 -164 -184 -459 -184 -632 -2 -20 21 -136 169 -259 328
-122 160 -226 294 -230 298 -4 4 -27 -18 -51 -50 -24 -32 -69 -90 -99 -129
-30 -38 -65 -83 -77 -100 -284 -373 -335 -426 -451 -463 -168 -54 -326 -18
-444 101 -48 48 -120 158 -104 158 3 0 -2 16 -10 35 -17 41 -18 134 -3 207 22
103 -28 34 823 1136 171 222 337 438 369 480 32 42 68 91 81 107 13 17 57 73
98 125 40 52 118 154 173 225 54 72 102 132 105 135 26 24 183 244 195 274 46
110 -8 251 -119 308 -60 31 -158 30 -222 -3 -52 -27 -56 -31 -462 -559 -125
-162 -230 -299 -234 -305 -128 -164 -167 -203 -236 -236 -146 -69 -319 -58
-444 30 -44 31 -72 60 -152 161 -60 76 -309 406 -335 443 -117 171 -97 399 48
547 93 95 203 137 335 128 155 -11 261 -83 394 -267 9 -13 22 -28 27 -35 6 -6
39 -49 74 -95 35 -46 69 -91 77 -100 7 -9 54 -70 105 -136 50 -66 95 -124 99
-128 4 -4 42 38 85 94 43 56 84 109 91 118 7 9 77 99 154 201 78 102 166 208
196 237 109 105 268 142 419 98z"/>
<path d="M2428 5068 c-121 -25 -205 -138 -195 -259 2 -31 13 -72 23 -90 24
-42 422 -560 443 -576 48 -37 106 -55 166 -51 103 6 143 35 253 177 l50 65
-81 105 c-403 528 -441 575 -493 603 -54 29 -110 38 -166 26z"/>
<path d="M4100 2906 c-31 -6 -73 -24 -95 -40 -36 -26 -165 -183 -165 -200 0
-4 39 -58 88 -120 48 -62 97 -126 109 -142 12 -16 31 -40 42 -54 11 -14 74
-96 140 -182 67 -86 137 -170 157 -186 116 -96 299 -56 370 81 22 41 28 124
15 175 -10 35 -124 201 -208 302 -7 8 -56 71 -109 140 -53 69 -107 137 -119
152 -26 31 -89 66 -131 74 -15 3 -30 6 -33 8 -3 2 -31 -2 -61 -8z"/>
</g>
</svg>
