<?xml version="1.0" encoding="utf-8"?>
<!-- Generator: Adobe Illustrator 22.1.0, SVG Export Plug-In . SVG Version: 6.00 Build 0)  -->
<svg version="1.1" id="Laag_1" xmlns="http://www.w3.org/2000/svg" xmlns:xlink="http://www.w3.org/1999/xlink" x="0px" y="0px"
	 viewBox="0 0 3632.2 2740" style="enable-background:new 0 0 3632.2 2740;" xml:space="preserve">
<style type="text/css">
	.st0{opacity:0.11;fill:#FDE845;}
</style>
<path class="st0" d="M2734.7,2672c34.8-4.5,65.7-22.2,87-49.8l181.5-235.7l180.3,234.1c21.3,27.6,52.2,45.3,87,49.8
	c6.5,0.8,13,1.2,19.5,1.1c28.2-0.5,54.9-9.8,77.3-27.1c27.6-21.3,45.3-52.2,49.9-87c4.5-34.8-4.7-69.2-26-96.8l-129.2-167.8
	l-7.6-9.9c-6.1-7.2-12.9-13.8-20.3-19.5c-21.3-16.4-46.9-25.8-73.8-27c-6.6-0.3-13.2-0.1-19.7,0.6c-36.1,3.8-68.2,21.6-90.2,50.3
	l-71.4,93.2l-175.3,227.6c-17.6,22.8-43,37.4-71.6,41.2c-28.6,3.7-57-3.9-79.8-21.5c-43.7-33.7-55-96.4-25.7-142.7l0.5-0.8l0.6-0.8
	l213.4-276.6l3-5l40.8-52.9l0.4,0.5l356.7-462.8c1.7-2.2,3.4-4.7,5.5-7.7c17.3-26.1,24.6-57.8,20.5-89.1c-0.3-2.2-0.7-4.7-1.3-7.9
	l-0.6-3l-1.2-5.6l-2.1-6.7c-8.1-25.5-23.6-47.6-44.6-63.8c-27.6-21.3-62-30.5-96.8-26c-34.8,4.5-65.7,22.2-87,49.8l-181.5,235.7
	l-180.3-234.1c-21.3-27.6-52.2-45.3-87-49.8c-6.5-0.8-13-1.2-19.5-1.1c-28.2,0.5-54.9,9.8-77.3,27.1c-27.6,21.3-45.3,52.2-49.8,87
	c-4.5,34.8,4.7,69.2,26,96.8l136.9,177.7c6.1,7.2,12.9,13.8,20.3,19.5c21.3,16.4,46.9,25.8,73.8,27c2.2,0.1,4.2,0.2,6,0.2
	c4.5,0,9.1-0.2,13.8-0.7c36.1-3.8,68.1-21.6,90.2-50.3l71.2-92.8l175.6-228c17.6-22.8,43-37.4,71.6-41.2c28.6-3.7,57,3.9,79.8,21.5
	c43.6,33.6,54.8,96.4,25.5,143l-0.5,0.9l-213.7,277l-3,5l-40.8,52.9l-0.4-0.5L2614,2462.3c-1.7,2.2-3.5,4.7-5.4,7.7
	c-17.3,26.1-24.6,57.8-20.5,89.1c0.4,3.3,1,6.9,1.9,10.8c6.5,30.3,23.5,57.3,48,76.1c23,17.7,50.5,27.1,79.5,27.1
	C2723.1,2673.2,2728.9,2672.8,2734.7,2672z M3068.4,2301.4c1.4-1.8,2.9-3.7,4.8-5.8c6.8-7.7,14.7-14.4,23.5-19.9
	c5.6-3.5,11.7-6.6,17.9-9c3.1-1.2,6.3-2.3,9.4-3.2c6.3-1.8,12.9-3.1,19.4-3.7c3.3-0.3,6.6-0.5,9.9-0.5h0.1c3.5,0,6.7,0.1,9.8,0.4
	c20.5,1.8,40.1,9.4,56.4,22c5.7,4.4,11,9.4,15.6,14.6l0.8,1l136.6,177.4c8.9,11.5,15.2,24.5,18.9,38.5c1.8,6.7,2.9,13.7,3.3,20.6
	c1.1,17.3-2.1,34.8-9.1,50.6c-5.8,13.1-14,24.7-24.4,34.6c-2.6,2.5-5.4,4.9-8.3,7.1c-3.6,2.7-7.3,5.3-11.1,7.5
	c-3.8,2.3-7.8,4.3-11.7,6c-5.2,2.3-10.7,4.1-16.2,5.6c-8.3,2.1-16.7,3.2-25.2,3.3c-0.6,0-1.1,0-1.7,0c-3.5,0-7.1-0.2-10.6-0.5
	c-3-0.3-6.1-0.7-9.1-1.3c-9.2-1.7-18-4.6-26.4-8.5c-15.5-7.3-28.8-18-39.3-31.7l-184.2-239L3068.4,2301.4z M2787.3,1847.6
	c-1.4,1.8-2.9,3.6-4.8,5.8c-21.2,23.9-50.9,36.2-80.9,36.2c-23.1,0-46.3-7.3-65.7-22.3c-5.7-4.4-11-9.4-15.6-14.6l-0.8-1
	l-136.6-177.4c-17.6-22.8-25.2-51.1-21.5-79.8s18.3-54.1,41.1-71.6c18.6-14.3,40.8-22.1,64.3-22.4c0.5,0,1,0,1.6,0
	c20.9,0,41.1,5.9,58.4,17c10.4,6.7,19.6,15.1,27.2,25l184.2,239L2787.3,1847.6z"/>
</svg>
