<?xml version="1.0" encoding="utf-8"?>
<!-- Generator: Adobe Illustrator 22.1.0, SVG Export Plug-In . SVG Version: 6.00 Build 0)  -->
<svg version="1.1" id="Laag_1" xmlns="http://www.w3.org/2000/svg" xmlns:xlink="http://www.w3.org/1999/xlink" x="0px" y="0px"
	 viewBox="0 0 2474.1 2740" style="enable-background:new 0 0 2474.1 2740;" xml:space="preserve">
<style type="text/css">
	.st0{opacity:0.3;fill:#FDE845;}
</style>
<path class="st0" d="M1803.4,2671.8c41.7-5.4,78.7-26.6,104.2-59.7l217.5-282.4l216,280.4c25.5,33.1,62.5,54.3,104.2,59.7
	c7.8,1,15.6,1.5,23.3,1.3c33.8-0.6,65.8-11.8,92.6-32.5c33.1-25.5,54.3-62.5,59.7-104.2c5.4-41.7-5.6-82.9-31.1-116l-154.8-201
	l-9.2-11.9c-7.3-8.7-15.5-16.5-24.3-23.3c-25.6-19.7-56.2-30.9-88.5-32.4c-7.9-0.4-15.9-0.1-23.6,0.7
	c-43.3,4.5-81.7,25.9-108.1,60.3l-85.6,111.6l-210,272.7c-21,27.3-51.5,44.8-85.8,49.3c-34.3,4.5-68.2-4.7-95.6-25.7
	c-52.4-40.4-65.9-115.4-30.8-170.9l0.6-1l0.7-0.9l255.6-331.4l3.6-5.9l48.9-63.4l0.5,0.7l427.4-554.5c2-2.6,4.1-5.6,6.5-9.2
	c20.7-31.3,29.5-69.2,24.6-106.7c-0.3-2.6-0.8-5.6-1.6-9.4l-0.7-3.6l-1.4-6.7l-2.5-8c-9.7-30.6-28.2-57-53.4-76.4
	c-33.1-25.5-74.3-36.6-116-31.1c-41.7,5.4-78.7,26.6-104.2,59.7l-217.5,282.4l-216-280.4c-25.5-33.1-62.5-54.3-104.2-59.7
	c-7.8-1-15.6-1.5-23.3-1.3c-33.7,0.6-65.8,11.8-92.6,32.5c-33.1,25.5-54.3,62.5-59.7,104.2c-5.4,41.7,5.6,82.9,31.1,116l164,212.9
	c7.3,8.7,15.5,16.5,24.3,23.3c25.6,19.7,56.2,30.9,88.4,32.4c2.7,0.1,5,0.2,7.1,0.2c5.4,0,10.9-0.3,16.5-0.9
	c43.3-4.5,81.6-25.9,108.1-60.3l85.2-111.2l210.3-273.1c21.1-27.3,51.5-44.8,85.8-49.3c34.3-4.5,68.2,4.7,95.6,25.7
	c52.3,40.3,65.7,115.5,30.5,171.3l-0.6,1l-256,331.9l-3.6,6l-48.9,63.4l-0.5-0.7l-427.4,554.5c-2,2.6-4.2,5.7-6.5,9.2
	c-20.8,31.3-29.5,69.2-24.6,106.8c0.5,4,1.3,8.2,2.3,13c7.7,36.2,28.2,68.6,57.5,91.2c27.6,21.2,60.5,32.5,95.2,32.5
	C1789.6,2673.2,1796.5,2672.7,1803.4,2671.8z M2203.2,2227.8c1.7-2.2,3.5-4.4,5.7-6.9c8.2-9.2,17.7-17.3,28.1-23.8
	c6.8-4.2,14-7.8,21.5-10.8c3.7-1.4,7.5-2.7,11.3-3.8c7.6-2.2,15.4-3.7,23.3-4.4c3.9-0.4,7.9-0.6,11.9-0.6h0.1c4.2,0,8,0.2,11.7,0.5
	c24.6,2.1,48,11.2,67.6,26.3c6.8,5.2,13.2,11.3,18.6,17.5l0.9,1.2l163.7,212.5c10.6,13.8,18.2,29.3,22.6,46.1
	c2.1,8.1,3.4,16.4,3.9,24.7c1.3,20.7-2.5,41.6-10.9,60.6c-6.9,15.7-16.8,29.6-29.2,41.4c-3.1,3-6.5,5.8-10,8.5
	c-4.3,3.3-8.7,6.3-13.3,9c-4.6,2.7-9.3,5.1-14.1,7.2c-6.3,2.7-12.8,5-19.5,6.7c-9.9,2.5-20,3.8-30.2,4c-0.7,0-1.3,0-2,0
	c-4.2,0-8.5-0.2-12.7-0.6c-3.6-0.4-7.3-0.9-10.9-1.6c-11-2-21.6-5.5-31.6-10.2c-18.6-8.8-34.5-21.6-47.1-38l-220.6-286.4
	L2203.2,2227.8z M1866.5,1684.1c-1.7,2.2-3.5,4.4-5.7,6.9c-25.3,28.6-61,43.4-96.9,43.4c-27.6,0-55.4-8.8-78.8-26.7
	c-6.8-5.2-13.2-11.3-18.6-17.5l-0.9-1.2l-163.7-212.5c-21.1-27.3-30.2-61.3-25.7-95.6s22-64.8,49.3-85.8
	c22.3-17.1,48.9-26.4,77-26.8c0.6,0,1.2,0,1.9,0c25,0,49.2,7,69.9,20.4c12.5,8,23.4,18.1,32.6,30l220.6,286.4L1866.5,1684.1z"/>
</svg>
