<?xml version="1.0" encoding="utf-8"?>
<!-- Generator: Adobe Illustrator 22.1.0, SVG Export Plug-In . SVG Version: 6.00 Build 0)  -->
<svg version="1.1" id="Laag_1" xmlns="http://www.w3.org/2000/svg" xmlns:xlink="http://www.w3.org/1999/xlink" x="0px" y="0px"
	 viewBox="0 0 500 500" style="enable-background:new 0 0 500 500;" xml:space="preserve">
<style type="text/css">
	.st0{fill:#222221;}
</style>
<path class="st0" d="M180.9,350.9c1.3,6.2,4.8,11.8,9.9,15.7c4.7,3.7,10.4,5.6,16.4,5.6c1.2,0,2.4-0.1,3.6-0.2
	c7.2-0.9,13.5-4.6,17.9-10.3l33.5-43.5l3.2-4.1l3.2,4.1l33.3,43.2c4.4,5.7,10.7,9.3,17.9,10.3c1.2,0.2,2.4,0.2,3.6,0.2
	c0.1,0,0.3,0,0.4,0c5.8-0.1,11.3-2,15.9-5.6c5.7-4.4,9.3-10.7,10.3-17.9c0.9-7.2-1-14.3-5.4-19.9l-26.3-34.2l-1.6-2
	c-1.3-1.5-2.7-2.8-4.2-4c-4.4-3.4-9.7-5.3-15.2-5.6c-0.4,0-0.8,0-1.2,0c-0.9,0-1.9,0-2.8,0.1c-7.4,0.8-14,4.5-18.6,10.4l-14.5,19
	l-35.7,46.3c-4.1,5.4-10.4,8.4-17.2,8.4c-4.8,0-9.4-1.6-13.2-4.5c-8.8-6.8-11-19.3-5.2-28.6l0.1-0.2l0.1-0.1l43.4-56.3l0.5-0.8
	l0.1-0.2l0.1-0.2l4.7-6.1l3.2-4.1l0.1,0.1l72.9-94.5c0.3-0.5,0.7-1,1.1-1.6c3.6-5.4,5.1-11.9,4.2-18.4c-0.1-0.5-0.1-1-0.3-1.6
	l-0.1-0.6l-0.2-1.2l-0.4-1.4c-1.7-5.3-4.9-9.8-9.2-13.1c-4.7-3.7-10.4-5.6-16.4-5.6c-1.2,0-2.4,0.1-3.6,0.2
	c-7.2,0.9-13.5,4.6-17.9,10.3l-33.5,43.5l-3.2,4.1l-3.2-4.1l-33.3-43.2c-4.4-5.7-10.7-9.3-17.9-10.3c-1.2-0.2-2.4-0.2-3.6-0.2
	c-0.2,0-0.3,0-0.5,0c-5.8,0.1-11.3,2-15.9,5.6c-5.7,4.4-9.3,10.7-10.3,17.9c-0.9,7.2,1,14.3,5.4,19.9l26.3,34.2l1.6,2
	c1.3,1.5,2.7,2.8,4.2,4c4.4,3.4,9.7,5.3,15.2,5.6c0.4,0,0.8,0,1.2,0c0.9,0,1.9-0.1,2.8-0.2c7.4-0.8,14-4.5,18.6-10.4l14.5-18.9
	l35.7-46.4c4.1-5.4,10.4-8.4,17.2-8.4c4.8,0,9.4,1.6,13.2,4.5c8.7,6.7,11,19.3,5.1,28.7l-0.1,0.2l-0.1,0.2l-43.4,56.2l-0.5,0.8
	l-0.1,0.2l-0.1,0.2l-4.7,6.1l-3.2,4.1l-0.1-0.1l-72.9,94.5c-0.4,0.5-0.7,1-1.1,1.6c-3.6,5.4-5.1,11.9-4.2,18.4
	C180.6,349.4,180.7,350.1,180.9,350.9z M270.6,307.2l8.3-10.8c0.3-0.4,0.6-0.7,1-1.2c1.4-1.5,3-2.9,4.7-4c1.1-0.7,2.3-1.3,3.6-1.8
	c0.6-0.2,1.3-0.5,1.9-0.6c1.3-0.4,2.6-0.6,3.9-0.7c0.7-0.1,1.3-0.1,2-0.1c0,0,0,0,0,0c0.7,0,1.4,0,2,0.1c4.1,0.4,8,1.9,11.3,4.4
	c1.1,0.9,2.2,1.9,3.1,2.9l0.1,0.1l0.1,0.1l27.8,36.1c1.8,2.3,3.1,4.9,3.8,7.7c0.4,1.3,0.6,2.7,0.7,4.1c0.2,3.5-0.4,7-1.8,10.1
	c-1.2,2.6-2.8,5-4.9,6.9c-0.5,0.5-1.1,1-1.7,1.4c-0.7,0.5-1.5,1.1-2.2,1.5c-0.8,0.5-1.6,0.9-2.4,1.2c-1,0.5-2.1,0.8-3.3,1.1
	c-1.7,0.4-3.4,0.6-5.1,0.7c-0.1,0-0.2,0-0.3,0c-0.7,0-1.4,0-2.1-0.1c-0.6-0.1-1.2-0.1-1.8-0.3c-1.8-0.3-3.6-0.9-5.3-1.7
	c-3.1-1.5-5.8-3.6-7.9-6.4l-35.4-46l-1.9-2.4L270.6,307.2z M229.5,192.8l-8.3,10.8c-0.3,0.4-0.6,0.7-1,1.2c-4.1,4.6-10,7.3-16.2,7.3
	c-4.8,0-9.4-1.5-13.2-4.5c-1.1-0.9-2.2-1.9-3.1-2.9l-0.1-0.1l-0.1-0.1l-27.8-36.1c-3.5-4.6-5.1-10.3-4.3-16
	c0.7-5.7,3.7-10.8,8.2-14.4c3.7-2.9,8.2-4.4,12.9-4.5c0.1,0,0.2,0,0.3,0c4.2,0,8.2,1.2,11.7,3.4c2.1,1.3,3.9,3,5.5,5l35.4,46
	l1.9,2.4L229.5,192.8z"/>
</svg>
