<?xml version="1.0" encoding="utf-8"?>
<!-- Generator: Adobe Illustrator 22.0.1, SVG Export Plug-In . SVG Version: 6.00 Build 0)  -->
<svg version="1.1" id="Laag_1" xmlns="http://www.w3.org/2000/svg" xmlns:xlink="http://www.w3.org/1999/xlink" x="0px" y="0px"
	 viewBox="0 0 500 500" style="enable-background:new 0 0 500 500;" xml:space="preserve">
<style type="text/css">
	.st0{fill:#FCE644;}
	.st1{fill:#222221;}
</style>
<circle class="st0" cx="250" cy="250" r="186"/>
<path class="st1" d="M347.7,326l-26.3-34.2l-1.6-2.1c-1.5-1.7-3.1-3.3-4.9-4.7c-5.1-3.9-11.1-6.1-17.5-6.4c-1.5-0.1-3.1,0-4.7,0.1
	c-8.5,0.9-16.1,5.1-21.3,11.9l-14.5,19l0,0L221.2,356c-5.9,7.7-17,9.2-24.7,3.2c-7.2-5.5-9-15.8-4.2-23.3l43.6-56.5l0.6-1l4.7-6.1
	l0.1,0.1l76-98.6c0.5-0.6,0.9-1.2,1.3-1.8c4.1-6.2,5.8-13.7,4.9-21.1c-0.1-0.6-0.2-1.2-0.3-1.9l0,0l-0.1-0.7l-0.7-3.1l-0.1,0.2
	c-1.9-6-5.6-11.3-10.6-15.1c-6.5-5-14.7-7.2-22.9-6.2c-8.2,1.1-15.5,5.3-20.6,11.8l-33.5,43.5l-33.3-43.2
	c-5-6.5-12.3-10.7-20.6-11.8c-1.5-0.2-3.1-0.3-4.6-0.3c-6.7,0.1-13,2.3-18.3,6.4c-6.5,5-10.7,12.3-11.8,20.6
	c-1.1,8.2,1.1,16.4,6.2,22.9l26.3,34.2l1.6,2.1c1.5,1.7,3.1,3.3,4.9,4.7c5.1,3.9,11.1,6.1,17.5,6.4c0.5,0,0.9,0,1.4,0
	c1.1,0,2.2-0.1,3.3-0.2c8.5-0.9,16.1-5.1,21.3-11.9l14.5-18.9l35.7-46.4c5.9-7.7,17-9.1,24.7-3.2c7.1,5.5,9,15.8,4.2,23.4
	l-43.5,56.4l-0.6,1l-4.7,6.1l-0.1-0.1l-76,98.7c-0.5,0.6-0.9,1.2-1.3,1.8c-4.1,6.2-5.8,13.7-4.9,21.1c0.1,0.8,0.2,1.6,0.4,2.5
	c1.5,7.2,5.6,13.6,11.4,18c5.5,4.2,12,6.4,18.8,6.4c1.4,0,2.7-0.1,4.1-0.3c8.2-1.1,15.5-5.3,20.6-11.8l33.5-43.5l33.3,43.2
	c5,6.5,12.3,10.7,20.6,11.8c1.4,0.2,2.7,0.3,4.1,0.3c0.2,0,0.3,0,0.5,0c6.7-0.1,13-2.3,18.3-6.4c6.5-5,10.7-12.3,11.8-20.6
	C354.9,340.6,352.7,332.5,347.7,326z M282,298.8c0.2-0.3,0.5-0.6,0.8-0.9c1.1-1.3,2.4-2.4,3.8-3.2c0.9-0.6,1.9-1.1,2.9-1.5
	c0.5-0.2,1-0.4,1.5-0.5c1-0.3,2.1-0.5,3.2-0.6c0.5-0.1,1.1-0.1,1.6-0.1c0.5,0,1.1,0,1.6,0.1c3.4,0.3,6.5,1.5,9.2,3.6
	c0.9,0.7,1.8,1.6,2.5,2.4l27.8,36.1c1.5,1.9,2.5,4,3.1,6.3c0.3,1.1,0.5,2.2,0.5,3.4c0.2,2.8-0.3,5.7-1.5,8.3c-0.9,2.1-2.3,4-4,5.6
	c-0.4,0.4-0.9,0.8-1.4,1.2c-0.6,0.4-1.2,0.9-1.8,1.2c-0.6,0.4-1.3,0.7-1.9,1c-0.9,0.4-1.8,0.7-2.7,0.9c-1.3,0.3-2.7,0.5-4.1,0.5
	c-0.7,0-1.3,0-2-0.1c-0.5-0.1-1-0.1-1.5-0.2c-1.5-0.3-2.9-0.7-4.3-1.4c-2.5-1.2-4.7-2.9-6.4-5.2l-35.4-46L282,298.8z M218,201.2
	c-0.3,0.3-0.5,0.6-0.8,0.9c-6.1,6.9-16.6,7.9-24,2.3c-0.9-0.7-1.8-1.6-2.5-2.4l-27.8-36.1c-5.9-7.7-4.5-18.8,3.2-24.7
	c3-2.3,6.7-3.6,10.5-3.7c0.1,0,0.2,0,0.3,0c3.5,0,6.7,1,9.5,2.8c1.7,1.1,3.2,2.5,4.4,4.1l35.4,46L218,201.2z"/>
</svg>
