<?xml version="1.0" encoding="utf-8"?>
<!-- Generator: Adobe Illustrator 22.1.0, SVG Export Plug-In . SVG Version: 6.00 Build 0)  -->
<svg version="1.1" id="Laag_1" xmlns="http://www.w3.org/2000/svg" xmlns:xlink="http://www.w3.org/1999/xlink" x="0px" y="0px"
	 viewBox="0 0 750 750" style="enable-background:new 0 0 750 750;" xml:space="preserve">
<style type="text/css">
	.st0{fill:#E22028;}
	.st1{fill:#030303;}
	.st2{fill:#040404;}
	.st3{fill:#212424;}
	.st4{fill:#2A2D2D;}
	.st5{fill:#575A5A;}
	.st6{fill:#5D5F5F;}
	.st7{fill:#9E9E9E;}
	.st8{fill:#9E9F9F;}
	.st9{fill:#828282;}
	.st10{fill:#808181;}
	.st11{fill:#030404;}
	.st12{fill:#E62028;}
	.st13{fill:#E32028;}
	.st14{fill:#E72028;}
	.st15{fill:#FEFEFE;}
	.st16{fill:#FEFDFE;}
	.st17{fill:#E0121A;}
	.st18{fill:#E21F27;}
	.st19{fill:#E21D25;}
	.st20{fill:#E21E26;}
	.st21{fill:#E11921;}
	.st22{fill:#E1141D;}
	.st23{fill:#E21E25;}
	.st24{fill:#E21A22;}
	.st25{fill:#E00F18;}
	.st26{fill:#E1121B;}
	.st27{fill:#E11820;}
	.st28{fill:#E1121A;}
	.st29{fill:#E1131B;}
	.st30{fill:#E01019;}
	.st31{fill:#E10F18;}
	.st32{fill:#E21A21;}
	.st33{fill:#E11B23;}
	.st34{fill:#FEFDFD;}
	.st35{fill:#E11118;}
	.st36{fill:#DF0E17;}
	.st37{fill:#E2171F;}
	.st38{fill:#E21921;}
	.st39{fill:#E1151E;}
	.st40{fill:#E43036;}
	.st41{fill:#E00E17;}
	.st42{fill:#EF8388;}
	.st43{fill:#DF0D15;}
	.st44{fill:#E32830;}
</style>
<g>
	<g>
		<path class="st0" d="M649.3,356.9c-0.2-2.1-0.4-4.1-0.5-6.2c0-0.6-0.1-1.2-0.1-1.8c-0.2-1.6-0.4-3.2-0.6-4.8
			c0-0.4-0.1-0.7-0.1-1.1c-0.2-1.4-0.4-2.8-0.6-4.2c0-0.4-0.1-0.7-0.1-1.1c-0.2-1.2-0.4-2.4-0.6-3.6c0-0.4-0.1-0.7-0.1-1.1
			c-0.2-1.2-0.4-2.3-0.6-3.5c-1.1-5.8-2-11.6-3.4-17.3c-5.1-20.1-11.9-39.5-21-58.2c-11.8-24.2-27-45.9-45-65.7
			c-7.2-7.9-15.3-15.1-23.5-22.1c-7.7-6.6-15.5-13.1-24-18.7c-20.1-13.3-41.3-24.4-64.3-32.1c-5.4-1.8-10.9-3.1-16.3-4.7
			c-5.8-1.2-11.5-2.6-17.4-3.5c-9.9-1.6-19.9-3.3-29.9-4.3c-9.7-0.9-19.5-1.3-29.3-1.4c-18.7-0.1-37.2,2.3-55.5,6.2
			c-3.8,0.8-7.5,1.8-11.2,2.6c-0.8,0.2-1.8-0.2-2.7-0.3c-3.3,0.9-6.7,1.8-10,2.9c-20.4,6.4-40,14.9-58.1,26.3
			c-11.3,7.1-21.9,15.4-32.7,23.1c-0.4,0.3-0.9,0.6-1.3,1c-32.9,27.4-58.2,60.7-75.8,99.8c-6,13.3-11,26.9-14.3,41.1
			c-0.3,2.7-0.4,5.5-0.9,8.2c-1.9,12-4.5,23.9-5.6,36c-1.2,12.9-1.7,25.9-1.3,38.9c0.5,16.3,2.9,32.5,6.6,48.4
			c0.3,1.5,0.8,3,1.2,4.4c0.5-0.4,0.9-0.8,1.4-1.2c-0.5,0.4-0.9,0.8-1.4,1.2c0,1.5,0,3.1,0,4.6c0,0.4-0.1,0.9,0,1.3
			c5.6,20.1,13.1,39.4,23,57.7c16.3,30.1,37.2,56.4,63.2,78.8c16.6,14.3,34.7,26.5,54.2,36.5c20.1,10.3,41.2,18.1,63.3,23
			c6.5,1.5,13.1,2.3,19.7,3.5c2.9,0,5.8-0.1,8.6,0c11.5,0.6,23,1.5,34.5,1.9c12.4,0.5,24.8-0.6,37-2.5c1.1-0.2,2.3,0.4,3.4,0.6
			c1-0.1,2-0.1,2.9-0.3c11.4-2.7,22.8-5.3,34.2-8.3c20-5.3,38.5-13.9,56.4-24.1c15.2-8.7,29.7-18.4,42.7-30.1
			c8-7.2,16.2-14.3,23.4-22.2c8-8.7,15.3-18.1,22.3-27.7c12.4-16.8,22.3-35.1,30-54.5c4.7-11.6,8.4-23.7,11.8-35.7
			c2.5-9,3.9-18.4,5.8-27.6c0.2-1.2,0.4-2.4,0.6-3.6c0-0.4,0.1-0.7,0.1-1.1c0.2-1.4,0.4-2.8,0.6-4.2c0-0.4,0.1-0.7,0.1-1.1
			c0.2-1.6,0.4-3.2,0.6-4.8c0-0.6,0.1-1.2,0.1-1.8c0.2-2.1,0.4-4.1,0.5-6.2c0-1.2,0.1-2.5,0.1-3.7c0-9.5,0-18.9,0-28.4
			C649.4,359.3,649.4,358.1,649.3,356.9z M597,401.9c0.2,0.9,0.8,1.9,0.7,2.7c-0.6,3.7-1.4,7.4-2.3,11c-0.9,3.8-1.7,7.8-3.3,11.4
			c-2.8,6.5-9.6,8.6-15.8,5.2c-3.8-2.1-5.5-5.5-6-9.7c-0.4,0-0.8,0-1.2-0.1c-2.5,3.7-5.4,7-10.3,7.3c-9.1,0.7-15.5-6.3-13.9-15.7
			c1.2-7.4,3-14.6,4.5-21.9c3,0,1.5,2,1.2,3.2c-0.5,2.1-0.1,3,2.3,3.4c13,2.6,26,5.4,39,8.3c3,0.7,4-0.2,3.8-3.1
			C596.2,403.4,596.6,402.6,597,401.9z M553.8,510c-3.3,4-6.8,7.9-10.2,11.7c-0.4,0.5-1.3,0.5-2,0.7c0.2-0.6,0.3-1.4,0.7-1.9
			c2.6-3.5,2.6-3.4-0.7-6.3c-9.7-8.4-19.3-16.8-28.9-25.3c-1.7-1.5-2.7-1.7-4.1,0.2c-2.2,3.1-5.7,5.4-5.7,10.9c0.1,3.1,2.5,6,5.1,9
			c0.5,0.6,0.7,1.5,1.1,2.3c-0.8-0.3-1.7-0.4-2.3-0.9c-3.1-2.8-6.2-5.6-9.2-8.6c-0.5-0.5-0.5-2-0.1-2.5c6.4-7.5,12.9-14.8,19.4-22.2
			c0.4-0.4,1.2-0.5,1.8-0.8c-0.1,0.6,0,1.6-0.4,1.9c-3.6,2.7-1.6,4.3,0.8,6.3c9.6,8.2,19.1,16.4,28.4,24.8c2.2,1.9,3.4,2.1,5-0.3
			c0.4-0.6,1.5-0.9,2.2-1.3C554.3,508.5,554.3,509.4,553.8,510z M507.4,551.4c-1.1,6.4-6.7,10.9-13.1,11c-2.2,0-3.7,0.3-3.4,2.9
			c0,0.4-0.4,0.9-0.7,1.4c-0.4-0.3-0.9-0.5-1.2-0.9c-2.1-3.1-4.2-6.2-6.3-9.3c-0.3-0.4-0.2-1.1-0.3-1.7c0.6,0.2,1.4,0.2,1.9,0.5
			c2.7,1.5,5.1,3.5,8,4.5c4.8,1.7,9.1-0.6,11.2-5.4c-0.2,0-0.5,0-0.7,0c-0.5,0.7-1.1,1.3-1.6,1.8c-0.5,0.5-1,1-1.6,1.4
			c0.5-0.4,1-0.8,1.6-1.4c0.5-0.5,1.1-1.1,1.6-1.8c-0.2-2.7-0.4-5.3-0.7-8c0.2-0.2,0.4-0.4,0.6-0.7c-4.6-9.4-10.2-18.2-17.6-25.7
			c-4.8-4.8-10.3-4.1-14,1.2c0.2,0.2,0.4,0.4,0.5,0.7c1.1-1.6,2.5-2.5,4.1-3c-1.6,0.5-3,1.5-4.1,3c0,1.5,0,3.1,0,4.6
			c0.6,0.9,1.2,1.7,1.8,2.6c-0.6-0.9-1.2-1.7-1.8-2.6c-0.2,0-0.4,0-0.6,0c1.5,2.6,2.9,5.2,4.4,7.6c0.3,0.4,1.4,0.5,2,0.3
			c0.9-0.3,1.6-1.1,2.5-1.6c0.5-0.2,1.1-0.1,1.7-0.1c-0.2,0.5-0.2,1.3-0.6,1.5c-4.3,3-8.7,6-13.1,8.9c-0.4,0.3-1.1,0.1-1.6,0.1
			c0.3-0.6,0.4-1.3,0.8-1.7c0.9-0.8,2.2-1,1.2-3c-5.5-11.4-2.8-18.6,8.7-23.9c16.9-2.1,28.6,14,30.3,25.5
			C508,543.9,508,547.8,507.4,551.4z M477,514.6L477,514.6C477,514.6,477,514.6,477,514.6L477,514.6z M559.4,482
			c7.4,1.5,10.1,0.2,13.6-6.5c0.6-1.1,1.3-2.1,1.6-3.3c0.2-0.8-0.1-2.2-0.6-2.5c-5.3-2.8-10.6-5.5-16-8c-0.5-0.2-1.9,0.4-2.2,0.9
			c-2,3.9-1.2,6,3.2,9.4c0.5,0.4,0.8,1.1,1.1,1.6c-0.7,0-1.4,0.2-2-0.1c-5.2-2.6-10.5-5.2-15.7-7.9c-0.5-0.3-0.7-0.9-1.1-1.4
			c0.4-0.2,0.9-0.4,1.3-0.6c1.6,0.2,3.1,0.4,4.7,0.6c0.9,0,1.8,0,2.7,0c0,0,0,0,0,0c0.2,0.2,0.4,0.4,0.6,0.6
			c1.1-1.1,2.4-2.2,3.3-3.4c0.3-0.4-0.2-1.9-0.6-2.1c-5.7-3-11.5-6-17.4-8.8c-0.5-0.2-1.7,0.1-2,0.5c-1.4,2.6-2.6,5.3-3.8,8
			c0.2,0,0.4,0,0.6,0c0,1.8,0,3.5,0,5.3l0,0c-0.2,0-0.4,0-0.7,0c2.2,2.5,4.4,5,6.6,7.5c0.5,0.6,0.9,1.3,1.4,2
			c-0.8-0.1-1.8,0-2.5-0.4c-3.3-1.7-6.6-3.6-9.9-5.3c-1.6-0.8-1.9-1.5-1-3.2c4-7.6,7.8-15.3,11.7-23c0.7-1.4,1.4-2.8,2.1-4.1
			c0.2-0.3,0.8-0.4,1.3-0.6c0.1,0.5,0.4,1,0.3,1.4c-0.2,0.7-0.6,1.5-1,2.1c-1.2,1.6-1,2.6,1,3.4c3.1,1.3,6.1,3,9.2,4.5
			c0-0.3,0-0.6,0.1-0.8c-1.2-0.7-2.4-1.3-3.6-2c1.2,0.7,2.4,1.4,3.6,2c8.8,4.3,17.5,8.6,26.3,12.8c1.2,0.6,2.5,1.9,3.5-0.2
			c0.3,0.3,0.5,0.6,0.8,1c0.2-0.4,0.4-0.8,0.7-1.1c0.5-0.5,1.1-1,1.7-1.5c0,0.8,0.2,1.8-0.1,2.5c-4.2,8.4-8.5,16.7-12.6,25.1
			c-0.9,1.8-1.7,2.2-3.5,1.2c-2.4-1.3-5-2.3-7.4-3.6c-0.8-0.4-1.3-1.2-2-1.8C557.6,482,558.5,481.8,559.4,482z M533.8,217.3
			c-0.5-0.4-1.1-0.8-1.7-1.3C532.7,216.5,533.3,216.9,533.8,217.3z M441.4,209.7c22.4,0,44.9,0,67.3,0c1.1,0,2.3,0.4,3.4,0.6
			c-24.7,0-49.5,0-74.2,0c0,0,0,0,0,0C439.1,210.1,440.3,209.7,441.4,209.7z M428,287.9c0,0.5,0.1,1.1,0.1,1.6
			c3.7-11.4,7.4-22.7,11.2-34.1c-0.2,0-0.5,0-0.7,0c1.9-6.2,3.7-12.4,5.6-18.6c1.2-3.9,2.4-7.8,3.7-11.6c0.6-1.7,0.3-2.4-1.7-2.3
			c-3.2,0.1-6.4,0.1-9.6,0c-0.5,0-0.9-0.8-1.4-1.2c-0.2-0.5-0.4-0.9-0.7-1.4c0,0,0,0,0,0l0,0c0.7-1.9,1.7-3.8,2.2-5.8
			c0.6-2.8,2.1-3.7,5-3.6c23.5,0.2,46.9,0.1,70.4,0.1c0-0.2,0-0.4,0-0.6c1.5,0,3.1,0,4.6,0c0.4,0.5,0.9,0.9,1.3,1.4h0
			c-0.4-0.5-0.9-0.9-1.3-1.4c-0.9,0.2-1.9,0.5-2.8,0.7c1.4,0.2,2.7,0.4,4.1,0.6c0,0,0,0,0,0c1.2,0.4,2.5,0.8,3.7,1.2
			c12.8,3.6,20.6,11.8,23.2,24.9c1.6,7.8,1,15.6-0.3,23.3c-5.9,33-25.4,56.3-57,61.4c-0.9,0.4-1.8,0.8-2.6,1.2
			c0.3,0.2,0.5,0.5,0.8,0.6c20.6,6.2,30.7,20.1,29.4,41.3c-1.3,21.7-7.8,41.7-21.6,58.9c0.2,0.2,0.5,0.5,0.7,0.7
			c0.6-0.7,1.2-1.4,1.8-2.2c-0.6,0.7-1.2,1.4-1.8,2.2c-3.1,2.9-6.2,5.7-9.3,8.6c0-0.2,0-0.5,0-0.7c-12.4,10.2-26.8,14.4-42.7,14.3
			c-25.4-0.1-50.8,0-76.2,0c-1.3,0-2.6,0.2-3.9,0.3c7.3,0,14.5,0.1,21.8,0.1c21.6,0,43.2,0,64.8,0c1,0,2.1,0.4,3.1,0.6l0,0
			c-1.8,0-3.5,0-5.3,0c-0.3,0.1-0.6,0.1-0.9,0.2c0.3-0.1,0.6-0.1,0.9-0.2c-28.3,0-56.6,0-84.8,0c0-0.3,0.1-0.6,0.1-0.9
			c1.1-3.6,2.2-7.2,3.3-10.9c0-0.3,0-0.6-0.1-0.9c-0.4,0.4-0.8,0.8-1.1,1.2c0.3-0.4,0.7-0.8,1.1-1.2l0,0c1.6,0,3.3,0.1,4.9,0
			c3.2-0.2,6.4-0.4,9.6-0.6c0.2-0.4,0.5-0.9,0.7-1.3l0,0c0,0.7,0,1.4,0,2c4.4-13.5,8.8-27,13.2-40.5c-0.2,0-0.4,0-0.7,0
			c-0.1,0.1-0.2,0.3-0.3,0.4c0.1-0.1,0.2-0.3,0.3-0.4c0.7-2.5,1.2-5.1,2-7.6c3.2-9.7,6.6-19.3,9.9-28.9c0,0.6,0.1,1.1,0.1,1.7
			c3.5-10.7,7-21.4,10.5-32.2c-0.2,0-0.5,0-0.7,0c1.1-4,2.2-8,3.4-11.9c3-9.1,6-18.1,9.1-27.1C427.4,288.8,427.7,288.4,428,287.9z
			 M363.1,438.3c-0.2,0.5-0.4,0.9-0.6,1.4C362.7,439.3,362.9,438.8,363.1,438.3z M423.9,157L423.9,157c-0.4-0.3-0.7-0.6-1-0.9
			C423.2,156.3,423.6,156.7,423.9,157z M389.8,194.1c1.4-11.7,3.2-23.3,5.2-34.9c0.5-2.6-0.3-3.2-2.4-3.6c-0.6-0.1-1.1-0.6-1.7-0.8
			c1,0,1.9,0,2.9-0.1c-0.8-0.5-1.6-1-2.4-1.6c1-0.2,1.9-0.5,2.9-0.4c9.9,1.4,19.9,2.9,29.8,4.3c0,0.3,0.1,0.7,0.1,1
			c0.4-0.1,0.9-0.1,1.3-0.2c-0.4,0.1-0.9,0.1-1.3,0.2c-0.5,3.9-1,7.9-1.4,11.8c-0.6-0.3-1.6-0.5-1.9-1c-0.4-0.9-0.4-2-0.6-3
			c-0.1,1.2-0.2,2.3-0.2,3.5c-0.7-4.1-1.3-8.1-5.2-10.6c0.5,0,0.9,0,1.4,0c-3.5-0.8-7-1.7-10.5-2.4c-0.3-0.1-1.3,1-1.4,1.7
			c-0.9,5.8-1.8,11.5-2.5,17.3c-0.1,0.6,0.9,1.9,1.5,2c3.9,0.7,6.2-0.8,7.6-4.6c0.4-1.1,1.2-2.2,1.8-3.3c0.3,0.4,0.5,0.8,0.8,1.3h0
			c-0.5,2.8-0.9,5.6-1.4,8.4c-0.7,3.8-1.6,7.6-2.4,11.4c0,0.2,0,0.5-0.1,0.7c0-0.2,0-0.5,0.1-0.7c-0.5-2.3-0.9-4.5-1.4-6.8
			c0,1.1-0.1,2.2-0.1,3.3c0-1.1,0.1-2.2,0.1-3.3c-1-1.2-1.7-2.9-3-3.6c-3.2-1.8-4-1.2-4.6,2.4c-0.7,5-1.3,10.1-2.3,15
			c-0.6,3.2-0.1,4.8,3.5,4.6c1.5-0.1,3.1,0.4,4.6,0.6c4.2,0.7,7.4-1,9.3-4.7c1.1-2,1.7-4.3,2.7-6.4c0.2-0.5,0.8-0.7,1.3-1.1
			c0.2,0.5,0.6,1.1,0.5,1.6c-0.6,3.9-1.5,7.8-2,11.7c-0.3,2-0.9,2.4-2.9,2.1c-10-1.5-20.1-2.8-30.1-4.2c-1.1-2-1.1-2,2.4-1.9
			c-0.9-0.3-1.7-0.7-3.6-1.4C388.3,199,389.3,197.6,389.8,194.1z M356.3,154c0.3-0.4,0.7-0.8,1-1.2l0,0c3.6-0.4,7.2-0.8,10.9-1
			c0.6,0,1.2,0.5,1.8,0.8c-0.5,0.3-0.9,0.7-1.5,0.9c-0.4,0.2-0.9,0.3-1.3,0.2c-2.5-0.2-3.1,1-2.7,3.4c0.9,6,1.6,12,2.3,18.1
			c1,8.3,2,16.7,2.9,25c0.1,0.7-0.3,1.5-0.5,2.3c-0.7-0.4-1.4-0.8-2-1.3c-0.6-0.5-0.9-1.2-1.4-1.9c-8.2-11.6-16.4-23.2-24.6-34.9
			c0,0.3,0,0.6-0.1,0.8c-2.3-0.6-1.3,1.3-1.3,2c0.3,3.7,0.8,7.4,1.3,11c0.8,6.5,1.8,12.9,2.4,19.4c0.2,2.7,1.1,3.8,3.7,3.4
			c0.5-0.1,1.2,0.4,1.8,0.6c-0.9,0.2-1.8,0.4-2.6,0.6c0.8,0.4,1.5,0.7,2.3,1.1c-0.7,0.3-1.4,0.8-2.2,0.9c-3.3,0.5-6.7,1-10,1.4
			c0,0.1,0,0.1,0,0.2c0-0.1,0-0.1,0-0.2c-0.4-0.4-0.8-0.7-1.3-1.1c0.4-0.3,0.8-0.8,1.3-0.9c0.9-0.3,1.8-0.4,2.8-0.6
			c2.5,0.2,1.3-1.5,1.2-2.4c-1.5-12.9-3.2-25.8-4.5-38.8c-0.3-3.2-0.9-5-4.6-4c-0.5,0.2-1.3-0.4-1.9-0.6c0.7-0.4,1.3-1.1,2-1.2
			c3.5-0.5,7-0.8,10.5-1.4c1.9-0.3,3,0.3,4.1,1.9c5.8,8.3,11.7,16.6,17.6,24.8c0.5,0.7,1.1,1.4,2.2,2.8c-1.2-10-2.4-19.1-3.4-28.2
			c-0.3-2.3-1.5-1.6-2.8-1.4c-1.1,0.2-2.2,0.4-3.3,0.5c0,0,0,0,0,0c0.2,0.1,0.4,0.3,0.6,0.4c-0.2-0.1-0.4-0.3-0.6-0.4
			c-0.4-0.7-0.8-1.3-1.2-2c0.4,0.7,0.8,1.3,1.2,1.9c0,0,0,0,0,0c0-0.2,0-0.5,0-0.7C356.5,154.4,356.4,154.2,356.3,154z M336.7,206.9
			c0-0.1,0-0.2-0.1-0.3C336.6,206.7,336.7,206.8,336.7,206.9z M275.3,176c3.4-1.3,6.9-4,10-3.6c3.1,0.5,5.8,4,8.7,6.3
			c5.8,4.7,11.6,9.5,17.4,14.2c0.2,0.2,0.6,0.2,1.7,0.4c-0.9-2.4-1.5-4.4-2.3-6.4c-2.4-5.8-5-11.5-7.3-17.4
			c-0.9-2.4-1.9-3.1-4.2-1.7c-0.7,0.4-1.7,0.2-2.6,0.3c0.7-0.7,1.2-1.6,2-2c2.8-1.3,5.7-2.5,8.5-3.6c0.5-0.2,1.3,0.1,1.9,0.2
			c-0.3,0.5-0.5,1.1-1,1.4c-3.9,2.4-3.9,2.4-2.1,6.8c5.1,12,10.1,24,15.2,36c0.5,1.3,0.7,2.8,1,4.2c-1.4-0.7-2.9-1.2-4.1-2.1
			c-12.1-9.8-24.2-19.6-36.3-29.4c-0.4-0.3-0.9-0.7-1.8-0.7c2.9,6.6,5.7,13.2,8.6,19.7c0-0.5,0-1,0.1-1.5c-1.8-4.7-3.5-9.3-5.3-14
			c1.8,4.7,3.5,9.3,5.3,14c1.8,4.2,3.5,8.4,5.3,12.6c-0.3,0-0.5,0-0.8,0.1c0.8,2,1.9,4,2.5,6.1c0.8,2.5,2,3,4.2,1.7
			c0.7-0.4,1.8-0.2,2.6-0.3c-0.7,0.7-1.2,1.6-2,2c-2.7,1.3-5.4,2.4-8.2,3.5c-0.6,0.2-1.5-0.1-2.2-0.1c0.5-0.5,0.8-1.1,1.4-1.5
			c0.8-0.5,1.7-0.9,2.6-1.3c-0.5,0-1,0-1.5,0c-0.5,0.2-1.1,0.3-1.6,0.4c0.5-0.1,1.1-0.2,1.6-0.4c0.2-0.7,0.4-1.3,0.7-2c0,0,0,0,0,0
			c0.2-0.2,0.4-0.4,0.6-0.7c-5.3-12.7-10.6-25.4-15.9-38.2c-1.1-2.6-2.4-0.7-3.6-0.5c-0.9,0.1-1.9,0.1-2.9,0.2
			c0.7-0.6,1.4-1.3,2.2-1.9C274.2,176.3,274.8,176.2,275.3,176z M226.8,209.4c7.3-5.8,14.8-11.6,22.1-17.4c1.4-1.1,2.2-1.4,3.3,0.2
			c1.9,2.6,4.1,4.9,6.1,7.4c0.3,0.4,0.3,1.1,0.4,1.7c-0.6-0.1-1.2,0-1.7-0.3c-1-0.6-1.9-1.5-3-2.1c-4.3-2.7-7.2-2.6-11.3,0.4
			c-6.2,4.5-6.2,4.5-1.6,10.4c2.5,3.2,5.1,6.3,7.7,9.5c0-0.3,0-0.5,0.1-0.8c-1.5-2-2.9-3.9-4.4-5.9c1.5,2,2.9,3.9,4.4,5.9
			c0.7,0.2,1.3,0.4,2,0.7c0,0.2,0,0.4,0,0.7c0.9-1.1,1.8-2.2,2.6-3.3c-0.2,0-0.4,0-0.7,0c0-1.3,0-2.7,0-4c0.2,0,0.4,0,0.7,0
			c-0.4-1-0.9-2-1.3-3c-0.2-0.6-0.1-1.3-0.2-1.9c0.5,0.3,1.2,0.4,1.5,0.8c3.6,4.6,7.3,9.2,10.8,13.8c0.3,0.4,0.2,1.2,0.3,1.9
			c-0.5-0.2-1.1-0.4-1.6-0.7c-1.6-1.1-3.1-3.1-4.8-3.3c-2-0.3-4.3,0.9-6.3,1.6c-0.2,0.1-0.2,1.6,0.2,2.1c3.9,5.1,7.9,10.1,11.9,15.1
			c0.4,0.5,1.5,0.9,1.7,0.7c3-2.8,6-5.7,8.9-8.5c-0.2-0.2-0.4-0.4-0.6-0.7c-0.6,0.6-1.2,1.2-1.8,1.8c0.6-0.6,1.2-1.2,1.8-1.8
			c0-1.8,0-3.5,0-5.3c0.2,0,0.4,0,0.7,0c-0.9-2.1-1.8-4.2-2.6-6.4c-0.2-0.6-0.1-1.3-0.1-2c0.6,0.3,1.3,0.5,1.7,1
			c2.5,3.2,4.8,6.6,7.3,9.8c1.1,1.4,0.6,2-0.5,2.8c-7.8,6.1-15.6,12.3-23.5,18.4c-0.5,0.4-1.5,0.3-2.2,0.5c0.3-0.6,0.5-1.5,1-1.8
			c3.2-1.7,2.7-3.3,0.6-5.9c-8.1-9.9-16-20-23.8-30.2c-1.7-2.2-2.8-2.5-4.8-0.5c-0.6,0.6-1.7,0.6-2.6,0.9
			C225.9,210.8,226.2,209.9,226.8,209.4z M199.7,239.4c3.3-4,6.5-8,9.9-12c0.4-0.5,1.3-0.5,2-0.8c-0.2,0.7-0.2,1.6-0.7,1.9
			c-3,2.5-1.6,4,0.8,5.9c10.1,8.1,20,16.3,29.9,24.6c2,1.7,3,1.6,4.2-0.5c0.3-0.6,0.8-1.1,1.3-1.5c0.3-0.2,1-0.1,1.4,0.1
			c0.1,0,0.2,0.9,0,1.1c-3.7,4.5-7.4,9-11.2,13.5c-0.2,0.2-0.9,0-1.4,0c0.1-0.5,0-1,0.2-1.4c0.8-1.3,2.7-2.9,2.3-3.6
			c-0.7-1.5-2.4-2.4-3.8-3.5c-9.6-7.9-19.2-15.9-28.8-23.8c-0.7-0.6-1.4-1.1-2.2-1.8c-0.9,1-1.6,2.1-2.6,2.9
			c-0.5,0.5-1.4,0.5-2.1,0.8C199.3,240.6,199.3,239.8,199.7,239.4z M183.2,265.6c2.1-1.2,3.1-2.1,1.5-4.3c-0.2-0.3,0-0.8,0-1.9
			c4.3,2.2,8.2,4.2,12.2,6.3c0.3,0.2,0.6,0.9,0.5,1c-0.3,0.3-0.9,0.7-1.2,0.6c-1.3-0.2-2.6-0.9-3.9-0.8c-2.6,0.1-5.4,0-7.7,1
			c-5.6,2.3-7.1,8.5-3.6,13.4c0.6,0.8,1.2,1.6,2,2.2c8.8,6.6,18.4,11.6,29,14.7c2,0,3.9,0,5.9,0c5.5-2,7.9-7.6,5.1-12.8
			c-1.5-2.6-3.8-4.8-5.8-7.2c-0.4-0.5-0.6-1.2-0.9-1.8c0.7,0,1.4-0.2,2,0.1c3.4,1.7,6.7,3.4,10,5.1c0.6,0.3,1.1,0.9,1.6,1.4
			c-0.6,0.3-1.3,0.8-1.9,0.9c-2.1,0.1-2.3,0.9-2.1,2.9c0.9,7.8-3.2,13.4-11.1,15.7c-15.4,4.3-34-6.5-37.5-21.9
			C175.8,274.5,178.3,268.3,183.2,265.6z M157.5,334.9c0.2-0.8,1.8-1.4,2.8-1.7c9.7-3,19.4-5.8,29.2-8.7c0.7-0.2,1.4-0.5,3.1-1
			c-7.3-1.5-13.6-2.9-19.9-4.2c-1.8-0.4-3.7-0.6-5.5-1.2c-3-0.9-5-0.7-5.1,3.1c0,0.5-0.9,0.9-1.3,1.4c-0.2-0.7-0.4-1.3-0.6-2
			c-0.3,0.6-0.7,1.3-1,1.9c-0.2,0-0.4-0.1-0.6-0.1c1-4.3,2-8.5,2.9-12.8c0.3,0.2,0.5,0.5,0.8,0.7c0.4-0.3,0.8-0.6,1.3-0.9
			c0.2,0.5,0.7,1,0.7,1.6c-0.1,4.7-0.1,4.6,4.5,5.6c13.2,2.7,26.4,5.5,39.5,8.3c1,0.2,1.8,0.8,2.8,1.3c-0.9,0.6-1.8,1.5-2.8,1.8
			c-15,4.4-30.1,8.8-45.1,13.2c-0.8,0.2-1.7,0.5-3.4,1.1c7,1.5,13.2,2.8,19.3,4.1c6.9,1.4,13.9,2.7,20.7,4.4
			c2.6,0.6,3.7,0.2,3.9-2.5c0.1-0.8,1-1.6,1.5-2.3c0.1,0.9,0.4,1.7,0.3,2.6c-0.5,3-1.2,6.1-1.9,9.1c-0.1,0.6-0.8,1.1-1.2,1.6
			c-0.2-0.6-0.8-1.4-0.6-1.8c1.8-3.9-0.6-4.4-3.6-5c-12.7-2.5-25.3-5.2-37.9-7.9c-2.2-0.5-3.1-0.1-3.2,2.1c0,0.7-0.2,1.3-0.5,1.9
			c-0.2,0.4-0.7,0.6-1.1,0.9c-0.2-0.4-0.7-0.9-0.7-1.2C155.5,343.5,156.3,339.1,157.5,334.9z M153,387.8c0.8-0.6,1.6-1.4,2.5-1.7
			c14.1-4.9,28.1-9.7,42.2-14.6c1-0.3,1.9-0.9,2.9-1.3c0-1.3,0-2.7,0-4c1.2-1,2-0.9,2.1,0.9c0.3,5.3,0.7,10.6,1,15.9
			c0,0.5-0.5,1-0.8,1.5c-0.4-0.4-0.9-0.8-1-1.3c-0.2-0.7-0.2-1.5-0.2-2.3c0.1-2-0.6-2.6-2.6-1.7c-1.8,0.8-3.7,1.3-5.6,1.9
			c-5.1,1.8-5.1,1.8-4.6,7.3c0.7,7.2,0.7,7.2,7.6,8.7c0.8,0.2,1.6,0.2,2.3,0.5c3.2,1.3,4.4,0.4,3.8-3.1c-0.1-0.7,0.5-1.5,0.7-2.2
			c0.4,0.7,1,1.3,1.1,2c0.3,3,0.4,5.9,0.5,8.9c0,0.6-0.6,1.1-0.9,1.7c-0.3-0.5-0.9-1-0.8-1.5c0.4-3.3-1.7-3.6-4.1-4.2
			c-14.4-3.2-28.8-6.5-43.2-9.8C154.8,389.2,153.9,388.3,153,387.8z M221.1,479.8c0.1,0.1,0.2,0.1,0.2,0.2
			C221.3,479.9,221.2,479.9,221.1,479.8z M245,427.2c0-0.3,0-0.6-0.1-0.8c-12.5,14.6-25.1,29.2-37.6,43.9c-1,1.1-1.4,2.7-2,4.1
			c0.2,0.4,0.4,0.9,0.6,1.3c0.2-0.3,0.3-0.5,0.4-0.8c-0.1,0.3-0.3,0.6-0.4,0.8c0,0.7,0,1.3,0,2c-0.2,0.2-0.4,0.4-0.7,0.7
			c1,0.5,2,1.3,3,1.4c4.1,0.1,8.1,0,12.2,0c0,0.1,0.1,0.1,0.2,0.1c0.1,0,0.1,0,0.2-0.1h0c-1.9,3.5-3.8,6.9-5.7,10.4
			c0,0.3,0,0.5,0,0.8c-15,0-30.1,0-45.1,0c0-0.3,0-0.5,0-0.8c1.7-3.3,3.5-6.6,5.3-9.8c0.2-0.4,0.9-0.6,1.4-0.7
			c7.9-0.7,13.9-5.1,19.1-10.4c11.8-12.3,23.6-24.5,34.7-37.4C279.8,374,328.9,316,378,258.2c0.4-0.4,0.7-0.9,1-1.3
			c2.6,0,5.2-0.2,7.7,0c0.3,0,0.7,0.5,1,1c0.2,0.3,0.4,0.6,0.6,0.8c0.4-0.6,0.8-1.2,1.2-1.8c-0.4,0.6-0.8,1.2-1.2,1.8
			c-0.3,0.6-0.5,1.2-0.7,1.8C369,317,350.4,373.5,331.9,429.9c-4.9,15-9.7,30-14.6,45c0.2,0,0.4,0,0.7,0c0.1-0.1,0.2-0.3,0.3-0.4
			c-0.1,0.1-0.2,0.3-0.3,0.4c0,0.7,0,1.3,0,2l0,0c-1.4,1.9-0.1,1.9,1.3,2c4.9,0,9.7,0,14.6,0c-2.4,0.2-4.7,0.5-7.1,0.6
			c-3.6,0.1-7.3,0-10.9,0.1c1.8,0.2,3.6,0.5,5.4,0.5c4.1,0.1,8.2,0,12.8,0c-1.7,3-3.2,5.3-4.4,7.7c-1,1.9-2.2,2.5-4.4,2.5
			c-23.4-0.1-46.8-0.1-70.2-0.2c-1.5,0-3,0-5.2,0c2.4-3.8,4.4-7.2,6.5-10.5c-0.3,0-0.5-0.1-0.8-0.1c0,0,0,0,0,0
			c0.2-0.2,0.4-0.4,0.6-0.6c1.4-0.1,2.8-0.2,4.2-0.4c-1.4,0.1-2.8,0.2-4.2,0.4c3,0,5.9,0.1,8.9,0c2.6-0.1,5.1-0.4,7.7-0.6l0,0
			c0.2,0.4,0.4,0.9,0.7,1.3c0.8-1.9,1.7-3.7,2.3-5.7c4.8-14,9.5-28,14.3-42c-0.2,0-0.5,0-0.7,0c-0.5,1.4-1.1,2.7-1.7,4.1
			c0.6-1.4,1.1-2.7,1.7-4.1c0-0.3,0-0.7,0.1-1c1.2-5,1.2-5-3.8-5c-12,0-24.1,0-36.1,0.1C248.1,425.9,246.6,426.7,245,427.2
			L245,427.2z M249.7,490.8c26.3,0,52.6,0,78.9,0c-1.1,0.2-2.3,0.6-3.4,0.6c-24,0-48,0-72,0C252,491.4,250.8,491,249.7,490.8z
			 M280.9,562.5c0.4-0.3,0.8-0.5,1.2-0.8c0.1,0,0.2,0,0.2,0c0.3,0,0.5,0.1,0.8,0.1c-0.3,0-0.5-0.1-0.8-0.1c-0.1,0-0.2,0-0.2,0
			c0.2,0.8,0.6,1.6,0.5,2.4c-1,8.6,0,10.5,8,13.9c0.8,0.3,1.7,0.6,2.4,1c1.5,0.9,2.3,0.5,2.9-1.1c1.8-4.6,3.8-9.1,5.7-13.7
			c0.5-1.3,0.7-2.8,1-4.2c-2.2-0.2-4.5-0.8-6.7-0.4c-1.2,0.2-2.2,2-3.2,3.1c-0.7,0.7-1.4,1.5-2.1,2.3c-0.2-0.4-0.4-0.9-0.7-1.3
			c0.4-0.9,0.9-1.7,1.3-2.6c2-4.6,3.9-9.3,5.9-14c0.3-0.6,0.9-1,1.4-1.5c0.1,0.6,0.4,1.3,0.3,1.9c-0.1,1-0.4,1.9-0.7,2.9
			c-0.7,3.3,0.6,5.5,3.5,7.1c1.5,0.8,2.4,0.9,3.1-1c1.5-4.1,3.3-8.1,5-12.2c3-7.3,3-7.3-4.7-9.8c0,0.2,0,0.4,0,0.6
			c-2-0.2-4-0.4-6-0.7c-0.2-0.2-0.4-0.4-0.7-0.6c-2.6,2.5-5.1,4.9-7.7,7.3c-0.6,0.6-1.4,1-2.1,1.6c0.1-0.9,0-1.8,0.4-2.6
			c1.5-3.7,3.2-7.3,4.8-10.9c0.2-0.4,0.5-0.8,0.7-1.2c0.1-0.1,0.2-0.2,0.4-0.3c-0.1,0.1-0.2,0.2-0.4,0.3c9.7,4,19.3,7.9,29,12
			c0.8,0.3,1.3,1.3,2,2c-0.9-0.1-2,0.1-2.6-0.3c-2.7-1.7-3.6-0.5-4.6,2c-4.9,12-9.9,24-15.1,35.9c-1.1,2.4-0.9,3.8,1.8,4.5
			c1.2,0.3,2.7,0.6,1.9,2.5c-0.9-0.3-1.8-0.5-2.7-0.9c-8.9-3.6-17.8-7.3-26.7-10.9c-0.3-0.6-0.6-1.2-0.9-1.9
			C278.2,569.5,279.5,566,280.9,562.5z M327.7,593.7c-0.1-0.3-0.2-0.7-0.3-1C327.5,593,327.6,593.4,327.7,593.7z M327.7,593.7
			c0,0,0,0.1,0.1,0.1C327.8,593.8,327.8,593.7,327.7,593.7z M327.8,593.8C327.8,593.9,327.9,593.9,327.8,593.8
			C327.9,593.9,327.8,593.9,327.8,593.8z M327.9,593.9C327.9,594,328,594,327.9,593.9C328,594,327.9,594,327.9,593.9z M368.2,597.9
			c-5.4-0.6-10.9-1.2-16.3-1.9c-0.9-0.8-3.3,0.2-2.8-2.3c0.9,0.1,1.8,0,2.6,0.3c2.7,0.8,3.7-0.3,3.9-3c0.2-3.1,0.7-6.1,1.1-9.2
			c1-8.3,2.2-16.6,2.8-24.9c0.4-5.8-2.2-8.9-7.2-9.8c-5.5-1-9.2,1-11.2,6.3c-0.7,1.7-1.1,3.6-1.4,5.4c-1.3,9.5-2.5,19-3.8,28.5
			c-0.6,4.7-0.6,4.7,4.3,4.9c0.3,0.6,0.5,1.3,0.8,1.9c-4.6-0.5-9.1-1-13.7-1.5c0-0.3-0.1-0.6-0.1-0.9c0.6-0.3,1.3-0.6,1.9-0.9
			c4.3,1,4.3,1,4.8-3.1c0.6-4.8,1.2-9.6,1.9-14.4c0.8-6,1.5-12,2.7-18c0.8-4.5,3.1-8.3,7.8-9.9c7.3-2.5,15.8,0.5,19.9,7.1
			c0-0.5,0-1,0.1-1.5c3.2,4,2.2,8.7,1.8,13c-0.9,9.1-2.4,18.1-3.8,27.2c-0.5,3.4,2.1,3.2,4.7,4.1c-1.4,0.1-2.1,0.2-2.9,0.3
			C367.1,596.2,369.1,595.8,368.2,597.9z M390.2,585.6c-1.1-3.1-2.2-6.2-3.3-9.3c-2.3-7.6-1.9-14.9,2-21.9c0,0.5,0,1,0,1.4
			c2.6-3.2,5.2-6.4,7.7-9.6c0.3-0.4,0.7-0.8,0.8-1.3c0.7-3.4-2.4-9.1-5.7-10.6c-2-0.2-4-0.4-6-0.4c-2.3-0.1-1.9-0.9-0.6-2
			c-0.5-0.1-0.7-0.3-0.9-0.4c0.2,0.1,0.5,0.2,0.9,0.4c1.8-0.2,3.5-0.5,5.3-0.6c6.1-0.6,11.2,1,14.2,6.8c0.3-0.3,0.5-0.6,0.8-0.9
			c0,5,3.8,7,7.3,9.3c-0.3,0-0.6,0.1-0.9,0.1c0.8,0.6,1.5,1.3,2.3,1.9c10.9,9.3,13.6,28.5,5.6,40.2c-5.8,8.5-14.7,9.8-22.4,3.2
			c-2.4-2-4.2-4.8-6.3-7.2C390.7,585,390.5,585.3,390.2,585.6c0.2,0.3,0.5,0.6,0.7,0.9C390.7,586.2,390.4,585.9,390.2,585.6z
			 M466.4,578.6C466.4,578.6,466.4,578.6,466.4,578.6c-5.1,2-10.2,4-15.4,5.9c-0.9,0.3-2,0.3-3,0.4c0.5-0.6,0.9-1.3,1.4-1.9
			c4-1.2,4-1.2,2.5-4.9c-4.5-11.4-9-22.8-13.3-34.2c-1.2-3.1-1.9-6.4-6.3-3.4c-0.3,0.2-1-0.3-1.5-0.5c0.3-0.4,0.5-1,0.9-1.2
			c5.2-2.1,10.4-4.2,15.7-6.1c1.7-0.6,1.9,0.4,1.1,1.8c0.3,0,0.6,0.1,0.8,0.1c0,0,0,0,0,0c-0.1,0.1-0.1,0.3-0.2,0.3
			c-4.6,1.4-3.1,4.2-1.9,7.2c2.6,6.3,5.1,12.6,7.6,18.9c0.5,1.3,0.7,2.7,1.1,4.1c-0.3,0-0.6,0-0.8,0.1c1.4,3.7,2.9,7.3,4.2,11
			c0.8,2.2,1.6,3,3.9,1.7c0.9-0.5,2.6-2.1,3.4,0.5C466.3,578.4,466.3,578.5,466.4,578.6z M449.6,533.3c-0.1,0.2-0.2,0.5-0.2,0.8
			C449.4,533.8,449.5,533.5,449.6,533.3z"/>
		<path class="st0" d="M547.3,464.3c-1.6-0.2-3.1-0.4-4.7-0.6c1.1,0.4,2.2,0.8,3.3,1.2C546.4,464.6,546.9,464.5,547.3,464.3z"/>
		<path class="st0" d="M420.1,435.8c7.3-0.5,14.7-0.9,22-1.2c0.8,0,1.6,0.3,2.4,0.5c5.4-1,9.7-3.8,12.7-8.2
			c2.3-3.3,4.5-6.9,5.8-10.7c5.8-16.8,11.4-33.6,16.6-50.5c1.9-6.1,3-12.4,3.7-18.8c1.2-10.6-4.2-16.9-14.3-17.1
			c-4.5,0.2-8.9,0.3-13.4,0.6c-1.7,0.1-3.4,0.8-5.2,1.1c-0.1,0-0.5-0.8-0.7-1.2c-0.4,0.9-0.8,1.8-1.1,2.7c-5.4,16.7-10.7,33.3-16,50
			c-4.5,14-8.9,28.1-13.3,42.2c-0.5,2.6-0.7,5.3-1.5,7.7C417.2,435.2,417.7,435.9,420.1,435.8z"/>
		<path class="st0" d="M460.2,317.8c5.5-0.2,10.9-0.5,16.4-0.6c0.6,0,1.2,0.4,1.8,0.6c7.1-2,11.7-7.1,14.5-13.5
			c4.2-9.9,8.1-20,11.6-30.2c4.5-13,8.4-26.3,10-40.1c0.8-7.2-1.6-10.7-8.9-11.6c-5.6-0.7-11.2-0.4-16.8-0.7
			c-2.6-0.2-3.6,0.9-4.3,3.2c-5.2,16.3-10.6,32.5-15.8,48.8c-4.3,13.2-8.5,26.4-12.7,39.7c0.2,0.3,0.6,0.6,0.5,0.7
			C454.4,318.3,457.5,317.9,460.2,317.8z"/>
		<path class="st0" d="M294.1,414.2c0.9,0,2.3-1.4,2.7-2.4c3.3-9.2,6.5-18.5,9.6-27.8c5.1-15.1,10.1-30.3,15.2-45.5
			c0.2-0.6,0.1-1.3,0.1-2c-0.5,0.3-1,0.6-1.4,1c-14,16.5-28,33.1-41.9,49.6c-7.5,8.8-14.9,17.7-23,27.3
			C268.9,414.3,281.5,414.3,294.1,414.2z"/>
		<path class="st0" d="M288.5,425.2c1.2,0,2.5,0.5,3.7,0.7c-0.4-0.5-0.9-1.4-1.3-1.4c-14.4-0.1-28.8,0-43.2,0
			c1.2,0.2,2.3,0.6,3.5,0.6C263.6,425.2,276,425.1,288.5,425.2z"/>
		<path class="st0" d="M399.5,584.2c0.4,1.8,1.1,3.6,2,5.2c1.6,3.1,4.2,4,8.2,3.3c0.8-0.1,1.6,0,2.4,0.1c3.7-1.4,4.7-4.6,4.6-7.9
			c-0.2-6-0.9-12-1.7-18c-0.7-4.6-1.6-9.3-3-13.8c-0.9-3.2-2.7-6-6.6-6.6c-1.3,0-2.6,0-4,0c-1.6,0.9-3.2,1.7-4.8,2.6
			c0.2,0.4,0.6,0.9,0.5,1.1c-2.7,5-1.7,10.3-1,15.4C397.1,571.8,398.3,578,399.5,584.2z"/>
		<path class="st0" d="M570.1,410.5c-6.5-1.5-13.1-2.9-19.7-4.3c-0.6-0.1-1.7,0.3-2,0.8c-3.5,7.3-1.6,11.5,6.2,13.7
			c1.2,0.3,2.3,0.6,3.5,0.8c7.9,1.5,11.3-1,12.3-9C570.5,411.8,567.9,411.5,570.1,410.5z"/>
		<path class="st0" d="M592,414.9c-5.8-1.3-11.6-2.5-17.5-3.6c-0.6-0.1-1.8,0.6-2,1.2c-2.4,7.1-0.5,10.6,6.7,12.5
			c2,0.5,4.1,0.8,6.2,1.1c4.8-0.1,8.9-5.2,7.9-10.2C593.3,415.5,592.6,415,592,414.9z"/>
		<path class="st0" d="M184.2,385.8c-3.8,1.1-7.6,2.4-11.3,3.6c0.1,0.4,0.1,0.7,0.2,1.1c3.9,0.9,7.8,1.7,11.7,2.5
			c0.4,0.1,1.2-0.6,1.2-0.9c0-1.7-0.2-3.5-0.5-5.2C185.3,386.4,184.5,385.7,184.2,385.8z"/>
	</g>
	<path class="st1" d="M693.8,395.3c-0.3,0.9-0.7,1.7-0.8,2.6c-2.9,39.4-12.7,77.1-29.7,112.8c-2.7,5.6-5.8,11-8.7,16.5
		c0.3-1.2,0.3-2.5,0.8-3.5c8.8-16.8,16.3-34.2,22.1-52.3c5.3-16.7,9.4-33.6,11.6-51c1.2-9.7,1.8-19.4,2.7-29.1
		c0.3-3.9,0.6-7.9,1-11.9c0.3,0.4,0.7,0.8,1,1.3c0,1.3,0,2.7,0,4c-0.2,0.9-0.4,1.8-0.6,2.7c0,0.4,0,0.9,0,1.3c0.2,0.7,0.4,1.3,0.5,2
		C693.8,392.2,693.8,393.8,693.8,395.3z"/>
	<path class="st1" d="M654.7,222.3c10.9,19.3,19.4,39.6,25.8,60.8c6.8,22.7,11,45.9,12.6,69.5c0.1,0.8,0.5,1.5,0.7,2.3
		c0,1.3,0,2.7,0,4c-0.2,0.7-0.4,1.3-0.5,2c0,0.4,0,0.9,0,1.3c0.2,0.9,0.4,1.8,0.6,2.7c0,1.3,0,2.7,0,4c-0.3,0.6-0.7,1.3-1,1.9
		c-0.3-4.3-0.8-8.6-0.9-12.9c-0.4-13.5-2.1-26.8-4.5-40.1c-2.8-15.5-6.7-30.7-11.8-45.5c-5.5-16.1-12.4-31.6-20.2-46.6
		C654.9,224.6,654.9,223.4,654.7,222.3z"/>
	<path class="st2" d="M355.1,693c-0.6-0.3-1.3-0.7-1.9-0.7c-32.7-2.3-64.2-9.7-94.7-21.4c-0.1,0-0.1-0.2-0.2-0.3
		c1.1,0,2.3-0.3,3.2,0c8.8,2.9,17.4,6.5,26.3,8.8c12.5,3.3,25.2,6.1,37.9,8.2c11.1,1.8,22.4,2.3,33.7,3.5c3.4,0.3,6.9,0.9,10.3,1.3
		c-1.1,0.2-2.2,0.4-3.3,0.7c-1.1,0-2.2,0-3.3,0c-0.5-0.2-0.9-0.4-1.4-0.5c-0.7,0.2-1.3,0.4-2,0.5C358.2,693,356.6,693,355.1,693z"/>
	<path class="st2" d="M492.9,670.3c-14.4,4.7-28.7,9.9-43.4,13.9c-17.3,4.7-35.2,7-53.1,8.1c-0.5,0-1.1,0.4-1.6,0.7
		c-2.2,0-4.4,0-6.6,0c-1.1-0.2-2.2-0.4-3.2-0.6c-1.1,0-2.3-0.1-3.4-0.1c3.4-0.4,6.9-1.2,10.3-1.3c16.5-0.5,32.7-2.7,48.8-6
		c16.3-3.4,32.2-7.9,47.7-13.9C489.8,670.6,491.4,670.6,492.9,670.3z"/>
	<path class="st3" d="M366.3,693c1.1-0.2,2.2-0.4,3.3-0.7c0.4,0.2,0.9,0.4,1.3,0.7C369.4,693,367.9,693,366.3,693z"/>
	<path class="st4" d="M381.6,692.3c1.1,0,2.3,0.1,3.4,0.1c0,0.2-0.1,0.4-0.1,0.6c-1.3,0-2.7,0-4,0
		C381.1,692.8,381.4,692.5,381.6,692.3z"/>
	<path class="st5" d="M384.9,693c0-0.2,0-0.4,0.1-0.6c1.1,0.2,2.2,0.4,3.2,0.6C387.1,693,386,693,384.9,693z"/>
	<path class="st6" d="M693.8,364.8c-0.2-0.9-0.4-1.8-0.6-2.7c0.2,0,0.4,0,0.6,0C693.8,363.1,693.8,363.9,693.8,364.8z"/>
	<path class="st6" d="M693.2,387.4c0.2-0.9,0.4-1.8,0.6-2.7c0,0.9,0,1.8,0,2.7C693.6,387.4,693.4,387.4,693.2,387.4z"/>
	<path class="st7" d="M693.8,390.7c-0.2-0.7-0.4-1.3-0.5-2c0.2,0,0.4,0,0.5,0C693.8,389.4,693.8,390,693.8,390.7z"/>
	<path class="st7" d="M693.3,360.8c0.2-0.7,0.4-1.3,0.5-2c0,0.7,0,1.3,0,2C693.6,360.8,693.5,360.8,693.3,360.8z"/>
	<path class="st8" d="M359.7,693c0.7-0.2,1.3-0.4,2-0.5c0,0.2,0,0.4,0,0.5C361,693,360.4,693,359.7,693z"/>
	<path class="st9" d="M693.3,360.8c0.2,0,0.4,0,0.5,0c0,0.4,0,0.9,0,1.3c-0.2,0-0.4,0-0.6,0C693.3,361.7,693.3,361.3,693.3,360.8z"
		/>
	<path class="st9" d="M693.8,388.7c-0.2,0-0.4,0-0.5,0c0-0.4,0-0.9,0-1.3c0.2,0,0.4,0,0.6,0C693.8,387.8,693.8,388.3,693.8,388.7z"
		/>
	<path class="st10" d="M361.7,693c0-0.2,0-0.4,0-0.5c0.5,0.2,0.9,0.4,1.4,0.5C362.6,693,362.1,693,361.7,693z"/>
	<path class="st11" d="M58,361.3c0.1-16.8,2.5-33.4,5.7-49.8c5.2-26.1,13.7-51.2,25.4-75.2c2.3-4.7,4.9-9.4,7.3-14.1
		c-0.2,1.1-0.1,2.4-0.6,3.4C87.1,242.2,79.7,259.2,74,277c-5.5,17.1-9.8,34.4-11.9,52.2c-1.2,9.6-1.8,19.2-2.7,28.8
		c-0.3,3.4-0.6,6.7-1.4,10.1C58,365.8,58,363.6,58,361.3z"/>
	<path class="st11" d="M96.4,527.3c-11-19.7-19.5-40.4-25.9-62c-7.2-24.2-11.5-48.8-12.6-74.1c0-1,0-2,0-3c0-2.3,0-4.5,0-6.8
		c0.2,0,0.3,0,0.5,0c0.3,3.5,0.6,7,1,10.4c1.3,12.7,2.2,25.6,4.1,38.2c2.5,16.2,6.8,32,12.1,47.5c5.5,16,12.3,31.4,20.1,46.3
		C96.3,524.9,96.2,526.2,96.4,527.3z"/>
	<path class="st12" d="M110.5,304.5c-0.3,2.7-0.4,5.5-0.9,8.2c-1.9,12-4.5,23.9-5.6,36c-1.2,12.9-1.7,25.9-1.3,38.9
		c0.5,16.3,2.9,32.5,6.6,48.4c0.3,1.5,0.8,3,1.2,4.4c0,1.5,0,3.1,0,4.6c-1.6-7-3.1-14.1-4.7-21.1c-0.2-1.1-0.4-2.3-0.6-3.4
		c-0.1-0.2-0.2-0.3-0.1-0.5c-0.2-1.2-0.4-2.3-0.6-3.5c0-0.4-0.1-0.7-0.1-1.1c-0.2-1.2-0.4-2.4-0.6-3.6c0-0.4-0.1-0.7-0.1-1.1
		c-0.2-1.4-0.4-2.8-0.6-4.2c-0.6-6.7-1.8-13.4-1.7-20.1c0.1-13.7,0.8-27.3,1.2-41c0-0.9,0.3-1.7,0.5-2.6c0.2-1.4,0.4-2.8,0.6-4.2
		c0-0.4,0.1-0.7,0.1-1.1c0.2-1.2,0.4-2.4,0.6-3.6c0-0.4,0.1-0.7,0.1-1.1c0.2-1.2,0.4-2.3,0.6-3.5c-0.1-0.2-0.1-0.4,0.1-0.5
		c0.2-1.1,0.4-2.3,0.6-3.4C107.3,318.6,108.9,311.5,110.5,304.5z"/>
	<path class="st13" d="M448.7,110.9c-5.8-1.2-11.5-2.6-17.4-3.5c-9.9-1.6-19.9-3.3-29.9-4.3c-9.7-0.9-19.5-1.3-29.3-1.4
		c-18.7-0.1-37.2,2.3-55.5,6.2c-3.8,0.8-7.5,1.8-11.2,2.6c-0.8,0.2-1.8-0.2-2.7-0.3c8-1.8,16.1-3.6,24.1-5.3c2.5-0.5,5-0.9,7.5-1.4
		c1.2-0.2,2.3-0.4,3.5-0.6c0.4,0,0.8-0.1,1.2-0.1c1.4-0.2,2.8-0.4,4.1-0.6c0.6,0,1.1-0.1,1.7-0.1c1.4-0.2,2.8-0.4,4.3-0.5
		c0.6,0,1.2-0.1,1.8-0.1c2-0.2,4.1-0.4,6.1-0.5c12.4,0,24.8,0,37.2,0c2,0.2,4.1,0.4,6.1,0.5c0.6,0,1.2,0.1,1.8,0.1
		c1.4,0.2,2.8,0.4,4.2,0.5c0.6,0,1.1,0.1,1.7,0.1c1.4,0.2,2.8,0.4,4.1,0.6c0.4,0,0.8,0.1,1.2,0.1c1.2,0.2,2.3,0.4,3.5,0.6
		c6.7,1.3,13.4,2.4,20,3.9C440.9,108.3,444.8,109.7,448.7,110.9z"/>
	<g>
		<path class="st2" d="M692.8,370.7c-0.3-4.3-0.8-8.6-0.9-12.9c-0.4-13.5-2.1-26.8-4.5-40.1c-2.8-15.5-6.7-30.7-11.8-45.5
			c-5.5-16.1-12.4-31.6-20.2-46.6c-0.5-0.9-0.5-2.1-0.7-3.2c-0.8-1.7-1.5-3.4-2.4-5C615.5,154,563.3,108.2,495.8,80
			c-0.9-0.4-1.9-0.5-2.8-0.8c-3.3-1.4-6.6-3-10-4c-14.7-4.2-29.4-8.8-44.3-12.3c-16.2-3.7-32.8-5.7-49.6-5.8c-6.7,0-13.4,0-20.2,0
			c0,0,0,0,0,0c-2.3,0-4.5,0-6.8,0c-0.9,0-1.8-0.1-2.6,0c-21,0.8-41.7,3.7-62,9.3c-13.3,3.6-26.2,8.5-39.2,12.9
			c-6.7,2.8-13.5,5.3-20,8.5c-60.9,29.5-107.8,73.9-141.1,132.8c-0.3,0.6-0.6,1.2-0.9,1.8c-0.2,1.1-0.1,2.4-0.6,3.4
			C87.1,242.2,79.7,259.2,74,277c-5.5,17.1-9.8,34.4-11.9,52.2c-1.2,9.6-1.8,19.2-2.7,28.8c-0.3,3.4-0.6,6.7-1.4,10.1
			c0,6.7,0,13.4,0,20.1c0-2.3,0-4.5,0-6.8c0.2,0,0.3,0,0.5,0c0.3,3.5,0.6,7,1,10.4c1.3,12.7,2.2,25.6,4.1,38.2
			c2.5,16.2,6.8,32,12.1,47.5c5.5,16,12.3,31.4,20.1,46.3c0.5,1,0.4,2.3,0.6,3.4c13.5,25.1,30.4,47.8,50.1,68.3
			c31.9,33,69,58.1,111.7,75c1.1,0,2.3-0.3,3.2,0c8.8,2.9,17.4,6.5,26.3,8.8c12.5,3.3,25.2,6.1,37.9,8.2c11.1,1.8,22.4,2.3,33.7,3.5
			c3.4,0.3,6.9,0.9,10.3,1.3c0.4,0.2,0.9,0.4,1.3,0.7c3.3,0,6.6,0,9.9,0c0.2-0.2,0.4-0.4,0.7-0.6c3.4-0.4,6.9-1.2,10.3-1.3
			c16.5-0.5,32.7-2.7,48.8-6c16.3-3.4,32.2-7.9,47.7-13.9c1.4-0.5,3-0.5,4.6-0.8c4.3-1.7,8.6-3.2,12.8-5.1
			c63.9-29.1,113.1-74.3,147.8-135.3c0.5-0.8,0.8-1.8,1.1-2.7c0.3-1.2,0.3-2.5,0.8-3.5c8.8-16.8,16.3-34.2,22.1-52.3
			c5.3-16.7,9.4-33.6,11.6-51c1.2-9.7,1.8-19.4,2.7-29.1c0.3-3.9,0.6-7.9,1-11.9c0.3,0.4,0.7,0.8,1,1.3c0-4,0-8,0-11.9
			C693.5,369.4,693.1,370.1,692.8,370.7z M649.3,392.7c-0.2,2.1-0.4,4.1-0.5,6.2c0,0.6-0.1,1.2-0.1,1.8c-0.2,1.6-0.4,3.2-0.6,4.8
			c0,0.4-0.1,0.7-0.1,1.1c-0.2,1.4-0.4,2.8-0.6,4.2c0,0.4-0.1,0.7-0.1,1.1c-0.2,1.2-0.4,2.4-0.6,3.6c-1.9,9.2-3.3,18.6-5.8,27.6
			c-3.4,12.1-7.1,24.1-11.8,35.7c-7.8,19.3-17.6,37.7-30,54.5c-7,9.5-14.3,18.9-22.3,27.7c-7.2,7.9-15.5,14.9-23.4,22.2
			c-13,11.8-27.5,21.4-42.7,30.1c-17.9,10.2-36.4,18.9-56.4,24.1c-11.3,3-22.8,5.6-34.2,8.3c-0.9,0.2-2,0.2-2.9,0.3l-0.2,0.1
			l-0.3-0.1c-1.2,0.2-2.3,0.4-3.5,0.5c-0.4,0-0.8,0.1-1.2,0.1c-1.4,0.2-2.8,0.4-4.1,0.6c-15.6,2.3-31.2,2.5-46.9,1.7
			c-6-0.3-12.1-1.1-18.1-1.7c-1.4-0.2-2.8-0.4-4.1-0.6c-0.4,0-0.8-0.1-1.2-0.1c-1.2-0.2-2.3-0.4-3.5-0.5l-0.3,0.1l-0.2-0.1
			c-6.6-1.1-13.2-2-19.7-3.5c-22.1-5-43.2-12.7-63.3-23c-19.5-10-37.5-22.2-54.2-36.5c-26-22.3-46.9-48.7-63.2-78.8
			c-9.9-18.4-17.4-37.7-23-57.7c-0.1-0.4,0-0.9,0-1.3c-1.6-7-3.1-14.1-4.7-21.1c-0.2-1.1-0.4-2.3-0.6-3.4c-0.1-0.2-0.2-0.3-0.1-0.5
			c-0.2-1.2-0.4-2.3-0.6-3.5c0-0.4-0.1-0.7-0.1-1.1c-0.2-1.2-0.4-2.4-0.6-3.6c0-0.4-0.1-0.7-0.1-1.1c-0.2-1.4-0.4-2.8-0.6-4.2
			c-0.6-6.7-1.8-13.4-1.7-20.1c0.1-13.7,0.8-27.3,1.2-41c0-0.9,0.3-1.7,0.5-2.6c0.2-1.4,0.4-2.8,0.6-4.2c0-0.4,0.1-0.7,0.1-1.1
			c0.2-1.2,0.4-2.4,0.6-3.6c0-0.4,0.1-0.7,0.1-1.1c0.2-1.2,0.4-2.3,0.6-3.5c-0.1-0.2-0.1-0.4,0.1-0.5c0.2-1.1,0.4-2.3,0.6-3.4
			c1.6-7,3.1-14.1,4.7-21.1c3.3-14.2,8.4-27.9,14.3-41.1c17.5-39.1,42.8-72.4,75.8-99.8c0.4-0.4,0.9-0.7,1.3-1
			c10.9-7.7,21.5-16,32.7-23.1c18.1-11.4,37.7-19.9,58.1-26.3c3.3-1,6.6-1.9,10-2.9c8-1.8,16.1-3.6,24.1-5.3c2.5-0.5,5-0.9,7.5-1.4
			c1.2-0.2,2.3-0.4,3.5-0.6c0.4,0,0.8-0.1,1.2-0.1c1.4-0.2,2.8-0.4,4.1-0.6c0.6,0,1.1-0.1,1.7-0.1c1.4-0.2,2.8-0.4,4.3-0.5
			c0.6,0,1.2-0.1,1.8-0.1c2-0.2,4.1-0.4,6.1-0.5c12.4,0,24.8,0,37.2,0c2,0.2,4.1,0.4,6.1,0.5c0.6,0,1.2,0.1,1.8,0.1
			c1.4,0.2,2.8,0.4,4.2,0.5c0.6,0,1.1,0.1,1.7,0.1c1.4,0.2,2.8,0.4,4.1,0.6c0.4,0,0.8,0.1,1.2,0.1c1.2,0.2,2.3,0.4,3.5,0.6
			c6.7,1.3,13.4,2.4,20,3.9c4,0.9,7.9,2.3,11.8,3.4c5.4,1.6,11,2.9,16.3,4.7c22.9,7.6,44.2,18.7,64.3,32.1
			c8.4,5.6,16.3,12.1,24,18.7c8.1,7,16.3,14.1,23.5,22.1c18,19.8,33.3,41.5,45,65.7c9.1,18.7,15.9,38.1,21,58.2
			c1.4,5.7,2.3,11.5,3.4,17.3c0.2,1.2,0.4,2.3,0.6,3.5c0,0.4,0.1,0.7,0.1,1.1c0.2,1.2,0.4,2.4,0.6,3.6c0,0.4,0.1,0.7,0.1,1.1
			c0.2,1.4,0.4,2.8,0.6,4.2c0,0.4,0.1,0.7,0.1,1.1c0.2,1.6,0.4,3.2,0.6,4.8c0,0.6,0.1,1.2,0.1,1.8c0.2,2.1,0.4,4.1,0.5,6.2
			c0,1.2,0.1,2.5,0.1,3.7c0,9.5,0,18.9,0,28.4C649.4,390.2,649.4,391.4,649.3,392.7z"/>
		<path class="st2" d="M58,368.1C58,368.1,58,368.1,58,368.1c0-2.3,0-4.5,0-6.8C58,363.6,58,365.8,58,368.1z"/>
	</g>
	<path class="st14" d="M333.9,645.9c2.9,0,5.8-0.1,8.6,0c11.5,0.6,23,1.5,34.5,1.9c12.4,0.5,24.8-0.6,37-2.5
		c1.1-0.2,2.3,0.4,3.4,0.6c0,0-0.2,0.1-0.2,0.1s-0.3-0.1-0.3-0.1c-1.2,0.2-2.3,0.4-3.5,0.5c-0.4,0-0.8,0.1-1.2,0.1
		c-1.4,0.2-2.8,0.4-4.1,0.6c-15.6,2.3-31.2,2.5-46.9,1.7c-6-0.3-12.1-1.1-18.1-1.7c-1.4-0.2-2.8-0.4-4.1-0.6c-0.4,0-0.8-0.1-1.2-0.1
		c-1.2-0.2-2.3-0.4-3.5-0.5l-0.3,0.1C334.1,646,333.9,645.9,333.9,645.9z"/>
	<path class="st15" d="M391.8,534.4c-2-0.2-4-0.4-6-0.4c-2.3-0.1-1.9-0.9-0.6-2c1.8-0.2,3.5-0.5,5.3-0.6c6.1-0.6,11.2,1,14.2,6.8
		c0.4,4.5,2.3,7.8,7.2,8.4c0.8,0.6,1.5,1.3,2.3,1.9c10.9,9.3,13.6,28.5,5.6,40.2c-5.8,8.5-14.7,9.8-22.4,3.2c-2.4-2-4.2-4.8-6.3-7.2
		c-1.1-3-2.3-6-3.4-9.1c-1-6.7-1.1-13.3,1.4-19.8c2.6-3.2,5.2-6.4,7.7-9.6c0.3-0.4,0.7-0.8,0.8-1.3
		C398.2,541.6,395.1,535.9,391.8,534.4z M394.8,554.1c0,2.7,0,5.3,0,8c0.3,2.5,0.4,5,0.8,7.5c1,5.7,1.9,11.5,3.4,17.1
		c0.8,3.1,2.3,6.2,6.1,7c1.7,0,3.4,0,5.1,0c0.6-0.3,1.2-0.5,1.8-0.8c3.7-1.4,4.7-4.6,4.6-7.9c-0.2-6-0.9-12-1.7-18
		c-0.7-4.6-1.6-9.3-3-13.8c-0.9-3.2-2.7-6-6.6-6.6c-1.3,0-2.6,0-4,0c-1.6,0.9-3.2,1.7-4.8,2.6C396.1,550.8,395.4,552.4,394.8,554.1z
		"/>
	<path class="st15" d="M595.8,404.1c0.4-0.7,0.8-1.4,1.3-2.1c0.2,0.9,0.8,1.9,0.7,2.7c-0.6,3.7-1.4,7.4-2.3,11
		c-0.9,3.8-1.7,7.8-3.3,11.4c-2.8,6.5-9.6,8.6-15.8,5.2c-3.8-2.1-5.5-5.5-6-9.7c-0.1-0.7-0.2-1.4-0.3-2.2c-0.3,0.7-0.6,1.4-0.8,2.1
		c-2.5,3.7-5.4,7-10.3,7.3c-9.1,0.7-15.5-6.3-13.9-15.7c1.3-7.4,3-14.7,4.5-22c0,0-0.1,0.1-0.1,0.1c3.1,0,1.5,2,1.2,3.2
		c-0.5,2.1-0.1,3,2.3,3.4c13,2.6,26,5.4,39,8.3C595,407.8,596,407,595.8,404.1z M570.4,412.5c-0.1-0.7-0.2-1.4-0.3-2.1
		c-6.5-1.5-13.1-2.9-19.7-4.3c-0.6-0.1-1.7,0.3-2,0.8c-3.5,7.3-1.6,11.5,6.2,13.7c1.2,0.3,2.3,0.6,3.5,0.8
		C566.1,423.1,569.4,420.6,570.4,412.5z M585.5,426.1c4.8-0.1,8.9-5.2,7.9-10.2c-0.1-0.4-0.8-1-1.3-1.1c-5.8-1.3-11.6-2.5-17.5-3.6
		c-0.6-0.1-1.8,0.6-2,1.2c-2.4,7.1-0.5,10.6,6.7,12.5C581.3,425.5,583.4,425.8,585.5,426.1z"/>
	<path class="st15" d="M412.6,169.3c0.3,0.4,0.5,0.8,0.8,1.3c-0.5,2.8-0.9,5.6-1.4,8.4c-0.7,3.8-1.6,7.6-2.4,11.4
		c-0.5-2.3-0.9-4.5-1.4-6.8c-1-1.2-1.7-2.9-3-3.6c-3.2-1.8-4-1.2-4.6,2.4c-0.7,5-1.3,10.1-2.3,15c-0.6,3.2-0.1,4.8,3.5,4.6
		c1.5-0.1,3.1,0.4,4.6,0.6c4.2,0.7,7.4-1,9.3-4.7c1.1-2,1.7-4.3,2.7-6.4c0.2-0.5,0.8-0.7,1.3-1.1c0.2,0.5,0.6,1.1,0.5,1.6
		c-0.6,3.9-1.5,7.8-2,11.7c-0.3,2-0.9,2.4-2.9,2.1c-10-1.5-20.1-2.8-30.1-4.2c-1.1-2-1.1-2,2.4-1.9c0.9-0.3,1.8-0.6,2.7-0.9
		c0.2-1.2,0.4-2.5,0.6-3.7c0.2-0.1,0.2-0.3,0.1-0.5c0.2-1.2,0.4-2.3,0.5-3.5c0-0.4,0.1-0.7,0.1-1.1c0.2-1.2,0.4-2.4,0.6-3.6
		c0-0.3,0.1-0.7,0.1-1c0.2-1.2,0.4-2.4,0.6-3.6c0-1.1-0.1-2.2,0.1-3.2c1.1-6.6,2.1-13.2,3.5-19.7c0.6-2.7,0.1-4.1-2.7-4.3
		c-0.8-0.5-1.6-1-2.4-1.6c1-0.2,1.9-0.5,2.9-0.4c9.9,1.4,19.9,2.9,29.8,4.3c0,0.3,0.1,0.7,0.1,1c-0.5,3.9-1,7.9-1.4,11.8
		c-0.6-0.3-1.6-0.5-1.9-1c-0.4-0.9-0.4-2-0.6-3c-0.2-3-1.1-5.6-4-7.1c-3.5-0.8-7-1.7-10.5-2.4c-0.3-0.1-1.3,1-1.4,1.7
		c-0.9,5.8-1.8,11.5-2.5,17.3c-0.1,0.6,0.9,1.9,1.5,2c3.9,0.7,6.2-0.8,7.6-4.6C411.3,171.4,412,170.4,412.6,169.3z"/>
	<path class="st15" d="M541.3,464.3c0.4-0.2,0.9-0.4,1.3-0.6c1.1,0.4,2.2,0.8,3.3,1.2c1.5,0,3.1,0,4.6,0c1.1-1.1,2.4-2.2,3.3-3.4
		c0.3-0.4-0.2-1.9-0.6-2.1c-5.7-3-11.5-6-17.4-8.8c-0.5-0.2-1.7,0.1-2,0.5c-1.4,2.6-2.6,5.3-3.8,8c0,1.8,0,3.5,0,5.3
		c2.2,2.5,4.4,5,6.6,7.5c0.5,0.6,0.9,1.3,1.4,2c-0.8-0.1-1.8,0-2.5-0.4c-3.3-1.7-6.6-3.6-9.9-5.3c-1.6-0.8-1.9-1.5-1-3.2
		c4-7.6,7.8-15.3,11.7-23c0.7-1.4,1.4-2.8,2.1-4.1c0.2-0.3,0.8-0.4,1.3-0.6c0.1,0.5,0.4,1,0.3,1.4c-0.2,0.7-0.6,1.5-1,2.1
		c-1.2,1.6-1,2.6,1,3.4c3.1,1.3,6.1,3,9.2,4.5c9.3,4.7,18.6,9.4,27.8,14.3c2.1,1.1,2.3-0.4,2.9-1.5c0.2-0.4,0.4-0.8,0.7-1.1
		c0.5-0.5,1.1-1,1.7-1.5c0,0.8,0.2,1.8-0.1,2.5c-4.2,8.4-8.5,16.7-12.6,25.1c-0.9,1.8-1.7,2.2-3.5,1.2c-2.4-1.3-5-2.3-7.4-3.6
		c-0.8-0.4-1.3-1.2-2-1.8c0.9-0.1,1.8-0.3,2.7-0.1c7.4,1.5,10.1,0.2,13.6-6.5c0.6-1.1,1.3-2.1,1.6-3.3c0.2-0.8-0.1-2.2-0.6-2.5
		c-5.3-2.8-10.6-5.5-16-8c-0.5-0.2-1.9,0.4-2.2,0.9c-2,3.9-1.2,6,3.2,9.4c0.5,0.4,0.8,1.1,1.1,1.6c-0.7,0-1.4,0.2-2-0.1
		c-5.2-2.6-10.5-5.2-15.7-7.9C542,465.4,541.7,464.7,541.3,464.3z"/>
	<path class="st15" d="M280.9,562.5c0.4-0.3,0.8-0.5,1.2-0.8c0.2,0.8,0.6,1.6,0.5,2.4c-1,8.6,0,10.5,8,13.9c0.8,0.3,1.7,0.6,2.4,1
		c1.5,0.9,2.3,0.5,2.9-1.1c1.8-4.6,3.8-9.1,5.7-13.7c0.5-1.3,0.7-2.8,1-4.2c-2.2-0.2-4.5-0.8-6.7-0.4c-1.2,0.2-2.2,2-3.2,3.1
		c-0.7,0.7-1.4,1.5-2.1,2.3c-0.2-0.4-0.4-0.9-0.7-1.3c0.4-0.9,0.9-1.7,1.3-2.6c2-4.6,3.9-9.3,5.9-14c0.3-0.6,0.9-1,1.4-1.5
		c0.1,0.6,0.4,1.3,0.3,1.9c-0.1,1-0.4,1.9-0.7,2.9c-0.7,3.3,0.6,5.5,3.5,7.1c1.5,0.8,2.4,0.9,3.1-1c1.5-4.1,3.3-8.1,5-12.2
		c3-7.3,3-7.3-4.7-9.8c-2.2-0.2-4.4-0.4-6.6-0.6c-2.6,2.5-5.1,4.9-7.7,7.3c-0.6,0.6-1.4,1-2.1,1.6c0.1-0.9,0-1.8,0.4-2.6
		c1.5-3.7,3.2-7.3,4.8-10.9c0.2-0.4,0.5-0.8,0.7-1.2c9.7,4,19.3,7.9,29,12c0.8,0.3,1.3,1.3,2,2c-0.9-0.1-2,0.1-2.6-0.3
		c-2.7-1.7-3.6-0.5-4.6,2c-4.9,12-9.9,24-15.1,35.9c-1.1,2.4-0.9,3.8,1.8,4.5c1.2,0.3,2.8,0.6,1.9,2.6c0,0,0-0.1,0-0.1
		c-0.9-0.3-1.9-0.5-2.8-0.9c-8.9-3.6-17.8-7.3-26.7-10.9c-0.3-0.6-0.6-1.2-0.9-1.9C278.2,569.5,279.5,566,280.9,562.5z"/>
	<path class="st15" d="M336.5,205.8c-0.4-0.4-0.8-0.7-1.3-1.1c0.4-0.3,0.8-0.8,1.3-0.9c0.9-0.3,1.8-0.4,2.8-0.6
		c2.5,0.2,1.3-1.5,1.2-2.4c-1.5-12.9-3.2-25.8-4.5-38.8c-0.3-3.2-0.9-5-4.6-4c-0.5,0.2-1.3-0.4-1.9-0.6c0.7-0.4,1.3-1.1,2-1.2
		c3.5-0.5,7-0.8,10.5-1.4c1.9-0.3,3,0.3,4.1,1.9c5.8,8.3,11.7,16.6,17.6,24.8c0.5,0.7,1.1,1.4,2.2,2.8c-1.2-10-2.4-19.1-3.4-28.2
		c-0.3-2.3-1.5-1.6-2.8-1.4c-1.1-0.1-2.2-0.1-3.3-0.2c0-0.2,0-0.4-0.1-0.6c0.3-0.4,0.7-0.8,1-1.2c3.6-0.4,7.2-0.8,10.9-1
		c0.6,0,1.2,0.5,1.8,0.8c-0.5,0.3-0.9,0.7-1.5,0.9c-0.4,0.2-0.9,0.3-1.3,0.2c-2.5-0.2-3.1,1-2.7,3.4c0.9,6,1.6,12,2.3,18.1
		c1,8.3,2,16.7,2.9,25c0.1,0.7-0.3,1.5-0.5,2.3c-0.7-0.4-1.4-0.8-2-1.3c-0.6-0.5-0.9-1.2-1.4-1.9c-8.2-11.6-16.4-23.2-24.6-34.9
		c-1-1.5-2-2.9-2.9-4.4c-0.2,0.1-0.4,0.2-0.7,0.3c1.4,10.9,2.8,21.9,4.2,32.8c0.2,1.4,0.4,2.9,0.6,4.3c0,0.3,0,0.7,0.1,1
		c0.2,1.4,0.4,2.9,0.6,4.3c1.1-0.1,2.3-0.2,3.4-0.4c0.8,0.4,1.5,0.7,2.3,1.1c-0.7,0.3-1.4,0.8-2.2,0.9
		C343.2,204.9,339.8,205.3,336.5,205.8z"/>
	<path class="st16" d="M340.3,592.3c0.3,0.6,0.5,1.3,0.8,1.9c-4.6-0.5-9.1-1-13.7-1.5c0,0,0.1,0.1,0.1,0.1c0-0.3-0.1-0.6-0.1-1
		c0.6-0.3,1.3-0.6,1.9-0.9c4.3,1,4.3,1,4.8-3.1c0.6-4.8,1.2-9.6,1.9-14.4c0.8-6,1.5-12,2.7-18c0.8-4.5,3.1-8.3,7.8-9.9
		c7.3-2.5,15.8,0.5,19.9,7.1c0,5.6,0,11.2,0,16.8c-0.2,1.4-0.4,2.8-0.6,4.2c0,0.3-0.1,0.7-0.1,1c-0.2,1.2-0.3,2.4-0.5,3.6
		c0,0.6-0.1,1.1-0.1,1.7c-0.2,1.2-0.4,2.4-0.5,3.6c-0.3,2.1-0.5,4.3-0.8,6.4c-0.2,1.2-0.3,2.3-0.5,3.5c-0.9,3.4,1.9,1.6,3,2.1
		c0.9,0.6,3,0.2,2.1,2.3c-5.4-0.6-10.9-1.2-16.3-1.9c-0.9-0.8-3.3,0.2-2.8-2.3c0.9,0.1,1.8,0,2.6,0.3c2.7,0.8,3.7-0.3,3.9-3
		c0.2-3.1,0.7-6.1,1.1-9.2c1-8.3,2.2-16.6,2.8-24.9c0.4-5.8-2.2-8.9-7.2-9.8c-5.5-1-9.2,1-11.2,6.3c-0.7,1.7-1.1,3.6-1.4,5.4
		c-1.3,9.5-2.5,19-3.8,28.5C335.4,592.1,335.4,592.1,340.3,592.3z"/>
	<path class="st15" d="M447.9,584.9c0.5-0.6,0.9-1.3,1.4-1.9c4-1.2,4-1.2,2.5-4.9c-4.5-11.4-9-22.8-13.3-34.2
		c-1.2-3.1-1.9-6.4-6.3-3.4c-0.3,0.2-1-0.3-1.5-0.5c0.3-0.4,0.5-1,0.9-1.2c5.2-2.1,10.4-4.2,15.7-6.1c1.7-0.6,1.9,0.4,1.1,1.8
		c-0.9,0.3-1.9,0.4-2.8,0.8c-1.4,0.5-2.1,1.1-1.3,2.9c3.7,9,7.2,18,10.8,27c1.4,3.7,2.9,7.3,4.2,11c0.8,2.2,1.6,3,3.9,1.7
		c0.9-0.5,2.6-2.1,3.4,0.5c-0.2,0.1-0.2,0.2-0.1,0.3c-5.1,2-10.2,4-15.4,5.9C450,584.8,448.9,584.8,447.9,584.9z"/>
	<path class="st17" d="M362.2,447.6c7.3,0,14.5,0.1,21.8,0.1c21.6,0,43.2,0,64.8,0c1,0,2.1,0.4,3.1,0.6c-1.8,0-3.5,0-5.3,0
		c-28.3,0-56.6,0-84.8,0c0-0.3,0.1-0.6,0.1-0.9C361.9,447.4,362.1,447.4,362.2,447.6z"/>
	<path class="st18" d="M341.2,164.5c0,0.3,0,0.6-0.1,0.8c-2.3-0.6-1.3,1.3-1.3,2c0.3,3.7,0.8,7.4,1.3,11c0.8,6.5,1.8,12.9,2.4,19.4
		c0.2,2.7,1.1,3.8,3.7,3.4c0.5-0.1,1.2,0.4,1.8,0.6c-0.9,0.2-1.8,0.4-2.6,0.6c-1.1,0.1-2.3,0.2-3.4,0.4c-0.2-1.4-0.4-2.9-0.6-4.3
		c0-0.3,0-0.7-0.1-1c-0.2-1.4-0.4-2.9-0.6-4.3c-1.4-10.9-2.8-21.9-4.2-32.8c0.2-0.1,0.4-0.2,0.7-0.3
		C339.2,161.5,340.2,163,341.2,164.5z"/>
	<path class="st18" d="M391.6,190.1c0,0.4-0.1,0.7-0.1,1.1c-0.2,1.2-0.4,2.3-0.5,3.5c0.1,0.2,0.1,0.3-0.1,0.5
		c-0.2,1.2-0.4,2.5-0.6,3.7c-0.9,0.3-1.8,0.6-2.7,0.9c-0.9-0.3-1.7-0.7-3.6-1.4c4.4,0.6,5.4-0.7,5.8-4.2c1.4-11.7,3.2-23.3,5.2-34.9
		c0.5-2.6-0.3-3.2-2.4-3.6c-0.6-0.1-1.1-0.6-1.7-0.8c1,0,1.9,0,2.9-0.1c2.8,0.2,3.3,1.6,2.7,4.3c-1.4,6.5-2.4,13.1-3.5,19.7
		c-0.2,1.1-0.1,2.2-0.1,3.2c-0.2,1.2-0.4,2.4-0.6,3.6c0,0.3-0.1,0.7-0.1,1C392,187.7,391.8,188.9,391.6,190.1z"/>
	<path class="st18" d="M366.3,552.6c0-0.5,0-1,0.1-1.5c3.2,4,2.2,8.7,1.8,13c-0.9,9.1-2.4,18.1-3.8,27.2c-0.5,3.4,2.1,3.2,4.7,4.1
		c-1.4,0.1-2.1,0.2-2.9,0.3c-1.2-0.5-3.9,1.3-3-2.1c0.2-1.2,0.3-2.3,0.5-3.5c0.3-2.1,0.5-4.3,0.8-6.4c0.2-1.2,0.4-2.4,0.5-3.6
		c0-0.6,0.1-1.1,0.1-1.7c0.2-1.2,0.3-2.4,0.5-3.6c0-0.3,0.1-0.7,0.1-1c0.2-1.4,0.4-2.8,0.6-4.2C366.3,563.8,366.3,558.2,366.3,552.6
		z"/>
	<path class="st19" d="M249.7,490.8c26.3,0,52.6,0,78.9,0c-1.1,0.2-2.3,0.6-3.4,0.6c-24,0-48,0-72,0
		C252,491.4,250.8,491,249.7,490.8z"/>
	<path class="st20" d="M435.3,221.7c0.4,0,0.9,0,1.3,0c4.2,0,8.4,0,12.6,0c0.2,0.5,0.8,1.1,0.7,1.5c-3.5,10.8-7,21.6-10.6,32.3
		c-0.2,0-0.5,0-0.7,0c1.9-6.2,3.7-12.4,5.6-18.6c1.2-3.9,2.4-7.8,3.7-11.6c0.6-1.7,0.3-2.4-1.7-2.3c-3.2,0.1-6.4,0.1-9.6,0
		C436.2,222.9,435.7,222.1,435.3,221.7z"/>
	<path class="st17" d="M512.2,210.4c-24.7,0-49.5,0-74.2,0c1.1-0.2,2.3-0.6,3.4-0.6c22.4,0,44.9,0,67.3,0
		C509.9,209.7,511,210.1,512.2,210.4z"/>
	<path class="st18" d="M448.4,534.5c0.3,0,0.6,0.1,0.8,0.1c-0.1,0.1-0.1,0.3-0.2,0.3c-4.6,1.4-3.1,4.2-1.9,7.2
		c2.6,6.3,5.1,12.6,7.6,18.9c0.5,1.3,0.7,2.7,1.1,4.1c-0.3,0-0.6,0-0.8,0.1c-3.6-9-7.1-18-10.8-27c-0.7-1.8-0.1-2.4,1.3-2.9
		C446.5,534.9,447.4,534.7,448.4,534.5z"/>
	<path class="st20" d="M549.2,448.5c0-0.3,0-0.6,0.1-0.8c8.8,4.3,17.5,8.6,26.3,12.8c1.2,0.6,2.5,1.9,3.5-0.2c0.3,0.3,0.5,0.6,0.8,1
		c-0.6,1.2-0.7,2.7-2.9,1.5C567.8,457.9,558.5,453.3,549.2,448.5z"/>
	<path class="st18" d="M428,287.9c0,0.5,0.1,1.1,0.1,1.6c-3.8,11.8-7.6,23.6-11.4,35.4c-0.4,1.1-0.9,2.2-1.3,3.4c-0.2,0-0.5,0-0.7,0
		c1.1-4,2.2-8,3.4-11.9c3-9.1,6-18.1,9.1-27.1C427.4,288.8,427.7,288.4,428,287.9z"/>
	<path class="st18" d="M393.5,395.3c-0.2,0-0.4,0-0.7,0c0.7-2.5,1.2-5.1,2-7.6c3.2-9.7,6.6-19.3,9.9-28.9c0,0.6,0.1,1.1,0.1,1.7
		c-3.7,11.2-7.4,22.3-11.1,33.5C393.6,394.5,393.6,394.9,393.5,395.3z"/>
	<path class="st21" d="M290.1,431.8c-0.2,0-0.5,0-0.7,0c0-0.3,0-0.7,0.1-1c1.2-5,1.2-5-3.8-5c-12,0-24.1,0-36.1,0.1
		c-1.5,0-3.1,0.8-4.6,1.3c0-0.3,0-0.6-0.1-0.8c0.9-0.6,1.8-1.2,2.7-1.7c1.2,0.2,2.3,0.6,3.5,0.6c12.4,0,24.9,0,37.3,0.1
		c1.2,0,2.5,0.5,3.7,0.7C291.5,427.9,290.8,429.8,290.1,431.8z"/>
	<path class="st20" d="M388.9,554.4c0,0.5,0,1,0,1.4c-2.5,6.5-2.4,13.1-1.4,19.8c-0.2,0.2-0.4,0.4-0.6,0.7
		C384.6,568.7,384.9,561.4,388.9,554.4z"/>
	<path class="st22" d="M333.9,478.9c-2.4,0.2-4.7,0.5-7.1,0.6c-3.6,0.1-7.3,0-10.9,0.1c0.5-1.5,0.9-3.1,1.4-4.6c0.2,0,0.4,0,0.7,0
		c0,0.7,0,1.3,0,2c-1.4,1.9-0.1,1.9,1.3,2C324.1,478.8,329,478.8,333.9,478.9z"/>
	<path class="st18" d="M294.1,209.7c-0.3,0-0.5,0-0.8,0.1c-1.5-3.7-3-7.4-4.5-11.2c0-0.5,0-1,0.1-1.5
		C290.5,201.3,292.3,205.5,294.1,209.7z"/>
	<path class="st23" d="M404.6,538.1c0.3-0.3,0.5-0.6,0.8-0.9c0,5,3.8,7,7.3,9.3c-0.3,0-0.6,0.1-0.9,0.1
		C406.9,545.9,405.1,542.7,404.6,538.1z"/>
	<path class="st24" d="M485,433.8c0-0.2,0-0.5,0-0.7c2.9-2.9,5.7-5.7,8.6-8.6c0.2,0.2,0.5,0.5,0.7,0.7
		C491.2,428,488.1,430.9,485,433.8z"/>
	<path class="st18" d="M414.7,158.7c0.5,0,0.9,0,1.4,0c2.9,1.5,3.8,4.1,4,7.1c-0.1,1.2-0.2,2.3-0.2,3.5
		C419.2,165.2,418.7,161.1,414.7,158.7z"/>
	<path class="st25" d="M272.9,478.2c0.2,0.4,0.4,0.9,0.7,1.3c-5.7,0-11.4,0.1-17.1,0.1c-0.3,0-0.5-0.1-0.8-0.1
		c0.2-0.2,0.4-0.4,0.6-0.6c3,0,5.9,0.1,8.9,0C267.7,478.7,270.3,478.4,272.9,478.2L272.9,478.2z"/>
	<path class="st26" d="M365.1,436.6c0-0.3,0-0.6-0.1-0.9c0,0,0,0,0,0c1.6,0,3.3,0.1,4.9,0c3.2-0.2,6.4-0.4,9.6-0.6
		c0.2-0.4,0.5-0.9,0.7-1.3c0,0.7,0,1.4,0,2c-0.8,0.3-1.6,0.8-2.5,0.8C373.6,436.7,369.3,436.6,365.1,436.6z"/>
	<path class="st21" d="M502.2,546.5c0.2-0.2,0.4-0.4,0.6-0.7c1.4,2.8,2.2,5.6,0.8,8.6c-0.2,0-0.5,0-0.7,0
		C502.7,551.8,502.5,549.1,502.2,546.5z"/>
	<path class="st19" d="M386.9,576.3c0.2-0.2,0.4-0.4,0.6-0.7c1.1,3,2.3,6,3.4,9.1c-0.2,0.3-0.5,0.6-0.7,0.9
		C389.1,582.5,388,579.4,386.9,576.3z"/>
	<path class="st27" d="M299.4,534.5c-0.2-0.2-0.4-0.4-0.7-0.6c2.2,0.2,4.4,0.4,6.6,0.6c0,0.2,0,0.4,0,0.6
		C303.4,535,301.4,534.8,299.4,534.5z"/>
	<path class="st28" d="M274.8,230.9c-0.2-0.2-0.4-0.4-0.6-0.7c0-1.8,0-3.5,0-5.3c0.2,0,0.4,0,0.7,0
		C274.8,226.9,274.8,228.9,274.8,230.9z"/>
	<path class="st29" d="M471.2,521.3c0.2,0.2,0.4,0.4,0.5,0.7c0,1.5,0,3.1,0,4.6c-0.2,0-0.4,0-0.6,0
		C471.2,524.8,471.2,523.1,471.2,521.3z"/>
	<path class="st30" d="M530.1,459c0.2,0,0.4,0,0.6,0c0,1.8,0,3.5,0,5.3c-0.2,0-0.4,0-0.7,0C530.1,462.5,530.1,460.7,530.1,459z"/>
	<path class="st30" d="M546,464.8c0.4-0.2,0.9-0.4,1.3-0.6c0.9,0,1.8,0,2.7,0c0.2,0.2,0.4,0.4,0.6,0.6
		C549.1,464.8,547.5,464.8,546,464.8z"/>
	<path class="st25" d="M205.9,477.5c-0.2,0.2-0.4,0.4-0.7,0.7c0-1.3,0.1-2.6,0.1-3.9c0.2,0.4,0.4,0.9,0.6,1.3
		C205.9,476.2,205.9,476.9,205.9,477.5z"/>
	<path class="st31" d="M253,212.4c0.2,0,0.4,0,0.7,0c0,1.3,0,2.7,0,4c-0.2,0-0.4,0-0.7,0C253,215,253,213.7,253,212.4z"/>
	<path class="st32" d="M294.2,219.7c-0.5,0-1,0-1.5,0c0.2-0.7,0.4-1.3,0.7-2c0.2-0.2,0.4-0.4,0.6-0.7
		C294.1,217.9,294.1,218.8,294.2,219.7z"/>
	<path class="st29" d="M483,513.3c-1.5,0-3.1,0-4.6,0C479.9,513.3,481.5,513.3,483,513.3z"/>
	<path class="st17" d="M516.8,210.4c-0.9,0.2-1.9,0.5-2.8,0.7c-0.6-0.1-1.2-0.1-1.8-0.2c0-0.2,0-0.4,0-0.6
		C513.7,210.4,515.3,210.4,516.8,210.4z"/>
	<path class="st33" d="M251,219c0,0.2,0,0.4,0,0.7c-0.7-0.2-1.4-0.3-2-0.5c0-0.3,0-0.5,0.1-0.8C249.7,218.5,250.3,218.8,251,219z"/>
	<path class="st15" d="M248.9,219.1c0.7,0.2,1.4,0.3,2,0.5c0.9-1.1,1.8-2.2,2.6-3.3c0-1.3,0-2.7,0-4c-0.4-1-0.9-2-1.3-3
		c-0.2-0.6-0.1-1.3-0.2-1.9c0.5,0.3,1.2,0.4,1.5,0.8c3.6,4.6,7.3,9.2,10.8,13.8c0.3,0.4,0.2,1.2,0.3,1.9c-0.5-0.2-1.1-0.4-1.6-0.7
		c-1.6-1.1-3.1-3.1-4.8-3.3c-2-0.3-4.3,0.9-6.3,1.6c-0.2,0.1-0.2,1.6,0.2,2.1c3.9,5.1,7.9,10.1,11.9,15.1c0.4,0.5,1.5,0.9,1.7,0.7
		c3-2.8,6-5.7,8.9-8.5c0-2,0-4,0.1-6c-0.9-2.1-1.8-4.2-2.6-6.4c-0.2-0.6-0.1-1.3-0.1-2c0.6,0.3,1.3,0.5,1.7,1
		c2.5,3.2,4.8,6.6,7.3,9.8c1.1,1.4,0.6,2-0.5,2.8c-7.8,6.1-15.6,12.3-23.5,18.4c-0.5,0.4-1.5,0.3-2.2,0.5c0.3-0.6,0.5-1.5,1-1.8
		c3.2-1.7,2.7-3.3,0.6-5.9c-8.1-9.9-16-20-23.8-30.2c-1.7-2.2-2.8-2.5-4.8-0.5c-0.6,0.6-1.7,0.6-2.6,0.9c0.5-0.7,0.8-1.7,1.4-2.2
		c7.3-5.8,14.8-11.6,22.1-17.4c1.4-1.1,2.2-1.4,3.3,0.2c1.9,2.6,4.1,4.9,6.1,7.4c0.3,0.4,0.3,1.1,0.4,1.7c-0.6-0.1-1.2,0-1.7-0.3
		c-1-0.6-1.9-1.5-3-2.1c-4.3-2.7-7.2-2.6-11.3,0.4c-6.2,4.5-6.2,4.5-1.6,10.4C243.8,212.8,246.4,216,248.9,219.1z"/>
	<path class="st15" d="M162.3,310.1c0.4-0.3,0.8-0.6,1.3-0.9c0.2,0.5,0.7,1,0.7,1.6c-0.1,4.7-0.1,4.6,4.5,5.6
		c13.2,2.7,26.4,5.5,39.5,8.3c1,0.2,1.8,0.8,2.8,1.3c-0.9,0.6-1.8,1.5-2.8,1.8c-15,4.4-30.1,8.8-45.1,13.2c-0.8,0.2-1.7,0.5-3.4,1.1
		c7,1.5,13.2,2.8,19.3,4.1c6.9,1.4,13.9,2.7,20.7,4.4c2.6,0.6,3.7,0.2,3.9-2.5c0.1-0.8,1-1.6,1.5-2.3c0.1,0.9,0.4,1.7,0.3,2.6
		c-0.5,3-1.2,6.1-1.9,9.1c-0.1,0.6-0.8,1.1-1.2,1.6c-0.2-0.6-0.8-1.4-0.6-1.8c1.8-3.9-0.6-4.4-3.6-5c-12.7-2.5-25.3-5.2-37.9-7.9
		c-2.2-0.5-3.1-0.1-3.2,2.1c0,0.6-0.2,1.3-0.5,1.9c-0.2,0.4-0.7,0.6-1.1,0.9c-0.2-0.4-0.7-0.9-0.7-1.2c0.9-4.3,1.7-8.7,2.8-12.9
		c0.2-0.8,1.8-1.4,2.8-1.7c9.7-3,19.4-5.8,29.2-8.7c0.7-0.2,1.4-0.5,3.1-1c-7.3-1.5-13.6-2.9-19.9-4.2c-1.8-0.4-3.7-0.6-5.5-1.2
		c-3-0.9-5-0.7-5.1,3.1c0,0.5-0.9,0.9-1.3,1.4c-0.2-0.7-0.4-1.3-0.6-2C160.9,317,161.6,313.5,162.3,310.1z"/>
	<path class="st34" d="M200.6,366.1c1.2-1,2-0.9,2.1,0.9c0.3,5.3,0.7,10.6,1,15.9c0,0.5-0.5,1-0.8,1.5c-0.4-0.4-0.9-0.8-1-1.3
		c-0.2-0.7-0.2-1.5-0.2-2.3c0.1-2-0.6-2.6-2.6-1.7c-1.8,0.8-3.7,1.3-5.6,1.9c-5.1,1.8-5.1,1.8-4.6,7.3c0.7,7.2,0.7,7.2,7.6,8.7
		c0.8,0.2,1.6,0.2,2.3,0.5c3.2,1.3,4.4,0.4,3.8-3.1c-0.1-0.7,0.5-1.5,0.7-2.2c0.4,0.7,1,1.3,1.1,2c0.3,3,0.4,5.9,0.5,8.9
		c0,0.6-0.6,1.1-0.9,1.7c-0.3-0.5-0.9-1-0.8-1.5c0.4-3.3-1.7-3.6-4.1-4.2c-14.4-3.2-28.8-6.5-43.2-9.8c-1-0.2-1.9-1.1-2.8-1.7
		c0.8-0.6,1.6-1.4,2.5-1.7c14.1-4.9,28.1-9.7,42.2-14.6c1-0.3,1.9-0.9,2.9-1.3C200.7,368.8,200.7,367.5,200.6,366.1z M167.6,389.8
		c0,0.2,0.1,0.5,0.1,0.7c5.8,1.3,11.7,2.6,17.5,3.9c1.4,0.3,2.3,0.4,2.1-1.6c-0.3-3-0.4-6.1-0.6-9.5
		C180.2,385.6,173.9,387.7,167.6,389.8z"/>
	<path class="st16" d="M217.8,297.8c5.5-2,7.9-7.6,5.1-12.8c-1.5-2.6-3.8-4.8-5.8-7.2c-0.4-0.5-0.6-1.2-0.9-1.8c0.7,0,1.4-0.2,2,0.1
		c3.4,1.7,6.7,3.4,10,5.1c0.6,0.3,1.1,0.9,1.6,1.4c-0.6,0.3-1.3,0.8-1.9,0.9c-2.1,0.1-2.3,0.9-2.1,2.9c0.9,7.8-3.2,13.4-11.1,15.7
		c-15.4,4.3-34-6.5-37.5-21.9c-1.3-5.6,1.1-11.9,6.1-14.6c2.1-1.2,3.1-2.1,1.5-4.3c-0.2-0.3,0-0.8,0-1.9c4.3,2.2,8.2,4.2,12.2,6.3
		c0.3,0.2,0.6,0.9,0.5,1c-0.3,0.3-0.9,0.7-1.2,0.6c-1.3-0.2-2.6-0.9-3.9-0.8c-2.6,0.1-5.4,0-7.7,1c-5.6,2.3-7.1,8.5-3.6,13.4
		c0.6,0.8,1.2,1.6,2,2.2c8.8,6.6,18.4,11.6,29,14.7C213.9,297.8,215.8,297.8,217.8,297.8z"/>
	<path class="st15" d="M203.7,237.6c-0.9,1-1.6,2.1-2.6,2.9c-0.5,0.5-1.4,0.5-2.1,0.8c0.2-0.6,0.3-1.4,0.7-1.9c3.3-4,6.5-8,9.9-12
		c0.4-0.5,1.3-0.5,2-0.8c-0.2,0.7-0.2,1.6-0.7,1.9c-3,2.5-1.6,4,0.8,5.9c10.1,8.1,20,16.3,29.9,24.6c2,1.7,3,1.6,4.2-0.5
		c0.3-0.6,0.8-1.1,1.3-1.5c0.3-0.2,1-0.1,1.4,0.1c0.1,0,0.2,0.9,0,1.1c-3.7,4.5-7.4,9-11.2,13.5c-0.2,0.2-0.9,0-1.4,0
		c0.1-0.5,0-1,0.2-1.4c0.8-1.3,2.7-2.9,2.3-3.6c-0.7-1.5-2.4-2.4-3.8-3.5c-9.6-7.9-19.2-15.9-28.8-23.8
		C205.3,238.8,204.6,238.3,203.7,237.6z"/>
	<path class="st30" d="M215.2,490c0,0.3,0,0.5,0,0.8c-15,0-30.1,0-45.1,0c0-0.3,0-0.5,0-0.8C185.2,490,200.2,490,215.2,490z"/>
	<path class="st18" d="M162.3,310.1c-0.7,3.4-1.4,6.9-2.1,10.3c-0.3,0.6-0.7,1.3-1,1.9c-0.2,0-0.4-0.1-0.6-0.1c1-4.3,2-8.5,2.9-12.8
		C161.8,309.7,162,309.9,162.3,310.1z"/>
	<path class="st35" d="M217.8,297.8c-2,0-3.9,0-5.9,0C213.9,297.8,215.8,297.8,217.8,297.8z"/>
	<path class="st36" d="M200.6,366.1c0,1.3,0,2.7,0,4C200.7,368.8,200.7,367.5,200.6,366.1z"/>
	<path class="st37" d="M455.8,313.1c0.2,0.3,0.6,0.6,0.5,0.7c-1.9,4.5,1.1,4,3.8,3.9c5.5-0.2,10.9-0.5,16.4-0.6
		c0.6,0,1.2,0.4,1.8,0.6c-3.7,0.4-7.3,0.9-11,1.1c-3.6,0.2-7.2-0.1-10.8,0.1c-2.5,0.1-2.8-0.7-1.9-2.7
		C455.1,315.2,455.4,314.1,455.8,313.1z"/>
	<path class="st38" d="M419.4,425.2c-0.5,2.6-0.7,5.3-1.5,7.7c-0.7,2.3-0.2,3,2.1,2.9c7.3-0.5,14.7-0.9,22-1.2
		c0.8,0,1.6,0.3,2.4,0.5c-1.3,0.3-2.5,0.5-3.8,0.8c-1.6,0.2-3.2,0.4-4.8,0.5c-6.1,0.1-12.3,0.2-18.4,0.3c-1.6,0-1.9-0.5-1.4-1.9
		C417.2,431.6,418.3,428.4,419.4,425.2z"/>
	<path class="st39" d="M469.1,329.8c-4.5,0.2-8.9,0.3-13.4,0.6c-1.7,0.1-3.4,0.8-5.2,1.1c-0.1,0-0.5-0.8-0.7-1.2
		c0.4-0.2,0.8-0.7,1.3-0.7C457.1,329.6,463.1,329.7,469.1,329.8z"/>
	<path class="st18" d="M449.2,221.7c-4.2,0-8.4,0-12.6,0C440.8,221.7,445,221.7,449.2,221.7z"/>
	<path class="st40" d="M487.6,322.5c-0.9,0.4-1.8,0.8-2.6,1.2c0-0.4,0-1.1,0.1-1.1C485.9,322.5,486.8,322.5,487.6,322.5z"/>
	<path class="st18" d="M396.7,549.1c0.2,0.4,0.6,0.9,0.5,1.1c-2.7,5-1.7,10.3-1,15.4c0.9,6.3,2.1,12.5,3.3,18.7
		c0.4,1.8,1.1,3.6,2,5.2c1.6,3.1,4.2,4,8.2,3.3c0.8-0.1,1.6,0,2.4,0.1c-0.6,0.3-1.2,0.5-1.8,0.8c-1.7,0-3.4,0-5.1,0
		c-3.8-0.7-5.4-3.8-6.1-7c-1.4-5.6-2.3-11.4-3.4-17.1c-0.4-2.5-0.5-5-0.8-7.5c0-2.7,0-5.3,0-8C395.4,552.4,396.1,550.8,396.7,549.1z
		"/>
	<path class="st41" d="M405.4,546.5c-1.3,0-2.6,0-4,0C402.8,546.5,404.1,546.5,405.4,546.5z"/>
	<path class="st42" d="M570.4,422.6c-0.4,0-0.8,0-1.2-0.1c0.3-0.7,0.6-1.4,0.8-2.1C570.2,421.2,570.3,421.9,570.4,422.6z"/>
	<path class="st43" d="M570.4,412.5c0.1-0.7-2.5-1-0.3-2.1C570.2,411.1,570.3,411.8,570.4,412.5z"/>
	<path class="st44" d="M356.4,155.3c0-0.2,0-0.5,0-0.7c1.1,0.1,2.2,0.1,3.3,0.2C358.6,155,357.5,155.2,356.4,155.3z"/>
	<path class="st15" d="M294.2,219.7c-0.1-0.9-0.1-1.8-0.2-2.7c-5.3-12.7-10.6-25.4-15.9-38.2c-1.1-2.6-2.4-0.7-3.6-0.5
		c-0.9,0.1-1.9,0.1-2.9,0.2c0.7-0.6,1.4-1.3,2.2-1.9c0.4-0.3,1-0.5,1.5-0.7c3.4-1.3,6.9-4,10-3.6c3.1,0.5,5.8,4,8.7,6.3
		c5.8,4.7,11.6,9.5,17.4,14.2c0.2,0.2,0.6,0.2,1.7,0.4c-0.9-2.4-1.5-4.4-2.3-6.4c-2.4-5.8-5-11.5-7.3-17.4c-0.9-2.4-1.9-3.1-4.2-1.7
		c-0.7,0.4-1.7,0.2-2.6,0.3c0.7-0.7,1.2-1.6,2-2c2.8-1.3,5.7-2.5,8.5-3.6c0.5-0.2,1.3,0.1,1.9,0.2c-0.3,0.5-0.5,1.1-1,1.4
		c-3.9,2.4-3.9,2.4-2.1,6.8c5.1,12,10.1,24,15.2,36c0.5,1.3,0.7,2.8,1,4.2c-1.4-0.7-2.9-1.2-4.1-2.1c-12.1-9.8-24.2-19.6-36.3-29.4
		c-0.4-0.3-0.9-0.7-1.8-0.7c2.9,6.6,5.7,13.2,8.6,19.7c1.5,3.7,3,7.4,4.5,11.2c0.8,2,1.9,4,2.5,6.1c0.8,2.5,2,3,4.2,1.7
		c0.7-0.4,1.8-0.2,2.6-0.3c-0.7,0.7-1.2,1.6-2,2c-2.7,1.3-5.4,2.4-8.2,3.5c-0.6,0.2-1.5-0.1-2.2-0.1c0.5-0.5,0.8-1.1,1.4-1.5
		C292.4,220.5,293.3,220.1,294.2,219.7z"/>
	<path class="st15" d="M502.8,500c0.1,3.1,2.5,6,5.1,9c0.5,0.6,0.7,1.5,1.1,2.3c-0.8-0.3-1.7-0.4-2.3-0.9c-3.1-2.8-6.2-5.6-9.2-8.6
		c-0.5-0.5-0.5-2-0.1-2.5c6.4-7.5,12.9-14.8,19.4-22.2c0.4-0.4,1.2-0.5,1.8-0.8c-0.1,0.6,0,1.6-0.4,1.9c-3.6,2.7-1.6,4.3,0.8,6.3
		c9.6,8.2,19.1,16.4,28.4,24.8c2.2,1.9,3.4,2.1,5-0.3c0.4-0.6,1.5-0.9,2.2-1.3c-0.3,0.8-0.3,1.8-0.8,2.3c-3.3,4-6.8,7.9-10.2,11.7
		c-0.4,0.5-1.3,0.5-2,0.7c0.2-0.6,0.3-1.4,0.7-1.9c2.6-3.5,2.6-3.4-0.7-6.3c-9.7-8.4-19.3-16.8-28.9-25.3c-1.7-1.5-2.7-1.7-4.1,0.2
		C506.3,492.2,502.8,494.5,502.8,500z"/>
	<path class="st15" d="M471.2,521.3c0,1.8-0.1,3.5-0.1,5.3c1.5,2.6,2.9,5.2,4.4,7.6c0.3,0.4,1.4,0.5,2,0.3c0.9-0.3,1.6-1.1,2.5-1.6
		c0.5-0.2,1.1-0.1,1.7-0.1c-0.2,0.5-0.2,1.3-0.6,1.5c-4.3,3-8.7,6-13.1,8.9c-0.4,0.3-1.1,0.1-1.6,0.1c0.3-0.6,0.4-1.3,0.8-1.7
		c0.9-0.8,2.2-1,1.2-3c-5.5-11.4-2.8-18.6,8.7-23.9c16.9-2.1,28.6,14,30.3,25.5c0.5,3.6,0.6,7.5,0,11.1c-1.1,6.4-6.7,10.9-13.1,11
		c-2.2,0-3.7,0.3-3.4,2.9c0,0.4-0.4,0.9-0.7,1.4c-0.4-0.3-0.9-0.5-1.2-0.9c-2.1-3.1-4.2-6.2-6.3-9.3c-0.3-0.4-0.2-1.1-0.3-1.7
		c0.6,0.2,1.4,0.2,1.9,0.5c2.7,1.5,5.1,3.5,8,4.5c4.8,1.7,9.1-0.6,11.2-5.4c1.4-3,0.6-5.9-0.8-8.6c-4.6-9.4-10.2-18.2-17.6-25.7
		C480.4,515.3,474.9,516.1,471.2,521.3z"/>
	<path class="st20" d="M167.6,389.8c6.3-2.1,12.5-4.2,19.1-6.4c0.2,3.4,0.3,6.5,0.6,9.5c0.2,1.9-0.7,1.9-2.1,1.6
		c-5.8-1.3-11.7-2.6-17.5-3.9C167.7,390.3,167.7,390.1,167.6,389.8z M172.9,389.3c0.1,0.4,0.1,0.7,0.2,1.1c3.9,0.9,7.8,1.7,11.7,2.5
		c0.4,0.1,1.2-0.6,1.2-0.9c0-1.7-0.2-3.5-0.5-5.2c-0.1-0.4-0.9-1.1-1.2-1.1C180.4,386.9,176.7,388.1,172.9,389.3z"/>
</g>
</svg>
