<?xml version="1.0" encoding="utf-8"?>
<!-- Generator: Adobe Illustrator 22.1.0, SVG Export Plug-In . SVG Version: 6.00 Build 0)  -->
<svg version="1.1" xmlns="http://www.w3.org/2000/svg" xmlns:xlink="http://www.w3.org/1999/xlink" x="0px" y="0px"
	 viewBox="0 0 736.8 737" style="enable-background:new 0 0 736.8 737;" xml:space="preserve">
<style type="text/css">
	.st0{fill:#BBCC00;}
	.st1{fill:#EE9900;}
</style>
<g id="Logo">
	<g>
		<polygon class="st0" points="553.8,553.9 676.4,553.9 676.4,431.3 554.3,431.3 		"/>
		<g>
			<rect x="553.8" y="186.2" class="st0" width="122.6" height="122.6"/>
			<path class="st1" d="M245.8,183.1c-102.4,0-185.4,83-185.4,185.4c0,102.4,83,185.4,185.4,185.4h185.4V368.5
				C431.2,266.1,348.2,183.1,245.8,183.1z M307.6,430.3h-61.8c0,0,0,0,0,0c-34.1,0-61.8-27.7-61.8-61.8c0-34.1,27.7-61.8,61.8-61.8
				c34.1,0,61.8,27.7,61.8,61.8V430.3z"/>
		</g>
	</g>
</g>
<g id="woordbeeld_zonder__baseline">
</g>
</svg>
