<?xml version="1.0" encoding="utf-8"?>
<!-- Generator: Adobe Illustrator 22.1.0, SVG Export Plug-In . SVG Version: 6.00 Build 0)  -->
<svg version="1.1"
	 id="svg2985" inkscape:version="0.48.2 r9819" sodipodi:docname="90b7c55bba3c2bbd9bd1e4062242f6d2de7b81ea.pdf" xmlns:cc="http://creativecommons.org/ns#" xmlns:dc="http://purl.org/dc/elements/1.1/" xmlns:inkscape="http://www.inkscape.org/namespaces/inkscape" xmlns:rdf="http://www.w3.org/1999/02/22-rdf-syntax-ns#" xmlns:sodipodi="http://sodipodi.sourceforge.net/DTD/sodipodi-0.dtd" xmlns:svg="http://www.w3.org/2000/svg"
	 xmlns="http://www.w3.org/2000/svg" xmlns:xlink="http://www.w3.org/1999/xlink" x="0px" y="0px" viewBox="0 0 1000 1000"
	 style="enable-background:new 0 0 1000 1000;" xml:space="preserve">
<style type="text/css">
	.st0{fill:#CE147F;}
	.st1{fill:#7B6FB1;}
	.st2{fill:#944C98;}
	.st3{fill:#BA348D;}
	.st4{fill:#1273B8;}
	.st5{fill:#1F8DCC;}
	.st6{fill:#16A5B6;}
	.st7{fill:#13AF9A;}
	.st8{fill:#30AD69;}
	.st9{fill:#75BA43;}
	.st10{fill:#F9B234;}
	.st11{fill:#F28921;}
	.st12{fill:#EA312C;}
	.st13{fill:#D81D4A;}
	.st14{fill:#5AC7EE;}
	.st15{fill:#727071;}
</style>
<sodipodi:namedview  bordercolor="#666666" borderopacity="1" fit-margin-bottom="0.5" fit-margin-left="0.5" fit-margin-right="0.5" fit-margin-top="0.5" gridtolerance="10" guidetolerance="10" id="namedview2987" inkscape:current-layer="g2993" inkscape:cx="2.9447832" inkscape:cy="-316.79329" inkscape:pageopacity="0" inkscape:pageshadow="2" inkscape:window-height="1028" inkscape:window-maximized="1" inkscape:window-width="1920" inkscape:window-x="-8" inkscape:window-y="-8" inkscape:zoom="0.50837168" objecttolerance="10" pagecolor="#ffffff" showgrid="false">
	<inkscape:grid  empspacing="5" enabled="true" id="grid3140" snapvisiblegridlinesonly="true" type="xygrid" visible="true">
		</inkscape:grid>
</sodipodi:namedview>
<g>
	<g id="g3023" transform="matrix(5.0302765,0,0,5.0302765,214.50716,891.89296)">
		<path id="path3025" inkscape:connector-curvature="0" class="st0" d="M-11.3-83.2l-9.2-4.1l1.6-3.7l9.2,4.1L-11.3-83.2z"/>
	</g>
	<g id="g3027" transform="matrix(5.0302765,0,0,5.0302765,283.67447,1012.4083)">
		<path id="path3029" inkscape:connector-curvature="0" class="st1" d="M-11.4-130.9l-0.4,12.8l4,0.1l0.4-12.8L-11.4-130.9z"/>
	</g>
	<g id="g3031" transform="matrix(5.0302765,0,0,5.0302765,246.4786,934.70966)">
		<path id="path3033" inkscape:connector-curvature="0" class="st2" d="M-11.4-100.1l-3-6.4l4-1.9l3,6.4L-11.4-100.1z"/>
	</g>
	<g id="g3035" transform="matrix(5.0302765,0,0,5.0302765,232.08042,922.77987)">
		<path id="path3037" inkscape:connector-curvature="0" class="st3" d="M-11.4-95.4l-10.8-11.3l1.3-1.3L-10-96.7L-11.4-95.4z"/>
	</g>
	<g id="g3039" transform="matrix(5.0302765,0,0,5.0302765,316.4588,942.80236)">
		<path id="path3041" inkscape:connector-curvature="0" class="st4" d="M-11.5-103.3l4.1-9.2l1.7,0.8l-4.1,9.2L-11.5-103.3z"/>
	</g>
	<g id="g3043" transform="matrix(5.0302765,0,0,5.0302765,339.11868,929.8459)">
		<path id="path3045" inkscape:connector-curvature="0" class="st5" d="M-11.5-98.2L-0.7-109l2,2L-9.5-96.2L-11.5-98.2z"/>
	</g>
	<g id="g3047" transform="matrix(5.0302765,0,0,5.0302765,362.38572,843.11186)">
		<path id="path3049" inkscape:connector-curvature="0" class="st6" d="M-11.6-63.9l12.8,6l-1.2,2.5l-12.8-6L-11.6-63.9z"/>
	</g>
	<g id="g3051" transform="matrix(5.0302765,0,0,5.0302765,348.5922,819.4283)">
		<path id="path3053" inkscape:connector-curvature="0" class="st7" d="M-11.6-54.5l7.1,6.9L-6-46l-7.1-6.9L-11.6-54.5z"/>
	</g>
	<g id="g3055" transform="matrix(5.0302765,0,0,5.0302765,331.17788,804.1106)">
		<path id="path3057" inkscape:connector-curvature="0" class="st8" d="M-11.5-48.4l4,8.6l-3.7,1.7l-4-8.6L-11.5-48.4z"/>
	</g>
	<g id="g3059" transform="matrix(5.0302765,0,0,5.0302765,297.56707,792.44238)">
		<path id="path3061" inkscape:connector-curvature="0" class="st9" d="M-11.5-43.8l0.2,14.6l-2.9,0l-0.2-14.6L-11.5-43.8z"/>
	</g>
	<g id="g3063" transform="matrix(5.0302765,0,0,5.0302765,266.42264,795.39516)">
		<path id="path3065" inkscape:connector-curvature="0" class="st10" d="M-11.4-45l-2.9,6.9l-2.8-1.1l2.9-6.9L-11.4-45z"/>
	</g>
	<g id="g3067" transform="matrix(5.0302765,0,0,5.0302765,239.96339,809.81896)">
		<path id="path3069" inkscape:connector-curvature="0" class="st11" d="M-11.4-50.7L-23.1-39l-2.1-2.1l11.7-11.7L-11.4-50.7z"/>
	</g>
	<g id="g3071" transform="matrix(5.0302765,0,0,5.0302765,221.77389,831.1081)">
		<path id="path3073" inkscape:connector-curvature="0" class="st12" d="M-11.3-59.1l-6.8,3l-1.3-3.1l6.8-3L-11.3-59.1z"/>
	</g>
	<g id="g3075" transform="matrix(5.0302765,0,0,5.0302765,211.85217,863.42359)">
		<path id="path3077" inkscape:connector-curvature="0" class="st13" d="M-11.3-71.9l-10.1,0.1l0-2l10.1-0.1L-11.3-71.9z"/>
	</g>
	<g id="g3079" transform="matrix(5.0302765,0,0,5.0302765,357.13713,907.82083)">
		<path id="path3081" inkscape:connector-curvature="0" class="st14" d="M-11.6-89.5l9.3-3.7l1.4,3.6l-9.3,3.7L-11.6-89.5z"/>
	</g>
	<g id="g3083" transform="matrix(5.0302765,0,0,5.0302765,366.82745,878.95507)">
		<path id="path3085" inkscape:connector-curvature="0" class="st4" d="M-11.6-78.1l7.4,0.3L-4.4-73l-7.4-0.3L-11.6-78.1z"/>
	</g>
	<g id="g3087" transform="translate(50.5656,729.5589)">
		<path id="path3089" inkscape:connector-curvature="0" class="st15" d="M422-226.7l-22.3-33.4l-1.3,0.1l-2.1,51h8.5l0.5-30.3
			l16,24.1h1l15.9-24.1l0.7,30.2h8.5l-2.1-51l-1.4-0.1L422-226.7z"/>
	</g>
	<g id="g3091" transform="translate(59.1525,736.1595)">
		<path id="path3093" inkscape:connector-curvature="0" class="st15" d="M455.9-265.9v50.4h30.7v-7.8h-22.1v-14h20v-7.6h-20v-13.2
			h22.1v-7.8H455.9z"/>
	</g>
	<g id="g3097">
		<g id="g3103" transform="translate(75.7818,731.1566)">
			<path id="path3105" inkscape:connector-curvature="0" class="st15" d="M521.5-236.2c0-2.6-0.4-5-1.2-7.1c-0.8-2.2-2.1-4-3.7-5.5
				c-1.6-1.5-3.7-2.7-6.1-3.6c-2.4-0.8-5.2-1.3-8.5-1.3c-2.5,0-4.7,0.1-6.5,0.4v35.1c1.1,0.2,2.1,0.3,3.2,0.3c1.1,0,2.4,0.1,4.1,0.1
				c3.3,0,6-0.5,8.4-1.4c2.3-0.9,4.3-2.2,5.8-3.8c1.6-1.6,2.7-3.6,3.4-5.8C521.2-231,521.5-233.5,521.5-236.2 M530.8-236.2
				c0,3.5-0.6,6.9-1.8,10c-1.2,3.2-3,5.9-5.4,8.3c-2.4,2.4-5.4,4.2-9.1,5.6c-3.7,1.4-8,2.1-13,2.1c-1.4,0-2.7,0-3.9-0.1
				c-1.2,0-2.4-0.1-3.5-0.2c-1.1-0.1-2.3-0.1-3.4-0.2c-1.2-0.1-2.4-0.2-3.6-0.3v-49.5c2.5-0.3,4.8-0.5,7-0.6c2.2-0.1,4.5-0.2,7-0.2
				c5,0,9.4,0.7,13.1,2c3.7,1.3,6.8,3.1,9.3,5.4c2.5,2.3,4.3,5,5.6,8C530.1-242.8,530.8-239.5,530.8-236.2"/>
		</g>
		<path id="path3107" inkscape:connector-curvature="0" class="st15" d="M621.4,470.3h8.6v50.4h-8.6V470.3z"/>
		<g id="g3109" transform="translate(89.6965,733.087)">
			<path id="path3111" inkscape:connector-curvature="0" class="st15" d="M576.5-247.6l-7.1,16.8h14.3L576.5-247.6z M591.3-212.4
				l-4.9-11.5h-19.9l-4.9,11.5h-8.9l23.2-51.1h1.2l23.2,51.1C600.4-212.4,591.3-212.4,591.3-212.4z"/>
		</g>
		<g id="g3113" transform="translate(96.749,725.9735)">
			<path id="path3115" inkscape:connector-curvature="0" class="st15" d="M604.3-205.3v-50.4h8.6v42.6H635v7.8H604.3z"/>
		</g>
		<g id="g3117" transform="translate(109.5922,733.087)">
			<path id="path3119" inkscape:connector-curvature="0" class="st15" d="M655-247.6l-7.1,16.8h14.3L655-247.6z M669.9-212.4
				L665-224h-19.9l-4.9,11.5h-8.9l23.2-51.1h1.2l23.2,51.1C678.9-212.4,669.9-212.4,669.9-212.4z"/>
		</g>
		<g id="g3121" transform="translate(120.5274,733.087)">
			<path id="path3123" inkscape:connector-curvature="0" class="st15" d="M698.2-247.6l-7.1,16.8h14.3L698.2-247.6z M713-212.4
				l-4.9-11.5h-19.9l-4.9,11.5h-8.9l23.2-51.1h1.2l23.2,51.1C722.1-212.4,713-212.4,713-212.4z"/>
		</g>
		<g id="g3125" transform="translate(135.9362,725.7792)">
			<path id="path3127" inkscape:connector-curvature="0" class="st15" d="M759-204.2l-31.6-33.3v32.3h-8.6v-51.1l1.4-0.3l31.1,32.8
				v-31.8h8.6v51.2L759-204.2z"/>
		</g>
	</g>
</g>
</svg>
