<?xml version="1.0" encoding="utf-8"?>
<!-- Generator: Adobe Illustrator 22.1.0, SVG Export Plug-In . SVG Version: 6.00 Build 0)  -->
<svg version="1.1"
	 id="svg2985" inkscape:version="0.48.2 r9819" sodipodi:docname="90b7c55bba3c2bbd9bd1e4062242f6d2de7b81ea.pdf" xmlns:cc="http://creativecommons.org/ns#" xmlns:dc="http://purl.org/dc/elements/1.1/" xmlns:inkscape="http://www.inkscape.org/namespaces/inkscape" xmlns:rdf="http://www.w3.org/1999/02/22-rdf-syntax-ns#" xmlns:sodipodi="http://sodipodi.sourceforge.net/DTD/sodipodi-0.dtd" xmlns:svg="http://www.w3.org/2000/svg"
	 xmlns="http://www.w3.org/2000/svg" xmlns:xlink="http://www.w3.org/1999/xlink" x="0px" y="0px" viewBox="0 0 1000 1000"
	 style="enable-background:new 0 0 1000 1000;" xml:space="preserve">
<style type="text/css">
	.st0{fill:#CE147F;}
	.st1{fill:#7B6FB1;}
	.st2{fill:#944C98;}
	.st3{fill:#BA348D;}
	.st4{fill:#1273B8;}
	.st5{fill:#1F8DCC;}
	.st6{fill:#16A5B6;}
	.st7{fill:#13AF9A;}
	.st8{fill:#30AD69;}
	.st9{fill:#75BA43;}
	.st10{fill:#F9B234;}
	.st11{fill:#F28921;}
	.st12{fill:#EA312C;}
	.st13{fill:#D81D4A;}
	.st14{fill:#5AC7EE;}
</style>
<sodipodi:namedview  bordercolor="#666666" borderopacity="1" fit-margin-bottom="0.5" fit-margin-left="0.5" fit-margin-right="0.5" fit-margin-top="0.5" gridtolerance="10" guidetolerance="10" id="namedview2987" inkscape:current-layer="g2993" inkscape:cx="2.9447832" inkscape:cy="-316.79329" inkscape:pageopacity="0" inkscape:pageshadow="2" inkscape:window-height="1028" inkscape:window-maximized="1" inkscape:window-width="1920" inkscape:window-x="-8" inkscape:window-y="-8" inkscape:zoom="0.50837168" objecttolerance="10" pagecolor="#ffffff" showgrid="false">
	<inkscape:grid  empspacing="5" enabled="true" id="grid3140" snapvisiblegridlinesonly="true" type="xygrid" visible="true">
		</inkscape:grid>
</sodipodi:namedview>
<g>
	<g id="g3023" transform="matrix(5.0302765,0,0,5.0302765,214.50716,891.89296)">
		<path id="path3025" inkscape:connector-curvature="0" class="st0" d="M8.8-94l-28.2-12.6l4.9-11.3l28.2,12.6L8.8-94z"/>
	</g>
	<g id="g3027" transform="matrix(5.0302765,0,0,5.0302765,283.67447,1012.4083)">
		<path id="path3029" inkscape:connector-curvature="0" class="st1" d="M36.9-190.8l-1.2,39.3l12.3,0.3l1.2-39.3L36.9-190.8z"/>
	</g>
	<g id="g3031" transform="matrix(5.0302765,0,0,5.0302765,246.4786,934.70966)">
		<path id="path3033" inkscape:connector-curvature="0" class="st2" d="M21.6-128.2l-9.2-19.6l12.3-5.8l9.2,19.6L21.6-128.2z"/>
	</g>
	<g id="g3035" transform="matrix(5.0302765,0,0,5.0302765,232.08042,922.77987)">
		<path id="path3037" inkscape:connector-curvature="0" class="st3" d="M15.7-118.7l-33.1-34.7l4-4L20-122.7L15.7-118.7z"/>
	</g>
	<g id="g3039" transform="matrix(5.0302765,0,0,5.0302765,316.4588,942.80236)">
		<path id="path3041" inkscape:connector-curvature="0" class="st4" d="M50.1-134.7l12.6-28.2l5.2,2.5l-12.6,28.2L50.1-134.7z"/>
	</g>
	<g id="g3043" transform="matrix(5.0302765,0,0,5.0302765,339.11868,929.8459)">
		<path id="path3045" inkscape:connector-curvature="0" class="st5" d="M59.4-124.4l33.1-33.1l6.1,6.1l-33.1,33.1L59.4-124.4z"/>
	</g>
	<g id="g3047" transform="matrix(5.0302765,0,0,5.0302765,362.38572,843.11186)">
		<path id="path3049" inkscape:connector-curvature="0" class="st6" d="M68.6-54.8l39.3,18.4l-3.7,7.7L65-47.2L68.6-54.8z"/>
	</g>
	<g id="g3051" transform="matrix(5.0302765,0,0,5.0302765,348.5922,819.4283)">
		<path id="path3053" inkscape:connector-curvature="0" class="st7" d="M63-35.7l21.8,21.2l-4.6,4.9L58.4-30.8L63-35.7z"/>
	</g>
	<g id="g3055" transform="matrix(5.0302765,0,0,5.0302765,331.17788,804.1106)">
		<path id="path3057" inkscape:connector-curvature="0" class="st8" d="M56.1-23.3L68.4,3L57.1,8.3L44.8-18.1L56.1-23.3z"/>
	</g>
	<g id="g3059" transform="matrix(5.0302765,0,0,5.0302765,297.56707,792.44238)">
		<path id="path3061" inkscape:connector-curvature="0" class="st9" d="M42.3-14l0.6,44.8H34L33.4-14H42.3z"/>
	</g>
	<g id="g3063" transform="matrix(5.0302765,0,0,5.0302765,266.42264,795.39516)">
		<path id="path3065" inkscape:connector-curvature="0" class="st10" d="M29.8-16.5L20.9,4.7l-8.6-3.4l8.9-21.2L29.8-16.5z"/>
	</g>
	<g id="g3067" transform="matrix(5.0302765,0,0,5.0302765,239.96339,809.81896)">
		<path id="path3069" inkscape:connector-curvature="0" class="st11" d="M19-28L-16.9,7.8l-6.4-6.4l35.9-35.9L19-28z"/>
	</g>
	<g id="g3071" transform="matrix(5.0302765,0,0,5.0302765,221.77389,831.1081)">
		<path id="path3073" inkscape:connector-curvature="0" class="st12" d="M11.8-45.1l-20.9,9.2l-4-9.5l20.9-9.2L11.8-45.1z"/>
	</g>
	<g id="g3075" transform="matrix(5.0302765,0,0,5.0302765,211.85217,863.42359)">
		<path id="path3077" inkscape:connector-curvature="0" class="st13" d="M7.7-71l-31,0.3v-6.1l31-0.3L7.7-71z"/>
	</g>
	<g id="g3079" transform="matrix(5.0302765,0,0,5.0302765,357.13713,907.82083)">
		<path id="path3081" inkscape:connector-curvature="0" class="st14" d="M66.5-106.8L95-118.1l4.3,11L70.8-95.7L66.5-106.8z"/>
	</g>
	<g id="g3083" transform="matrix(5.0302765,0,0,5.0302765,366.82745,878.95507)">
		<path id="path3085" inkscape:connector-curvature="0" class="st4" d="M70.5-83.7l22.7,0.9L92.6-68l-22.7-0.9L70.5-83.7z"/>
	</g>
</g>
</svg>
