<?xml version="1.0" encoding="utf-8"?>
<!-- Generator: Adobe Illustrator 22.1.0, SVG Export Plug-In . SVG Version: 6.00 Build 0)  -->
<svg version="1.1" id="Laag_1" xmlns="http://www.w3.org/2000/svg" xmlns:xlink="http://www.w3.org/1999/xlink" x="0px" y="0px"
	 viewBox="0 0 750 750" style="enable-background:new 0 0 750 750;" xml:space="preserve">
<g>
	<path d="M407.8,314.3c1.7,0.5,3.5,0.9,5.1,1.6c9.7,3.7,14.9,12.8,13.7,23.8c-1,9.2-8.8,17.1-18.3,18.6
		c-12.4,1.9-23.5-4.7-26.3-15.9c-3.2-12.8,4.2-24.8,17.2-27.7c0.4-0.1,0.8-0.3,1.1-0.4C402.8,314.3,405.3,314.3,407.8,314.3z
		 M404.2,323.1c-7.3-0.1-12.9,5.6-13,13.2c-0.1,7.5,5.7,13.6,12.9,13.6c7.2,0,12.9-5.8,12.9-13.3C417,329.1,411.4,323.1,404.2,323.1
		z"/>
	<path d="M660.6,341.1c-0.2,0.6-0.5,1.2-0.7,1.9c-3.2,10.4-13.5,16.9-24.5,15.6c-11.8-1.4-19.6-9.7-20.2-21.3
		c-0.5-10.6,6.7-19.9,17.5-22.4c0.5-0.1,1-0.3,1.5-0.5c2.7,0,5.3,0,8,0c0.4,0.2,0.8,0.4,1.3,0.5c5,1.2,9.5,3.5,12.4,7.7
		c2,2.8,3.1,6.2,4.7,9.4C660.6,334.9,660.6,338,660.6,341.1z M650.9,336.5c0-7.6-5.7-13.5-13-13.5c-7.2,0-12.7,5.7-12.8,13.2
		c-0.1,7.5,5.7,13.6,12.9,13.6C645.2,349.9,650.9,344,650.9,336.5z"/>
	<path d="M320.8,314.3c4.2,1.2,8.1,2.8,11.3,5.9c7.8,7.8,8.7,21.1,1.9,30.1c-6.5,8.5-18.6,10.9-28,5.5c-7.7-4.4-11.7-13.3-10.4-23.1
		c1.1-8.4,7.4-15.5,15.7-17.7c0.6-0.2,1.3-0.4,1.9-0.7C315.8,314.3,318.3,314.3,320.8,314.3z M335.1,336.5c0-6.2-2.2-11.5-7.1-15.4
		c-11-8.7-27-2.1-28.9,11.9c-1.8,12.5,6.6,22.8,18.4,22.7C327.5,355.5,335.1,347.2,335.1,336.5z"/>
	<path d="M131.2,314.3c3.6,1,7.2,2,10.2,4.4c0.3,0.3,0.6,0.5,1.2,0.9c-0.7,0.8-1.3,1.6-2,2.5c-0.6-0.4-1.2-0.8-1.7-1.2
		c-4.2-2.9-8.8-4.3-13.8-3.2c-1.7,0.3-3.5,1.1-4.9,2.2c-4.2,3.2-3.8,9.5,0.8,11.9c2.7,1.4,5.9,2.1,8.8,3.1c2.6,0.9,5.4,1.5,7.9,2.6
		c3.9,1.7,6.1,4.6,6.2,9.1c0,4.6-1.9,8-5.9,10.1c-5.4,2.9-11.1,2.6-16.6,0.6c-3.2-1.2-6.1-3.2-9.4-5.1c1.1-1.2,1.7-2,2.5-2.9
		c3.2,2.8,6.5,5.1,10.6,5.9c3.8,0.7,7.6,0.9,11.2-1c2.9-1.6,4.4-4,4.4-7.3c0-3.3-1.7-5.4-4.7-6.5c-2.7-1-5.5-1.6-8.2-2.4
		c-2.7-0.8-5.4-1.5-7.9-2.7c-3.6-1.7-5.7-4.6-5.8-8.7c-0.1-4.4,1.8-7.7,5.5-9.8c1.8-1,3.8-1.5,5.8-2.2
		C127.3,314.3,129.3,314.3,131.2,314.3z"/>
	<path d="M505.3,315.2c3.4,0,6.3,0,9.4,0c0,14.2,0,28.3,0,42.7c-2.5,0-5,0.1-7.5-0.1c-0.6,0-1.3-0.9-1.8-1.5
		c-6-7.8-11.9-15.6-17.9-23.4c-0.4-0.5-0.8-1-1.5-1.8c0,9.1,0,17.8,0,26.7c-3.2,0-6.3,0-9.4,0c0-14.2,0-28.3,0-42.7
		c2.7,0,5.4-0.1,8,0.1c0.6,0,1.4,0.8,1.8,1.4c5.8,7.5,11.5,15.1,17.2,22.6c0.4,0.5,0.8,0.9,1.5,1.8
		C505.3,332.1,505.3,323.7,505.3,315.2z"/>
	<path d="M433.9,315.3c8.1,0,16-0.5,23.9,0.2c6.8,0.6,10.8,5.1,11.6,11c1,7.4-1.5,12.4-7.9,15.7c-0.2,0.1-0.5,0.2-0.9,0.5
		c3.4,5,6.7,9.9,10.4,15.2c-3.8,0-7.2,0.1-10.6-0.1c-0.5,0-1.1-0.7-1.5-1.3c-2.5-3.6-4.9-7.2-7.3-10.9c-0.7-1.1-1.5-1.5-2.7-1.4
		c-1.7,0.1-3.5,0-5.5,0c0,4.6,0,9,0,13.5c-3.3,0-6.3,0-9.5,0C433.9,343.6,433.9,329.5,433.9,315.3z M443.5,323.8c0,3.9,0,7.8,0,11.8
		c3.7,0,7.3,0.1,10.8,0c3.4-0.2,5.5-2.5,5.6-5.6c0.2-3.4-1.4-5.7-4.9-6.1C451.2,323.5,447.4,323.8,443.5,323.8z"/>
	<path d="M570.7,357.7c0-14.2,0-28.3,0-42.6c0.9,0,1.8,0,2.7,0c5.2,0,10.5-0.2,15.7,0c8.9,0.4,15.9,4.4,19.4,12.8
		c3.4,8.3,2.2,16.3-4,23.1c-3.6,3.9-8.2,6.2-13.4,6.5C584.4,358,577.6,357.7,570.7,357.7z M580.3,349.1c3.2,0,6.2,0.2,9.2,0
		c5.9-0.6,9.8-4.6,10.7-10.8c0.9-6-2.1-11.5-7.3-13.7c-4.1-1.7-8.3-0.9-12.5-1C580.3,332.2,580.3,340.6,580.3,349.1z"/>
	<path d="M519.9,357.9c2.8-6.7,5.5-13,8.2-19.3c3.1-7.4,6.3-14.7,9.4-22.1c0.5-1.3,1.1-1.9,2.6-1.8c2.3,0.2,5.1-0.7,6.7,0.4
		c1.6,1.1,2.1,3.9,3,6c4.9,11.5,9.8,22.9,14.6,34.4c0.3,0.7,0.6,1.4,1,2.4c-3.2,0-6.2,0.1-9.1-0.1c-0.5,0-1.1-0.8-1.3-1.3
		c-1-2.2-1.9-4.5-2.8-6.8c-0.4-1-0.9-1.5-2.1-1.5c-5,0.1-10,0-15.1,0.1c-0.7,0-1.6,0.7-1.9,1.3c-1.1,2.3-1.9,4.6-2.9,6.9
		c-0.3,0.6-1.1,1.3-1.7,1.3C525.8,358,523,357.9,519.9,357.9z M548.1,339.8c-1.8-4.5-3.6-8.7-5.5-13.5c-2,4.8-3.7,9.1-5.5,13.5
		C540.8,339.8,544.3,339.8,548.1,339.8z"/>
	<path d="M366.3,357.8c-3.3,0-6.3,0-9.5,0c0-11.3,0-22.4,0-33.9c-4.4,0-8.6,0-13,0c0-3,0-5.9,0-8.8c11.8,0,23.6,0,35.4,0
		c0,2.9,0,5.6,0,8.6c-4.3,0-8.5,0-12.9,0C366.3,335.2,366.3,346.4,366.3,357.8z"/>
	<path d="M235.5,357.8c0-14.3,0-28.3,0-42.5c0.5-0.1,1-0.2,1.4-0.2c6,0.1,12.1-0.4,17.9,0.5c11.4,1.8,18.3,10.9,17.6,22.3
		c-0.6,10.7-9,19.2-20.1,19.8C246.8,358.1,241.3,357.8,235.5,357.8z M238.8,354.5c5.2,0,10.2,0.4,15-0.1c8-0.9,14.2-7.4,15.1-15.1
		c1-9.1-3.1-16.5-11.1-19.7c-6.2-2.5-12.6-1.1-19-1.5C238.8,330.4,238.8,342.5,238.8,354.5z"/>
	<path d="M221.6,315.2c1.1,0,2,0,2.9,0c0.1,0.2,0.3,0.4,0.3,0.5c0,9.2,0.2,18.4-0.2,27.6c-0.3,7.5-5.1,12.8-12,14.6
		c-7.7,2-15.6-0.3-19.6-6c-2-2.9-3.2-6.1-3.2-9.6c-0.1-9,0-18,0-27.1c1,0,1.9,0,3.1,0c0,0.8,0,1.6,0,2.4c0.1,8.4-0.2,16.8,0.4,25.1
		c0.8,10.9,12.5,16.6,21.9,10.9c5-3,6.3-8,6.4-13.3c0.1-7.6,0-15.2,0-22.8C221.6,316.8,221.6,316,221.6,315.2z"/>
	<path d="M164,318.1c-5.2,0-10,0-15,0c0-1.1,0-1.9,0-3c10.9,0,21.8,0,32.9,0c0,0.9,0,1.8,0,2.9c-4.8,0-9.6,0-14.7,0
		c0,13.3,0,26.4,0,39.8c-1.2,0.1-2.1,0.1-3.3,0.1C164,344.7,164,331.5,164,318.1z"/>
	<path d="M282.4,315c1,0,2,0,3.1,0c0,14.2,0,28.4,0,42.7c-1,0-2,0-3.1,0C282.4,343.6,282.4,329.4,282.4,315z"/>
	<path d="M429,384.9c1.5-4.2,2.9-8.4,4.4-12.5c0.2-0.7,0.8-1.2,1.3-1.8c0.2,0.1,0.4,0.3,0.7,0.4c-1.9,5.4-3.9,10.8-5.8,16.2
		c-0.1,0.3-0.7,0.8-0.8,0.7c-0.4-0.2-0.7-0.6-0.9-0.9c-1.3-3.6-2.5-7.2-3.7-10.9c-0.2-0.7-0.5-1.4-0.9-2.6c-1.6,4.7-3,8.8-4.4,12.9
		c-0.2,0.6-0.7,1-1.1,1.5c-0.3-0.5-0.8-0.9-1-1.4c-1.9-5.1-3.7-10.3-5.6-15.5c0.2-0.1,0.4-0.3,0.6-0.4c0.5,0.5,1.1,1,1.4,1.6
		c1.6,4.2,3,8.5,4.7,13.4c0.7-1.9,1.1-3.2,1.6-4.6c1-3,1.9-6,3-8.9c0.2-0.5,0.7-0.9,1-1.3c0.3,0.4,0.7,0.8,0.9,1.3
		c1.2,3.6,2.4,7.3,3.6,10.9c0.2,0.6,0.5,1.3,0.7,1.9C428.7,384.9,428.9,384.9,429,384.9z"/>
	<path d="M287.1,383c-2.2-3.2-4.2-6.1-6.3-9.1c-0.2,0-0.3,0-0.5,0.1c0,4.6,0,9.2,0,14.2c-1.3-1.2-1.7-10.3-1-17.7
		c0.8,0.6,1.5,1,1.9,1.5c2,2.8,3.9,5.7,6,8.8c2.1-3.1,4-5.9,6-8.8c0.4-0.6,1.1-0.9,2.1-1.6c0,5.9,0,11.2,0,16.4
		c0,0.4-0.5,0.8-0.7,1.2c-0.3-0.4-0.7-0.8-0.7-1.2c-0.1-3.5,0-7,0-10.5c0-0.7,0-1.3-0.4-2.1C291.3,376.9,289.3,379.8,287.1,383z"/>
	<path d="M504.6,373.9c-2,2.9-4.1,5.9-6.3,9c-2.2-3.1-4.2-6-6.2-8.9c-0.2,0-0.3,0-0.5,0.1c0,4.6,0,9.1,0,13.7
		c-0.3,0.1-0.5,0.1-0.8,0.2c-0.2-0.5-0.6-1-0.6-1.4c0-5.2,0-10.3,0-16.2c1,0.8,1.7,1.1,2.1,1.7c2,2.8,3.8,5.6,5.9,8.6
		c2.6-3.5,4.6-7.1,7.2-10.2c0.3,0.2,0.6,0.3,0.9,0.5c0,3.1,0,6.2,0,9.3c0,2.1,0,4.2,0,6.3c0,0.5-0.4,0.9-0.6,1.3
		c-0.3-0.5-0.7-0.9-0.7-1.4c-0.1-4.1,0-8.2,0-12.3C504.9,374,504.7,374,504.6,373.9z"/>
	<path d="M185.7,388.1c-0.6-0.3-1.3-0.6-1.7-1c-0.8-0.9-1.6-1.8-2.2-2.8c-1.7-3.4-4.5-3.9-8.1-3.1c0,1.8,0,3.6,0,5.5
		c0,0.4-0.4,0.9-0.7,1.3c-0.2-0.4-0.7-0.8-0.7-1.3c0-5.2,0-10.3,0-15.6c3.2,0,6.2-0.2,9.2,0.1c2.5,0.3,4,2.1,4.1,4.3
		c0.2,2.5-1.1,4-4.7,5.3c1.7,2.3,3.4,4.5,5.1,6.8C185.9,387.7,185.8,387.9,185.7,388.1z M173.8,379.7c2.6-0.1,4.9-0.1,7.3-0.4
		c1.9-0.3,3.1-1.6,3.2-3.6c0.1-1.8-1.3-3.3-3.5-3.5c-2.3-0.2-4.6,0-7,0C173.8,374.6,173.8,377,173.8,379.7z"/>
	<path d="M200.2,370.6c3,0.2,5.8,0.1,8.5,0.6c4,0.8,6.3,4.2,6.2,8.3c-0.1,3.9-2.7,7.2-6.5,7.9c-2.6,0.5-5.4,0.4-8.2,0.6
		C200.2,382.1,200.2,376.6,200.2,370.6z M201.6,386.7c2.1-0.1,4.1-0.1,6.1-0.4c3.4-0.6,5.6-3.3,5.7-6.7c0.1-3.3-1.8-6.3-5-7.1
		c-2.2-0.5-4.5-0.4-6.8-0.6C201.6,377,201.6,381.7,201.6,386.7z"/>
	<path d="M514.1,374.1c0,4.6,0,9.1,0,13.7c-0.2,0.1-0.3,0.1-0.5,0.2c-0.2-0.3-0.7-0.7-0.7-1c0-5.3,0-10.7,0-16
		c0.2-0.1,0.3-0.2,0.5-0.3c0.5,0.5,1.2,0.9,1.6,1.5c1.9,2.8,3.8,5.6,5.8,8.5c2.4-3.4,4.7-6.6,7.1-9.7c0.1-0.1,0.5,0,0.8,0
		c0,5.7,0,11.3,0,16.9c0,0-0.5,0.1-1,0.2c0-4.7,0-9.3,0-13.9c-0.1,0-0.3-0.1-0.4-0.1c-2,2.9-4.1,5.9-6.3,9.1c-2.2-3.2-4.2-6.1-6.2-9
		C514.4,374,514.2,374,514.1,374.1z"/>
	<path d="M115.8,388.2c-1.5-1.1-1.9-12.2-1.1-17.8c0.8,0.7,1.4,1.1,1.8,1.7c2,2.8,3.8,5.6,5.8,8.5c2.5-3.3,4.9-6.5,7.3-9.7
		c0.1-0.1,0.4,0,0.6,0.1c0.9,4.7,0.3,16.4-1,17c0-4.7,0-9.3,0-13.9c-0.2,0-0.3-0.1-0.5-0.1c-2,2.9-4.1,5.9-6.3,9.1
		c-2.2-3.1-4.2-6.1-6.6-9.6C115.8,378.6,115.8,383.2,115.8,388.2z"/>
	<path d="M238.2,370.3c2.7,2.1,4.3,4.9,6.2,7.2c2,2.4,3.9,4.8,6.3,7.1c0-2.6,0-5.2,0-7.8c0-1.6,0-3.2,0-4.8c0-0.4,0.3-0.8,0.5-1.2
		c0.2,0.4,0.7,0.8,0.7,1.2c0.1,4.1,0,8.2,0,12.3c0,1.1,0,2.3,0,3.4c-0.3,0.1-0.5,0.2-0.8,0.3c-3.9-4.9-7.7-9.7-11.6-14.6
		c-0.2,0-0.3,0-0.5,0c0,2.4,0,4.9,0,7.3c-0.1,2.3,0.3,4.7-0.2,7c-0.3,0-0.5,0-0.8,0C238.2,382.2,238.2,376.6,238.2,370.3z"/>
	<path d="M475.9,387.9c-5,0-8.4-3.6-8.4-8.6c0-5,3.7-8.9,8.6-8.9c4.9,0,8.6,3.9,8.5,8.9C484.5,384.4,481,388,475.9,387.9z
		 M483.2,379.4c0-4.3-3.1-7.7-7.2-7.7c-4,0-7.1,3.3-7.1,7.5c0,4.3,3.1,7.6,7.2,7.6C480.1,386.8,483.1,383.6,483.2,379.4z"/>
	<path d="M376.5,388.1c-3.9-4.9-7.8-9.8-11.7-14.7c-0.2,0-0.3,0.1-0.5,0.1c0,3.2,0,6.5,0,9.7c0,1.1,0.1,2.2,0,3.3
		c0,0.4-0.5,0.8-0.7,1.2c-0.2-0.4-0.5-0.8-0.5-1.1c0-5.2,0-10.5,0-16.3c1,0.6,1.7,0.9,2.1,1.5c3.1,3.8,6.1,7.6,9.1,11.4
		c0.4,0.5,0.8,1,1.7,1.9c0-4.5,0-8.5,0-12.4c0-0.7,0.4-1.3,0.6-1.9c0.2,0.6,0.7,1.2,0.7,1.8c0.1,5,0,10,0,15
		C377,387.8,376.8,388,376.5,388.1z"/>
	<path d="M568.6,388.1c-3.9-4.9-7.8-9.8-12.1-15.2c0,5.4,0,10.1,0,14.8c-0.2,0.1-0.4,0.1-0.6,0.2c-0.2-0.4-0.6-0.8-0.6-1.3
		c0-5.2,0-10.4,0-16.4c1,0.8,1.8,1.2,2.2,1.8c3,3.7,5.9,7.4,8.8,11.1c0.5,0.6,1,1.1,1.8,2.2c0-4.7,0-8.8,0-13c0-0.6,0.3-1.1,0.5-1.7
		c0.2,0.1,0.4,0.1,0.6,0.2c0,5.6,0,11.2,0,16.8C569,387.8,568.8,388,568.6,388.1z"/>
	<path d="M311.2,379.9c0,2.3,0,4.4,0,6.7c3.6,0,7.1,0,10.7,0c0.1,0.2,0.1,0.4,0.2,0.6c-0.4,0.2-0.8,0.6-1.3,0.6
		c-3.5,0.1-7.1,0-10.9,0c0-5.7,0-11.3,0-17.1c3.7,0,7.3,0,11,0c0.3,0,0.6,0.4,0.9,0.6c-0.4,0.2-0.7,0.6-1.1,0.6
		c-2.4,0.1-4.7,0-7.1,0c-0.8,0-1.5,0-2.4,0c0,2.2,0,4.3,0,6.6c3.2,0,6.3,0,9.5,0c0,0.2,0,0.5,0.1,0.7c-1.2,1.2-2.9,0.4-4.4,0.5
		C314.8,380,313.1,379.9,311.2,379.9z"/>
	<path d="M137,370.8c4.1,0,8,0,12,0c0,0.4,0,0.7,0,1.1c-3.5,0-6.9,0-10.5,0c0,2.4,0,4.4,0,6.8c3.2,0,6.3,0,9.5,0
		c0,0.2,0,0.5,0.1,0.7c-1.2,1.2-2.9,0.4-4.4,0.5c-1.7,0.2-3.3,0-5.2,0c0,2.2,0,4.3,0,6.7c3.6,0,7.1,0,10.9,0
		c-0.8,1.3-7.7,1.7-12.3,1C137,382.1,137,376.6,137,370.8z"/>
	<path d="M340.9,388.1c-0.7-0.5-1.4-0.8-1.9-1.4c-2-2.3-3.9-4.7-5.9-7.2c-2.9,2.1-5.3,4.3-4.2,8.5c-0.3,0-0.5,0-0.8-0.1
		c-0.2-0.4-0.6-0.9-0.6-1.3c0-4.9,0-9.8,0-14.6c0-0.4,0.4-0.8,0.7-1.2c0.2,0.4,0.6,0.9,0.6,1.3c0.1,3,0,6.1,0,8.8
		c3.1-2.9,6.3-6,9.6-9c0.6-0.6,1.5-0.9,2.5-1c-2.4,2.2-4.8,4.5-7.4,6.8c3,3.7,5.5,6.7,7.9,9.8C341.2,387.7,341.1,387.9,340.9,388.1z
		"/>
	<path d="M273.4,388c-0.5-0.5-1.2-0.9-1.3-1.5c-0.8-3.2-2.8-4.2-5.8-3.6c-0.3,0.1-0.6,0-0.8,0c-3.2-0.5-5.9,0-6.6,3.9
		c-0.1,0.4-0.7,0.8-1.5,0.8c0.1-0.4,0.1-0.9,0.3-1.3c2.2-4.8,4.4-9.6,6.7-14.4c0.3-0.5,0.9-0.9,1.3-1.4c0.4,0.5,1,0.9,1.3,1.4
		c2.2,4.6,4.4,9.3,6.5,14c0.2,0.5,0.4,1,0.6,1.5C273.7,387.8,273.6,387.9,273.4,388z M269.8,381.7c-1.4-3.1-2.8-6.1-4.3-9.4
		c-1.5,3.4-2.9,6.3-4.3,9.4C264.2,381.7,266.9,381.7,269.8,381.7z"/>
	<path d="M156.1,372c0,2.3,0,4.4,0,6.7c3.2,0,6.3,0,9.4,0c0,0.2,0.1,0.5,0.1,0.7c-1.2,1.2-2.9,0.4-4.3,0.5c-1.6,0.2-3.3,0-5.1,0
		c0,2.2,0,4.3,0,6.7c3.6,0,7.1,0,10.9,0c-0.9,1.3-7.5,1.7-12.2,1c0-5.5,0-11.1,0-16.6c4.1-0.8,11.4-0.4,12.1,0.9
		C163.2,372,159.7,372,156.1,372z"/>
	<path d="M647.3,370.9c4,0,7.9,0,11.9,0c0.1,0.2,0.1,0.4,0.2,0.6c-0.6,0.2-1.1,0.5-1.7,0.5c-3,0-6,0-9.1,0c0,2.2,0,4.2,0,6.6
		c3.1,0,6.3,0,9.4,0c0,0.2,0.1,0.5,0.1,0.7c-1.3,1.2-3,0.4-4.5,0.6c-1.6,0.1-3.3,0-5,0c0,2.3,0,4.3,0,6.7c3.6,0,7.2,0,10.9,0
		c-0.8,1.4-6.5,1.7-12.1,1C647.3,382.2,647.3,376.6,647.3,370.9z"/>
	<path d="M602,387.5c2.4-5.3,4.9-10.6,7.3-15.9c0.6-1.3,1.5-1.4,2.1-0.2c2.5,5.3,5,10.7,7.4,16c-0.2,0.2-0.4,0.3-0.5,0.5
		c-0.5-0.5-1.2-0.8-1.3-1.4c-0.8-3.2-2.9-4.2-6-3.6c-0.4,0.1-0.8,0.1-1.3,0c-3.1-0.5-5.2,0.3-6,3.6c-0.1,0.5-0.8,1-1.2,1.4
		C602.4,387.9,602.2,387.7,602,387.5z M610.4,372.3c-1.6,3.5-2.9,6.3-4.2,9.3c2.9,0,5.6,0,8.5,0
		C613.2,378.5,611.9,375.6,610.4,372.3z"/>
	<path d="M535.8,370.7c0.2,0.5,0.5,1.1,0.5,1.6c0.1,2.9,0,5.7,0,8.6c0.1,3.9,2.2,6,5.8,5.9c3.2,0,5.2-1.8,5.4-5.1
		c0.2-3.1,0-6.3,0.1-9.4c0-0.5,0.4-1,0.7-1.4c0.2,0.5,0.7,1,0.7,1.4c0,3.3,0.1,6.5-0.2,9.8c-0.2,3.4-2.6,5.7-5.7,5.9
		c-4.6,0.3-7.5-1.4-7.9-5.2c-0.4-3.9-0.1-7.9-0.1-11.8C535.4,370.8,535.6,370.8,535.8,370.7z"/>
	<path d="M462.7,374.1c-0.3-0.3-0.6-0.5-1-0.8c-3.3-2.5-7.2-2.2-9.8,0.7c-2.6,2.8-2.6,7.6,0,10.5c2.6,2.8,6.5,3,9.8,0.7
		c0.5-0.3,1.1-0.4,1.7-0.3c-3.2,3.8-8.4,4.2-11.9,1.3c-3.5-3-4.1-8.7-1.1-12.5c2.8-3.5,8.1-4.3,11.8-1.6
		C463.6,372.9,463.6,373,462.7,374.1z"/>
	<path d="M598,373.9c-0.5-0.2-1.1-0.2-1.5-0.5c-3.6-2.5-7.8-2.1-10.2,1c-2.4,3.1-2,8,0.9,10.6c2.3,2.1,5.9,2.4,8.5,0.7
		c0.6-0.4,1.2-0.9,1.8-1.4c0.2,0.1,0.4,0.2,0.6,0.2c-0.2,0.5-0.3,1.1-0.7,1.5c-2.6,2.3-7,2.6-10,0.9c-3-1.8-4.7-5.5-4.1-9.2
		c0.6-3.3,2.4-5.8,5.7-6.9c3.5-1.1,6.6-0.3,9.2,2.1C598.1,373.3,598.1,373.6,598,373.9z"/>
	<path d="M392.3,377c0-1.7,0-3.3,0-5c0-0.4,0.5-0.8,0.7-1.1c0.2,0.4,0.5,0.8,0.5,1.1c0,3,0,6,0,9c0.1,3.5,2,5.7,5.2,5.8
		c3.7,0.1,5.9-1.8,6-5.6c0.1-3,0-6,0.1-9c0-0.4,0.5-0.9,0.8-1.3c0.2,0.4,0.6,0.9,0.6,1.3c0,3.2,0.1,6.4-0.1,9.6
		c-0.2,4.2-2.8,6.3-7.5,6.2c-3.6-0.1-6.2-2.6-6.3-6.4C392.2,380,392.3,378.5,392.3,377z"/>
	<path d="M633.7,371.9c-1.8,0-3.6,0-5.8,0c0,2.3,0,4.4,0,6.4c0,2.7,0,5.4,0,8.2c0,0.5-0.4,0.9-0.6,1.4c-0.3-0.5-0.8-0.9-0.8-1.4
		c-0.1-4.3,0-8.6,0-13c0-0.4-0.1-0.8-0.1-1.3c-2-0.1-3.9-0.2-5.9-0.3c0-0.3,0.1-0.5,0.1-0.8c4.4,0,8.8,0,13.2,0
		C633.7,371.4,633.7,371.6,633.7,371.9z"/>
	<path d="M224.7,387.8c-0.1-0.3-0.3-0.7-0.2-1c0.9-4.6-1.3-8.1-4.1-11.5c-1.1-1.3-2-2.8-3-4.2c0.1-0.2,0.2-0.3,0.4-0.5
		c0.6,0.4,1.4,0.7,1.8,1.3c1.9,2.5,3.6,5.1,5.6,7.9c1.9-2.7,3.7-5.3,5.5-7.7c0.4-0.6,1.2-1,1.8-1.4c0.2,0.2,0.3,0.3,0.5,0.5
		c-1.7,2.4-3.2,4.9-5.1,7.1c-2.2,2.4-2.1,5.1-2.1,8c0,0.6-0.3,1.3-0.4,1.9C225.2,387.9,224.9,387.9,224.7,387.8z"/>
	<path d="M303.2,379.4c0,2.4,0,4.9,0,7.3c0,0.4-0.4,0.8-0.6,1.2c-0.3-0.4-0.8-0.8-0.8-1.2c-0.1-4.9,0-9.9,0-14.8
		c0-0.3,0.4-0.7,0.7-1c0.2,0.3,0.6,0.7,0.7,1C303.2,374.4,303.2,376.9,303.2,379.4z"/>
	<path d="M639.2,379.4c0-2.4,0-4.9,0-7.3c0-0.4,0.4-0.8,0.6-1.3c0.2,0.4,0.6,0.8,0.6,1.3c0,4.9,0,9.7,0,14.6c0,0.4-0.3,0.8-0.5,1.2
		c-0.3-0.4-0.7-0.8-0.7-1.2C639.2,384.2,639.2,381.8,639.2,379.4z"/>
	<path d="M355.6,370.7c0.3,0.3,0.7,0.7,0.7,1c0,5.1,0,10.1,0,15.2c0,0.3-0.5,0.6-0.7,1c-0.2-0.3-0.5-0.6-0.5-0.9c0-5.3,0-10.7,0-16
		C355.3,370.8,355.5,370.7,355.6,370.7z"/>
	<path d="M577.3,370.9c0,4.2,0,8.4,0,12.7c0,1.1,0,2.2,0,3.3c0,0.3-0.3,0.6-0.5,0.9c-0.3-0.3-0.7-0.6-0.7-1c-0.1-2.4,0-4.9,0-7.3
		c0-2.4,0-4.9,0-7.3c0-0.5,0.3-1.1,0.5-1.6C576.8,370.8,577.1,370.8,577.3,370.9z"/>
</g>
</svg>
