<?xml version="1.0" encoding="utf-8"?>
<!-- Generator: Adobe Illustrator 22.1.0, SVG Export Plug-In . SVG Version: 6.00 Build 0)  -->
<svg version="1.1" id="Laag_1" xmlns="http://www.w3.org/2000/svg" xmlns:xlink="http://www.w3.org/1999/xlink" x="0px" y="0px"
	 viewBox="0 0 750 750" style="enable-background:new 0 0 750 750;" xml:space="preserve">
<style type="text/css">
	.st0{fill:#636363;}
	.st1{fill:#C31924;}
	.st2{fill:#C31A24;}
	.st3{fill:#7F7E7E;}
	.st4{fill:#979696;}
</style>
<g>
	<path class="st0" d="M338.5,313.7c-26.9,46.3-53.9,92.6-80.9,139.1c-17.1,0-34.1,0-51.9,0c-1.4-7.3-2.3-14.9-3.4-22.5
		c-1-7.6-2.2-15.3-3.3-22.9c-1.1-7.5-2.2-14.9-3.3-22.4c-1.1-7.6-2.3-15.3-3.3-22.9c-1.1-7.6-2.1-15.2-3.2-23c-6.2,0-11.7,0-17.3,0
		c-5.6,0-11.1,0-17.1,0c-8.3,37.8-16.6,75.6-24.9,113.6c-18.1,0-36,0-54.5,0c2.2-12.7,5.3-25.1,8-37.5c2.7-12.6,5.4-25.1,8.2-37.7
		c2.8-12.5,5.6-25.1,8.5-37.9c-3.9-1.1-7.7-0.4-11.5-0.5c-3.7-0.1-7.4,0-11.1,0c-3.8,0-7.7,0-12,0c3.4-15.4,6.6-30.3,9.9-45.3
		c55,0,109.7,0,164.9,0c0.3,1,1.1,2.3,1.2,3.6c0.5,5.7,0.8,11.4,1.4,17.1c1,10.1,2.1,20.1,3.1,30.2c0.5,4.6,0.8,9.2,1.2,13.8
		c0.4,5,0.8,9.9,2,15.1c14.2-26.7,28.4-53.3,42.6-79.9c35.8,0,71.1,0,107.1,0c-3.4,18.6-8.1,36.6-11.6,55.1c11.4,0,22.1,0,33.5,0
		c4.1-18.2,8.2-36.7,12.3-55.1c18.6,0,36.5,0,54.8,0c-8.3,37.7-16.6,75.1-24.8,112.2C437.9,417.7,429.3,429,427,453
		c-4.7,0-9.4,0-14.2,0c-4.6,0-9.2,0-13.9,0c-1.7-3.8,0.3-7.1,1-10.4c2.9-14,6.3-27.9,9.5-41.9c0.3-1.2,0.2-2.6,0.3-4.2
		c-11,0-21.9,0-33.3,0c-4.1,18.5-8.2,37.3-12.4,56.2c-18.3,0-36.2,0-54.8,0c10.1-46.4,20.2-92.5,30.3-138.6
		C339.2,314,338.9,313.8,338.5,313.7z"/>
	<path class="st1" d="M475.4,404.2c8.1-36.9,16.2-73.5,24.4-110.4c42.6,0,85,0,127.7,0c0,36.9,0,73.9,0,111.3
		c-12.4-1.3-24.1,0.4-34.5,7.4c-10.2,6.8-17.1,16.1-20.7,28.3c-16.2,0-32.3,0-49.1,0c-0.5-1.1-1.3-2.9-2-4.7
		c-5.7-15-16.6-24.7-31.7-29.4C485.1,405.3,480.4,405,475.4,404.2z M513.4,310.5c-6,26.9-11.9,53.4-17.8,80.1
		c8.9,3,16.6,7.3,23.4,13.2c6.8,5.8,11.9,13.1,16.1,20.9c4.5,0,8.6,0,12.6,0c4.2,0,8.4,0,12.1,0c0.7-0.8,0.8-1,0.9-1.1
		C570.8,404.9,586,393,607,389c1.4-0.3,2.7-0.9,3.8-1.3c0-25.9,0-51.5,0-77.2C578.3,310.5,546.1,310.5,513.4,310.5z"/>
	<path class="st1" d="M640.3,269.1c5.4,0,10.6,0,16.1,0c0,40.6,0,81.2,0,122.2c17.9,0,35.5,0,53.4,0c0,5.7,0,11,0,16.6
		c-23,0-46.1,0-69.5,0C640.3,361.9,640.3,315.8,640.3,269.1z"/>
	<path class="st2" d="M599.3,452.9c-5.1,0-10.2,0-16,0c-0.3-12,4.7-21.5,13.9-28.5c11.9-9.1,25.3-10,38.7-3.6
		c12.3,5.9,20.1,19.1,19.5,32c-5.2,0-10.5,0-15.8,0c-3.6-13.4-10.2-19.3-21.2-19C608.4,434,602,440.4,599.3,452.9z"/>
	<path class="st2" d="M512.1,452.9c-5.8,0-10.9,0-16.4,0c-0.8-6.4-3.4-12-8.9-15.8c-3.6-2.5-7.6-3.6-12-3.4
		c-10,0.3-16.6,6.8-19.1,19.1c-5.1,0-10.2,0-15.4,0c-2.1-8.6,4.1-21.9,13.6-28.8c12.3-9.1,28.9-9,40.2-2.2
		C505.7,428.9,511.4,439.2,512.1,452.9z"/>
	<path class="st3" d="M685.7,301.8c-2.1,6.8-5,9.2-10.2,8.4c-3.7-0.5-7.3-4.8-7.2-8.6c0.1-3.6,3.5-7.6,7-8.2
		C680.4,292.7,683.5,295.2,685.7,301.8z M677.4,294.8c-5.6,1.7-7.7,4-7.2,7.9c0.3,2.6,3.8,6,6.3,6.3c2.9,0.3,6.2-2.3,7-5.2
		C684.5,299.8,682.5,296.9,677.4,294.8z"/>
	<path class="st4" d="M679.5,306.5c-1.4-1.7-2.3-2.8-3.3-4c-0.5,1.2-0.8,2.2-1.4,3.8c-2.2-2.8-0.6-5.3-1.6-8c2.5,0,4.4,0,6.9,0
		C679.9,300.7,679.7,303.1,679.5,306.5z M678.8,300.8c0-0.4,0-0.8-0.1-1.3c-1.2-0.3-2.5-1.1-3.2,1.5
		C676.8,300.9,677.8,300.9,678.8,300.8z"/>
</g>
</svg>
