<?xml version="1.0" ?><!DOCTYPE svg  PUBLIC '-//W3C//DTD SVG 1.1//EN'  'http://www.w3.org/Graphics/SVG/1.1/DTD/svg11.dtd'><svg enable-background="new 0 0 70 70" id="Layer_1" version="1.1" viewBox="0 0 70 70" xml:space="preserve" xmlns="http://www.w3.org/2000/svg" xmlns:xlink="http://www.w3.org/1999/xlink"><g><path d="M7.6308594,64.4394531c-0.9902344,0-1.7646484-0.3007813-2.3007813-0.8945313   c-0.5771484-0.6396484-1.0751953-1.8662109-0.1689453-4.0771484c2.1591797-5.2558594,6.3193359-9.4638672,9.9902344-13.1767578   l31.9335938-32.2958984c2.2324219-2.2587891,4.6728516-4.4658203,7.7851563-4.5009766c0.0009766,0,0.0009766,0,0.0019531,0   c1.7802734,0,3.4736328,0.8144531,4.7041016,2.2353516c1.2011719,1.3857422,1.7539063,3.1279297,1.515625,4.7783203   c-0.3613281,2.5087891-2.1582031,4.3808594-4.1259766,6.234375L21.34375,56.2822266   c-3.25,3.0615234-7.2958984,6.8720703-12.3505859,7.9941406C8.5078125,64.3847656,8.0488281,64.4394531,7.6308594,64.4394531z    M54.9296875,10.9941406c-2.5859375,0.0283203-4.7646484,2.0195313-6.7783203,4.0556641L16.2177734,47.3457031   c-3.5732422,3.6142578-7.6230469,7.7099609-9.6689453,12.6914063c-0.3359375,0.8212891-0.6279297,1.9228516-0.1054688,2.5019531   c0.375,0.4140625,1.1679688,0.5087891,2.2246094,0.2724609c4.6513672-1.0322266,8.53125-4.6855469,11.6474609-7.6210938   L55.9375,21.6503906c1.7666016-1.6640625,3.3769531-3.3261719,3.6699219-5.3564453   c0.1757813-1.2197266-0.2490234-2.5253906-1.1650391-3.5820313C57.5107422,11.6357422,56.1972656,10.9941406,54.9296875,10.9941406   z" fill="#373684"/><path d="M59.7705078,14.1376953c-0.2539063,0-0.5009766-0.1289063-0.6425781-0.3613281   c-0.2148438-0.3544922-0.1015625-0.8154297,0.2529297-1.0302734c1.2851563-0.7792969,2.4482422-1.8242188,3.3623047-3.0234375   c0.3535156-0.4628906,0.7587891-1.0712891,0.7607422-1.6767578c0.0009766-0.4472656-0.2421875-0.9150391-0.6210938-1.1904297   c-0.3837891-0.28125-0.90625-0.3798828-1.3935547-0.2734375c-0.6953125,0.15625-1.3310547,0.7226563-1.8916016,1.2226563   l-3.0703125,2.7402344c-0.3085938,0.2753906-0.7832031,0.2480469-1.0585938-0.0605469s-0.2490234-0.7832031,0.0605469-1.0585938   l3.0703125-2.7402344c0.6621094-0.5908203,1.4863281-1.3261719,2.5615234-1.5664063   c0.8994141-0.203125,1.8759766-0.0068359,2.6064453,0.5234375c0.7646484,0.5585938,1.2392578,1.4814453,1.2363281,2.4082031   C65,9.1035156,64.4316406,9.9833984,63.9365234,10.6328125c-1.0419922,1.3652344-2.3134766,2.5087891-3.7783203,3.3964844   C60.0371094,14.1025391,59.9023438,14.1376953,59.7705078,14.1376953z" fill="#373684"/><path d="M17.3154297,59.6425781c-0.1962891,0-0.3935547-0.0771484-0.5400391-0.2294922l-6.4365234-6.6894531   c-0.2871094-0.2988281-0.2783203-0.7734375,0.0195313-1.0605469s0.7744141-0.2783203,1.0605469,0.0195313l6.4365234,6.6894531   c0.2871094,0.2988281,0.2783203,0.7734375-0.0195313,1.0605469C17.6904297,59.5732422,17.5029297,59.6425781,17.3154297,59.6425781   z" fill="#373684"/><path d="M29.4238281,26.296875c-0.1904297,0-0.3808594-0.0722656-0.5273438-0.2167969   c-0.2939453-0.2910156-0.296875-0.765625-0.0058594-1.0605469l4.8808594-4.9414063   c2.1640625-2.1914063,4.4023438-4.4580078,7.0839844-6.1728516c2.1464844-1.3710938,5.4921875-2.9208984,9.2236328-2.5537109   c0.4121094,0.0410156,0.7128906,0.4082031,0.671875,0.8203125s-0.4150391,0.71875-0.8203125,0.671875   c-3.3115234-0.3310547-6.3222656,1.0820313-8.2666016,2.3251953c-2.5410156,1.625-4.7197266,3.8300781-6.8261719,5.9638672   l-4.8808594,4.9414063C29.8105469,26.2226563,29.6171875,26.296875,29.4238281,26.296875z" fill="#373684"/><path d="M5.2841797,64.8896484l-0.5732422-0.4902344l-0.5166016-0.5429688l1.2177734-1.1591797   c0.3007813-0.2861328,0.7744141-0.2734375,1.0605469,0.0273438C6.7578125,63.0253906,6.7451172,63.5,6.4453125,63.7851563   L5.2841797,64.8896484z" fill="#373684"/><path d="M41.8261719,35.9228516c-0.2109375,0-0.421875-0.0888672-0.5703125-0.2626953L34.6552734,27.9375   c-0.2685547-0.3144531-0.2314453-0.7880859,0.0830078-1.0576172c0.3154297-0.265625,0.7880859-0.2324219,1.0576172,0.0830078   l6.6005859,7.7226563C42.6650391,35,42.6279297,35.4736328,42.3134766,35.7431641   C42.171875,35.8632813,41.9990234,35.9228516,41.8261719,35.9228516z" fill="#373684"/><path d="M51.4384766,15.7861328c-0.1669922,0-0.3349609-0.0556641-0.4746094-0.1689453   c-0.3203125-0.2626953-0.3681641-0.734375-0.1064453-1.0556641c0.5742188-0.703125,1.484375-1.6816406,2.7568359-2.0703125   c1.1953125-0.3681641,2.8066406-0.0839844,3.5712891,1.1621094c0.2167969,0.3525391,0.1064453,0.8144531-0.2460938,1.03125   s-0.8134766,0.1064453-1.03125-0.2460938c-0.3496094-0.5693359-1.2177734-0.7080078-1.8564453-0.5136719   c-0.6708984,0.2050781-1.3164063,0.7089844-2.0322266,1.5859375   C51.8710938,15.6923828,51.6552734,15.7861328,51.4384766,15.7861328z" fill="#373684"/></g></svg>