<?xml version="1.0" encoding="utf-8"?>
<!-- Generator: Adobe Illustrator 22.1.0, SVG Export Plug-In . SVG Version: 6.00 Build 0)  -->
<svg version="1.1" id="Laag_1" xmlns="http://www.w3.org/2000/svg" xmlns:xlink="http://www.w3.org/1999/xlink" x="0px" y="0px"
	 viewBox="0 0 750 750" style="enable-background:new 0 0 750 750;" xml:space="preserve">
<style type="text/css">
	.st0{fill:none;stroke:#FCE644;stroke-width:10;stroke-linecap:round;stroke-miterlimit:10;}
	.st1{stroke:#FCE644;stroke-width:10;stroke-linecap:round;stroke-miterlimit:10;}
</style>
<circle cx="375" cy="375" r="340"/>
<g>
	<path class="st0" d="M1203.3-123.1c0,0,89.3-102,134-86.7"/>
	<path class="st1" d="M1046.6,128.9c0,0-12-26.7,35.3-77.3c47.3-50.7,260.7-262.7,260.7-262.7s32-26.7,52.7-7.3
		c20.7,19.3,20.7,38.7,4,58.7c-16.7,20-275.3,259.3-275.3,259.3S1076.6,141.5,1046.6,128.9z"/>
	<path class="st0" d="M1386.3-223.1c0,0,27.3-33.3,42-26c14.7,7.3,10.7,28.7-16,47.3C1412.3-201.8,1399.6-217.1,1386.3-223.1z"/>
	<line class="st0" x1="1235.3" y1="-104.5" x2="1285.3" y2="-57.1"/>
	<line class="st0" x1="1077.3" y1="56.2" x2="1121.3" y2="98.9"/>
	<line class="st0" x1="1045.3" y1="128.2" x2="1037.3" y2="136.2"/>
</g>
<g id="Expanded">
	<g>
		<g>
			<path d="M-379.7,580.1h-258.8V418.3h258.8V580.1z M-622.3,563.9h226.4V434.5h-226.4V563.9z"/>
		</g>
		<g>
			<path d="M-434,693.3h-150.1l12.1-48.5h125.8L-434,693.3z M-563.4,677.1h108.7l-4-16.2h-100.6L-563.4,677.1z"/>
		</g>
		<g>
			<path d="M-347.3,758h-323.5c-17.8,0-32.3-14.5-32.3-32.3l0.3-10.3l32-112.1V418.3c0-17.8,14.5-32.3,32.3-32.3h258.8
				c17.8,0,32.3,14.5,32.3,32.3v176.9l32.3,122.4v8.1C-315,743.5-329.5,758-347.3,758z M-687,718.7v7c0,8.9,7.3,16.2,16.2,16.2
				h323.5c8.9,0,16.2-7.3,16.2-16.2v-7l-32.3-122.4V418.3c0-8.9-7.3-16.2-16.2-16.2h-258.8c-8.9,0-16.2,7.3-16.2,16.2l-0.3,188.2
				L-687,718.7z"/>
		</g>
		<g>
			<rect x="-662.7" y="596.3" width="307.3" height="16.2"/>
		</g>
		<g>
			<rect x="-695.1" y="709.5" width="372" height="16.2"/>
		</g>
	</g>
</g>
<g>
	<path class="st0" d="M525.5,413.9h-301c-7.5,0-13.5-6-13.5-13.5V233.8c0-25.9,21-46.9,46.9-46.9h234.1c25.9,0,46.9,21,46.9,46.9
		v166.6C539,407.8,533,413.9,525.5,413.9z"/>
	<path class="st0" d="M560.6,563.1H189.4c-10,0-17.2-9.3-14.5-18.7l33.7-119.3c1.8-6.4,7.8-10.8,14.5-10.8H527
		c6.8,0,12.7,4.4,14.5,10.8l33.6,119.3C577.8,553.8,570.6,563.1,560.6,563.1z"/>
	<path class="st0" d="M486.4,378.4H263.6c-11.9,0-21.6-9.7-21.6-21.6V244c0-11.9,9.7-21.6,21.6-21.6h222.8
		c11.9,0,21.6,9.7,21.6,21.6v112.8C508,368.7,498.3,378.4,486.4,378.4z"/>
	<line class="st0" x1="179" y1="530.1" x2="571" y2="530.1"/>
	<polygon class="st0" points="478.5,491.8 271.5,491.8 283.7,448.4 464.2,448.4 	"/>
</g>
</svg>
