<?xml version="1.0" encoding="utf-8"?>
<!-- Generator: Adobe Illustrator 22.1.0, SVG Export Plug-In . SVG Version: 6.00 Build 0)  -->
<svg version="1.1" id="Laag_1" xmlns="http://www.w3.org/2000/svg" xmlns:xlink="http://www.w3.org/1999/xlink" x="0px" y="0px"
	 viewBox="0 0 750 750" style="enable-background:new 0 0 750 750;" xml:space="preserve">
<style type="text/css">
	.st0{fill:none;stroke:#FCE644;stroke-width:10;stroke-linecap:round;stroke-miterlimit:10;}
	.st1{stroke:#FCE644;stroke-width:10;stroke-linecap:round;stroke-miterlimit:10;}
</style>
<circle cx="375" cy="375" r="340"/>
<g>
	<path class="st0" d="M341.3,308.9c0,0,89.3-102,134-86.7"/>
	<path class="st1" d="M184.6,560.9c0,0-12-26.7,35.3-77.3s260.7-262.7,260.7-262.7s32-26.7,52.7-7.3c20.7,19.3,20.7,38.7,4,58.7
		C520.6,292.2,262,531.5,262,531.5S214.6,573.5,184.6,560.9z"/>
	<path class="st0" d="M524.3,208.9c0,0,27.3-33.3,42-26c14.7,7.3,10.7,28.7-16,47.3C550.3,230.2,537.6,214.9,524.3,208.9z"/>
	<line class="st0" x1="373.3" y1="327.5" x2="423.3" y2="374.9"/>
	<line class="st0" x1="215.3" y1="488.2" x2="259.3" y2="530.9"/>
	<line class="st0" x1="183.3" y1="560.2" x2="175.3" y2="568.2"/>
</g>
</svg>
